<svg width="24" height="25" viewBox="0 0 24 25" fill="none" xmlns="http://www.w3.org/2000/svg">
<path d="M23.6786 4.36837H0.321429C0.23618 4.36837 0.154424 4.33451 0.0941442 4.27423C0.0338647 4.21396 0 4.13221 0 4.04696L0 2.76135C0 2.6761 0.0338647 2.59435 0.0941442 2.53408C0.154424 2.4738 0.23618 2.43994 0.321429 2.43994H23.6786C23.7638 2.43994 23.8456 2.4738 23.9059 2.53408C23.9661 2.59435 24 2.6761 24 2.76135V4.04696C24 4.13221 23.9661 4.21396 23.9059 4.27423C23.8456 4.33451 23.7638 4.36837 23.6786 4.36837ZM23.6786 12.9392H0.321429C0.23618 12.9392 0.154424 12.9053 0.0941442 12.845C0.0338647 12.7847 0 12.703 0 12.6178L0 11.3321C0 11.2469 0.0338647 11.1651 0.0941442 11.1049C0.154424 11.0446 0.23618 11.0107 0.321429 11.0107H23.6786C23.7638 11.0107 23.8456 11.0446 23.9059 11.1049C23.9661 11.1651 24 11.2469 24 11.3321V12.6178C24 12.703 23.9661 12.7847 23.9059 12.845C23.8456 12.9053 23.7638 12.9392 23.6786 12.9392ZM23.6786 21.5099H0.321429C0.23618 21.5099 0.154424 21.4761 0.0941442 21.4158C0.0338647 21.3555 0 21.2738 0 21.1885L0 19.9029C0 19.8177 0.0338647 19.7359 0.0941442 19.6756C0.154424 19.6154 0.23618 19.5815 0.321429 19.5815H23.6786C23.7638 19.5815 23.8456 19.6154 23.9059 19.6756C23.9661 19.7359 24 19.8177 24 19.9029V21.1885C24 21.2738 23.9661 21.3555 23.9059 21.4158C23.8456 21.4761 23.7638 21.5099 23.6786 21.5099Z" fill="#191C1F"/>
</svg>
