<svg width="24" height="24" viewBox="0 0 24 24" fill="none" xmlns="http://www.w3.org/2000/svg">
<path d="M23.7299 19.331C24.499 20.6639 23.5336 22.33 21.9975 22.33H2.00226C0.46322 22.33 -0.497696 20.6613 0.269887 19.331L10.2676 1.99922C11.0371 0.665719 12.9643 0.668135 13.7324 1.99922L23.7299 19.331ZM12 15.7477C10.9415 15.7477 10.0833 16.6057 10.0833 17.6641C10.0833 18.7224 10.9415 19.5804 12 19.5804C13.0585 19.5804 13.9167 18.7224 13.9167 17.6641C13.9167 16.6057 13.0585 15.7477 12 15.7477ZM10.1803 8.85936L10.4894 14.5251C10.5038 14.7903 10.7231 14.9978 10.9886 14.9978H13.0114C13.2769 14.9978 13.4962 14.7903 13.5106 14.5251L13.8197 8.85936C13.8353 8.57298 13.6073 8.33219 13.3205 8.33219H10.6795C10.3927 8.33219 10.1647 8.57298 10.1803 8.85936Z" fill="#191C1F"/>
</svg>
