<svg width="24" height="25" viewBox="0 0 24 25" fill="none" xmlns="http://www.w3.org/2000/svg">
<g clip-path="url(#clip0)">
<path d="M14.9952 9.78221V10.1573C14.9952 10.4668 14.742 10.72 14.4325 10.72H10.4938V14.6587C10.4938 14.9682 10.2406 15.2214 9.93115 15.2214H9.55603C9.24656 15.2214 8.99336 14.9682 8.99336 14.6587V10.72H5.05465C4.74518 10.72 4.49197 10.4668 4.49197 10.1573V9.78221C4.49197 9.47274 4.74518 9.21953 5.05465 9.21953H8.99336V5.28082C8.99336 4.97135 9.24656 4.71815 9.55603 4.71815H9.93115C10.2406 4.71815 10.4938 4.97135 10.4938 5.28082V9.21953H14.4325C14.742 9.21953 14.9952 9.47274 14.9952 9.78221ZM23.8339 23.5208L23.304 24.0507C23.0836 24.271 22.7273 24.271 22.5069 24.0507L16.4582 18.0019C16.3503 17.8941 16.294 17.7534 16.294 17.6034V17.2048C14.5638 18.7709 12.2709 19.7228 9.75297 19.7228C4.39819 19.7228 0.0702996 15.4511 -3.45844e-05 10.0964C-0.0703687 4.6103 4.3935 0.146428 9.87957 0.216762C15.2343 0.287096 19.506 4.61499 19.506 9.96976C19.506 12.4877 18.5541 14.7806 16.988 16.5108H17.3866C17.5366 16.5108 17.6773 16.5718 17.7851 16.675L23.8339 22.7237C24.0542 22.9441 24.0542 23.3004 23.8339 23.5208ZM18.0055 9.96976C18.0055 5.40742 14.3153 1.71722 9.75297 1.71722C5.19063 1.71722 1.50043 5.40742 1.50043 9.96976C1.50043 14.5321 5.19063 18.2223 9.75297 18.2223C14.3153 18.2223 18.0055 14.5321 18.0055 9.96976Z" fill="#191C1F"/>
</g>
<defs>
<clipPath id="clip0">
<rect width="24" height="24" fill="white" transform="translate(0 0.216797)"/>
</clipPath>
</defs>
</svg>
