<svg width="24" height="25" viewBox="0 0 24 25" fill="none" xmlns="http://www.w3.org/2000/svg">
<path d="M20.625 12.2065H19.875C19.7755 12.2065 19.6802 12.2461 19.6098 12.3164C19.5395 12.3867 19.5 12.4821 19.5 12.5815V21.9565C19.5 22.1555 19.421 22.3462 19.2803 22.4869C19.1397 22.6275 18.9489 22.7065 18.75 22.7065H2.25C2.05109 22.7065 1.86032 22.6275 1.71967 22.4869C1.57902 22.3462 1.5 22.1555 1.5 21.9565V5.45654C1.5 5.25763 1.57902 5.06687 1.71967 4.92621C1.86032 4.78556 2.05109 4.70654 2.25 4.70654H11.625C11.7245 4.70654 11.8198 4.66703 11.8902 4.59671C11.9605 4.52638 12 4.431 12 4.33154V3.58154C12 3.48209 11.9605 3.3867 11.8902 3.31638C11.8198 3.24605 11.7245 3.20654 11.625 3.20654H2.25C1.65326 3.20654 1.08097 3.4436 0.65901 3.86555C0.237053 4.28751 0 4.85981 0 5.45654L0 21.9565C0 22.5533 0.237053 23.1256 0.65901 23.5475C1.08097 23.9695 1.65326 24.2065 2.25 24.2065H18.75C19.3467 24.2065 19.919 23.9695 20.341 23.5475C20.7629 23.1256 21 22.5533 21 21.9565V12.5815C21 12.4821 20.9605 12.3867 20.8902 12.3164C20.8198 12.2461 20.7245 12.2065 20.625 12.2065ZM23.4375 0.206543L17.0625 0.22248C16.9133 0.22248 16.7702 0.281744 16.6648 0.387233C16.5593 0.492722 16.5 0.635796 16.5 0.78498V1.25373C16.5 1.40291 16.5593 1.54599 16.6648 1.65148C16.7702 1.75697 16.9133 1.81623 17.0625 1.81623L21.2812 1.80029L21.3141 1.83357L6.16453 16.9812C6.11209 17.0335 6.07048 17.0956 6.04209 17.164C6.0137 17.2323 5.99909 17.3056 5.99909 17.3797C5.99909 17.4537 6.0137 17.527 6.04209 17.5954C6.07048 17.6638 6.11209 17.7258 6.16453 17.7781L6.42984 18.0434C6.4821 18.0959 6.5442 18.1375 6.61257 18.1659C6.68094 18.1942 6.75425 18.2089 6.82828 18.2089C6.90231 18.2089 6.97562 18.1942 7.04399 18.1659C7.11236 18.1375 7.17446 18.0959 7.22672 18.0434L22.373 2.89436L22.4062 2.92717L22.3903 7.14592C22.3903 7.2951 22.4496 7.43818 22.5551 7.54367C22.6606 7.64915 22.8036 7.70842 22.9528 7.70842H23.4216C23.5707 7.70842 23.7138 7.64915 23.8193 7.54367C23.9248 7.43818 23.9841 7.2951 23.9841 7.14592L24 0.769043C24 0.619859 23.9407 0.476785 23.8352 0.371295C23.7298 0.265806 23.5867 0.206543 23.4375 0.206543V0.206543Z" fill="#191C1F"/>
</svg>
