<svg width="25" height="25" viewBox="0 0 25 25" fill="none" xmlns="http://www.w3.org/2000/svg">
<path d="M20.75 2.72925H18.5V0.291748C18.5 -0.0176269 18.2469 -0.270752 17.9375 -0.270752H17.5625C17.2531 -0.270752 17 -0.0176269 17 0.291748V2.72925H8V0.291748C8 -0.0176269 7.74687 -0.270752 7.4375 -0.270752H7.0625C6.75313 -0.270752 6.5 -0.0176269 6.5 0.291748V2.72925H4.25C3.00781 2.72925 2 3.73706 2 4.97925V21.4792C2 22.7214 3.00781 23.7292 4.25 23.7292H20.75C21.9922 23.7292 23 22.7214 23 21.4792V4.97925C23 3.73706 21.9922 2.72925 20.75 2.72925ZM4.25 4.22925H20.75C21.1625 4.22925 21.5 4.56675 21.5 4.97925V7.22925H3.5V4.97925C3.5 4.56675 3.8375 4.22925 4.25 4.22925ZM20.75 22.2292H4.25C3.8375 22.2292 3.5 21.8917 3.5 21.4792V8.72925H21.5V21.4792C21.5 21.8917 21.1625 22.2292 20.75 22.2292ZM8.9375 14.7292H7.0625C6.75313 14.7292 6.5 14.4761 6.5 14.1667V12.2917C6.5 11.9824 6.75313 11.7292 7.0625 11.7292H8.9375C9.24687 11.7292 9.5 11.9824 9.5 12.2917V14.1667C9.5 14.4761 9.24687 14.7292 8.9375 14.7292ZM13.4375 14.7292H11.5625C11.2531 14.7292 11 14.4761 11 14.1667V12.2917C11 11.9824 11.2531 11.7292 11.5625 11.7292H13.4375C13.7469 11.7292 14 11.9824 14 12.2917V14.1667C14 14.4761 13.7469 14.7292 13.4375 14.7292ZM17.9375 14.7292H16.0625C15.7531 14.7292 15.5 14.4761 15.5 14.1667V12.2917C15.5 11.9824 15.7531 11.7292 16.0625 11.7292H17.9375C18.2469 11.7292 18.5 11.9824 18.5 12.2917V14.1667C18.5 14.4761 18.2469 14.7292 17.9375 14.7292ZM13.4375 19.2292H11.5625C11.2531 19.2292 11 18.9761 11 18.6667V16.7917C11 16.4824 11.2531 16.2292 11.5625 16.2292H13.4375C13.7469 16.2292 14 16.4824 14 16.7917V18.6667C14 18.9761 13.7469 19.2292 13.4375 19.2292ZM8.9375 19.2292H7.0625C6.75313 19.2292 6.5 18.9761 6.5 18.6667V16.7917C6.5 16.4824 6.75313 16.2292 7.0625 16.2292H8.9375C9.24687 16.2292 9.5 16.4824 9.5 16.7917V18.6667C9.5 18.9761 9.24687 19.2292 8.9375 19.2292ZM17.9375 19.2292H16.0625C15.7531 19.2292 15.5 18.9761 15.5 18.6667V16.7917C15.5 16.4824 15.7531 16.2292 16.0625 16.2292H17.9375C18.2469 16.2292 18.5 16.4824 18.5 16.7917V18.6667C18.5 18.9761 18.2469 19.2292 17.9375 19.2292Z" fill="#191C1F"/>
</svg>
