<svg width="24" height="24" viewBox="0 0 24 24" fill="none" xmlns="http://www.w3.org/2000/svg">
<path fill-rule="evenodd" clip-rule="evenodd" d="M22.1184 3.0415L22.0014 2.92234C21.4129 2.31421 20.7081 1.83066 19.929 1.50042C19.15 1.17019 18.3125 1 17.4663 1C16.6201 1 15.7826 1.17019 15.0035 1.50042C14.2245 1.83066 13.5197 2.31421 12.9311 2.92234L11.9968 3.87992L11.0625 2.92234C10.4739 2.31421 9.76913 1.83066 8.99004 1.50042C8.21095 1.17019 7.37345 1 6.52729 1C5.68114 1 4.84363 1.17019 4.06454 1.50042C3.28545 1.83066 2.58065 2.31421 1.99212 2.92234L1.87633 3.0415C0.672667 4.28968 0 5.95628 0 7.69053C0 9.42477 0.672667 11.0914 1.87633 12.3396L2.81066 13.2982L4.1067 14.6264L5.41808 15.9665L6.71305 17.2947L8.10094 18.7157L9.39698 20.0417L10.7084 21.3819L12.0045 22.71L13.3005 21.3819L14.6119 20.0417L15.9079 18.7135L17.2958 17.2925L18.5908 15.9644L19.9022 14.6242L21.1982 13.296L22.1337 12.3374C23.3339 11.0869 24.0028 9.41983 24 7.68636C23.9971 5.95288 23.3227 4.28799 22.1184 3.0415ZM8.00369 15.9665L6.70758 14.6384L5.39627 13.2982L4.10016 11.9701L3.1647 11.0114C2.30517 10.1197 1.8249 8.92924 1.8249 7.69053C1.8249 6.45181 2.30517 5.26138 3.1647 4.36963L3.28169 4.25047C3.70194 3.81579 4.20526 3.47012 4.76182 3.23405C5.31837 2.99797 5.91676 2.8763 6.52129 2.8763C7.12582 2.8763 7.72414 2.99797 8.28069 3.23405C8.83725 3.47012 9.34064 3.81579 9.76089 4.25047L10.6953 5.20806L9.3839 6.5482L8.49653 5.63873C8.23826 5.37212 7.92904 5.16017 7.58728 5.0154C7.24553 4.87064 6.87822 4.79603 6.50708 4.79603C6.13595 4.79603 5.76857 4.87064 5.42681 5.0154C5.08506 5.16017 4.7759 5.37212 4.51763 5.63873C3.98984 6.18653 3.69496 6.91772 3.69496 7.67852C3.69496 8.43932 3.98984 9.17048 4.51763 9.71828L5.405 10.6278L6.69998 11.9559L8.01129 13.2971L9.30633 14.6253L10.6941 16.0464L9.38277 17.3865L8.00369 15.9665ZM8.09653 7.87744L6.70871 9.29852L5.82241 8.38904C5.63889 8.19805 5.5364 7.94343 5.5364 7.67852C5.5364 7.41361 5.63889 7.15896 5.82241 6.96796C5.91248 6.87494 6.02036 6.80097 6.13957 6.75046C6.25877 6.69995 6.38689 6.67393 6.51635 6.67393C6.64582 6.67393 6.774 6.69995 6.89321 6.75046C7.01241 6.80097 7.12023 6.87494 7.2103 6.96796L8.09653 7.87744ZM10.61 13.2971L11.9979 11.8761L13.3857 13.2971L11.9979 14.7182L10.61 13.2971ZM14.602 17.3887L13.306 18.7168L11.9946 20.057L10.6832 18.7168L11.9946 17.3767L13.2907 16.0485L14.6785 14.6275L15.9899 15.9676L14.602 17.3887ZM17.2859 14.6373L15.9746 13.2971L14.6785 11.969L13.2907 10.548L14.602 9.20668L15.9899 10.6278L17.2859 11.9559L18.5973 13.2971L17.2859 14.6373ZM15.8981 7.87744L16.7844 6.9669C16.8744 6.87387 16.9823 6.79991 17.1015 6.74939C17.2207 6.69888 17.3488 6.67283 17.4783 6.67283C17.6078 6.67283 17.7359 6.69888 17.8551 6.74939C17.9743 6.79991 18.0822 6.87387 18.1722 6.9669C18.3558 7.15789 18.4583 7.41251 18.4583 7.67742C18.4583 7.94233 18.3558 8.19695 18.1722 8.38794L17.2859 9.29742L15.8981 7.87744ZM20.8245 11.0103L19.889 11.969L18.5776 10.6278L19.465 9.71828C19.9928 9.17048 20.2878 8.43932 20.2878 7.67852C20.2878 6.91772 19.9928 6.18653 19.465 5.63873C19.2067 5.37212 18.8976 5.16017 18.5558 5.0154C18.2141 4.87064 17.8467 4.79603 17.4756 4.79603C17.1044 4.79603 16.7371 4.87064 16.3954 5.0154C16.0536 5.16017 15.7444 5.37212 15.4861 5.63873L14.5987 6.5482L13.3027 7.87744L11.9913 9.21762L10.6953 10.5458L9.3074 11.9668L7.99602 10.6256L9.3839 9.20451L10.6799 7.87744L11.9913 6.53619L13.2874 5.20806L14.2218 4.25047C14.642 3.81579 15.1454 3.47012 15.702 3.23405C16.2585 2.99797 16.8568 2.8763 17.4614 2.8763C18.0659 2.8763 18.6643 2.99797 19.2208 3.23405C19.7774 3.47012 20.2807 3.81579 20.701 4.25047L20.818 4.36963C21.6781 5.26081 22.1591 6.45094 22.1599 7.68966C22.1607 8.92838 21.6812 10.1191 20.8223 11.0114L20.8245 11.0103Z" fill="#191C1F"/>
</svg>
