<svg width="31" height="25" viewBox="0 0 31 25" fill="none" xmlns="http://www.w3.org/2000/svg">
<rect x="0.5" y="1.16113" width="29.86" height="23" rx="2.5" fill="#191C1F" stroke="#D8D8D8"/>
<path d="M4 11.5126H5.4647V11.8026H4.29246V12.72H5.4647V13.0064H4.29246V14.4359H4V11.5126Z" fill="white"/>
<path d="M6.43551 11.5126L7.79949 14.4359H7.48398L7.02406 13.4736H5.76444L5.30816 14.4359H4.98294L6.36391 11.5126H6.43551ZM6.3991 12.1339L5.89792 13.1921H6.89664L6.3991 12.1339Z" fill="white"/>
<path d="M7.70603 13.8911L7.9548 13.7443C8.12955 14.067 8.33099 14.2297 8.56155 14.2297C8.65801 14.2305 8.75315 14.2071 8.83823 14.1617C8.91986 14.12 8.98802 14.0561 9.03482 13.9772C9.07894 13.904 9.10242 13.8201 9.10278 13.7345C9.10031 13.6303 9.06554 13.5294 9.00327 13.4457C8.8594 13.2665 8.69063 13.1088 8.50209 12.9773C8.33536 12.8624 8.18263 12.7284 8.04703 12.5781C7.94725 12.45 7.89264 12.2926 7.8917 12.1303C7.89042 12.0082 7.92184 11.8879 7.98271 11.782C8.04463 11.6787 8.13414 11.5946 8.24119 11.5393C8.35265 11.4781 8.47807 11.4467 8.60524 11.4483C8.74061 11.4477 8.87373 11.4828 8.99114 11.5502C9.14027 11.6484 9.26819 11.7755 9.36732 11.924L9.12462 12.1048C9.05197 11.9917 8.96043 11.892 8.85401 11.8099C8.77744 11.764 8.68968 11.74 8.60039 11.7408C8.54757 11.7386 8.49485 11.7469 8.44527 11.7652C8.39569 11.7835 8.35025 11.8115 8.31157 11.8475C8.27519 11.8812 8.24633 11.9222 8.22688 11.9678C8.20744 12.0133 8.19784 12.0625 8.19872 12.1121C8.19878 12.1761 8.21243 12.2394 8.23876 12.2978C8.27535 12.3703 8.3242 12.436 8.38317 12.4919C8.422 12.5295 8.54821 12.6266 8.76178 12.7844C8.96213 12.9202 9.13813 13.0888 9.28238 13.2831C9.37092 13.4128 9.41982 13.5654 9.42314 13.7224C9.42364 13.8263 9.40228 13.9292 9.36047 14.0243C9.31866 14.1194 9.25733 14.2047 9.18044 14.2746C9.10329 14.3511 9.01155 14.4114 8.91065 14.4518C8.80976 14.4923 8.70178 14.5121 8.59311 14.51C8.42075 14.5122 8.25169 14.4627 8.1077 14.368C7.9369 14.2442 7.79899 14.0805 7.70603 13.8911Z" fill="white"/>
<path d="M9.58213 11.5126H9.87459V12.7382H11.3648V11.5126H11.6572V14.4359H11.3648V13.0246H9.8758V14.4359H9.58213V11.5126Z" fill="white"/>
<path d="M12.0213 11.5126H12.3137V14.4359H12.0213V11.5126Z" fill="white"/>
<path d="M14.1109 11.4385C14.3166 11.4331 14.5212 11.4696 14.7123 11.5457C14.9033 11.6219 15.077 11.7361 15.2225 11.8814C15.3682 12.023 15.4831 12.193 15.5602 12.3809C15.6372 12.5688 15.6747 12.7706 15.6703 12.9736C15.6747 13.1765 15.6373 13.3782 15.5605 13.5661C15.4837 13.754 15.3691 13.924 15.2237 14.0658C15.0822 14.2114 14.9122 14.3264 14.7243 14.4034C14.5364 14.4804 14.3346 14.5179 14.1316 14.5135C13.9289 14.5169 13.7276 14.4792 13.5399 14.4026C13.3522 14.3261 13.182 14.2123 13.0394 14.0682C12.8949 13.9288 12.7806 13.7613 12.7036 13.5759C12.6266 13.3905 12.5884 13.1913 12.5916 12.9906C12.5899 12.7167 12.6602 12.4472 12.7955 12.2091C12.9265 11.9753 13.1174 11.7807 13.3486 11.6452C13.5798 11.5098 13.843 11.4384 14.1109 11.4385ZM14.1243 11.7225C13.9077 11.7228 13.6952 11.7815 13.509 11.8924C13.3196 12.0005 13.1628 12.1577 13.0552 12.3474C12.945 12.5419 12.8885 12.7622 12.8914 12.9857C12.8885 13.1497 12.9194 13.3125 12.982 13.464C13.0446 13.6156 13.1377 13.7526 13.2554 13.8667C13.3681 13.983 13.5032 14.0751 13.6525 14.1375C13.8019 14.1999 13.9624 14.2312 14.1243 14.2296C14.3452 14.2314 14.5625 14.1744 14.7541 14.0645C14.9436 13.9585 15.1002 13.8023 15.2067 13.6131C15.3154 13.419 15.3711 13.1997 15.3681 12.9772C15.3712 12.7567 15.3155 12.5393 15.2067 12.3474C15.0974 12.159 14.9394 12.0035 14.7493 11.8972C14.5602 11.7844 14.3444 11.7241 14.1243 11.7225Z" fill="white"/>
<path d="M15.9336 14.4359V11.5126H15.9967L17.9383 13.7539V11.5126H18.2259V14.4359H18.1604L16.2358 12.2225V14.4359H15.9336Z" fill="white"/>
<path d="M18.5135 11.5125H19.096C19.3236 11.5052 19.5512 11.521 19.7756 11.5598C19.9362 11.5969 20.08 11.686 20.1845 11.8134C20.2944 11.9507 20.3509 12.1231 20.3435 12.2988C20.3519 12.474 20.2967 12.6464 20.1882 12.7842C20.0784 12.9146 19.9279 13.0044 19.761 13.0391C19.5157 13.0803 19.2669 13.0966 19.0184 13.0876H18.8048V14.4358H18.5135V11.5125ZM18.8048 11.8025V12.7951H19.2987C19.4472 12.8024 19.5958 12.7839 19.738 12.7405C19.8282 12.7064 19.9051 12.6443 19.9576 12.5634C20.011 12.4815 20.0388 12.3856 20.0377 12.2879C20.0385 12.1923 20.0111 12.0986 19.9588 12.0185C19.9089 11.94 19.8354 11.8793 19.7489 11.845C19.6103 11.8068 19.4663 11.7925 19.3229 11.8025H18.8048Z" fill="white"/>
<path d="M20.5741 11.5126H20.8677V12.7382H22.3567V11.5126H22.6492V14.4359H22.3567V13.0246H20.8677V14.4359H20.5753L20.5741 11.5126Z" fill="white"/>
<path d="M22.9513 11.5126H23.2438V14.4359H22.9513V11.5126Z" fill="white"/>
<path d="M23.5666 11.5126H23.859V14.1544H24.984V14.4359H23.5666V11.5126Z" fill="white"/>
<path d="M25.1441 11.5126H26.82V11.8026H25.4366V12.72H26.8139V13.0064H25.4427V14.1544H26.8139V14.4359H25.1441V11.5126Z" fill="white"/>
</svg>
