<?xml version="1.0" encoding="utf-8"?>
<!-- Generator: Adobe Illustrator 16.0.0, SVG Export Plug-In . SVG Version: 6.00 Build 0)  -->
<!DOCTYPE svg PUBLIC "-//W3C//DTD SVG 1.1//EN" "http://www.w3.org/Graphics/SVG/1.1/DTD/svg11.dtd">
<svg version="1.1" id="Layer_1" xmlns="http://www.w3.org/2000/svg" xmlns:xlink="http://www.w3.org/1999/xlink" x="0px" y="0px"
	 width="900px" height="900px" viewBox="0 0 900 900" enable-background="new 0 0 900 900" xml:space="preserve">
<g id="Layer_2" display="none">
	
		<line display="inline" fill="none" stroke="#191C1F" stroke-width="0.25" stroke-miterlimit="10" x1="692.298" y1="300.607" x2="221.335" y2="300.607"/>
	
		<line display="inline" fill="none" stroke="#191C1F" stroke-width="0.25" stroke-miterlimit="10" x1="692.298" y1="356.989" x2="221.335" y2="356.989"/>
	
		<line display="inline" fill="none" stroke="#191C1F" stroke-width="0.25" stroke-miterlimit="10" x1="692.298" y1="413.372" x2="221.335" y2="413.372"/>
	
		<line display="inline" fill="none" stroke="#191C1F" stroke-width="0.25" stroke-miterlimit="10" x1="692.298" y1="469.751" x2="221.335" y2="469.751"/>
	
		<line display="inline" fill="none" stroke="#191C1F" stroke-width="0.25" stroke-miterlimit="10" x1="692.298" y1="526.133" x2="221.335" y2="526.133"/>
	
		<line display="inline" fill="none" stroke="#191C1F" stroke-width="0.25" stroke-miterlimit="10" x1="692.298" y1="582.515" x2="221.335" y2="582.515"/>
	
		<line display="inline" fill="none" stroke="#191C1F" stroke-width="0.25" stroke-miterlimit="10" x1="654.149" y1="677.042" x2="654.149" y2="206.082"/>
	
		<line display="inline" fill="none" stroke="#191C1F" stroke-width="0.25" stroke-miterlimit="10" x1="597.768" y1="677.042" x2="597.768" y2="206.082"/>
	
		<line display="inline" fill="none" stroke="#191C1F" stroke-width="0.25" stroke-miterlimit="10" x1="541.386" y1="677.042" x2="541.386" y2="206.082"/>
	
		<line display="inline" fill="none" stroke="#191C1F" stroke-width="0.25" stroke-miterlimit="10" x1="485.004" y1="677.042" x2="485.004" y2="206.082"/>
	
		<line display="inline" fill="none" stroke="#191C1F" stroke-width="0.25" stroke-miterlimit="10" x1="428.625" y1="677.042" x2="428.625" y2="206.082"/>
	
		<line display="inline" fill="none" stroke="#191C1F" stroke-width="0.25" stroke-miterlimit="10" x1="372.242" y1="677.042" x2="372.242" y2="206.082"/>
	
		<line display="inline" fill="none" stroke="#191C1F" stroke-width="0.25" stroke-miterlimit="10" x1="315.86" y1="677.042" x2="315.86" y2="206.082"/>
	
		<line display="inline" fill="none" stroke="#191C1F" stroke-width="0.25" stroke-miterlimit="10" x1="259.479" y1="677.042" x2="259.479" y2="206.082"/>
	
		<circle display="inline" fill="none" stroke="#191C1F" stroke-width="0.25" stroke-miterlimit="10" cx="456.814" cy="206.08" r="197.335"/>
	<path display="inline" fill="none" stroke="#191C1F" stroke-width="0.25" stroke-miterlimit="10" d="M654.149,677.039
		c0,108.984-88.352,197.338-197.335,197.338c-108.985,0-197.336-88.354-197.336-197.338c0-108.982,88.351-197.333,197.336-197.333
		C565.799,479.706,654.149,568.057,654.149,677.039z"/>
	
		<line display="inline" fill="none" stroke="#191C1F" stroke-width="0.25" stroke-miterlimit="10" x1="221.332" y1="638.896" x2="692.294" y2="638.896"/>
	
		<line display="inline" fill="none" stroke="#191C1F" stroke-width="0.25" stroke-miterlimit="10" x1="221.332" y1="244.226" x2="692.294" y2="244.226"/>
	
		<circle display="inline" fill="none" stroke="#191C1F" stroke-width="0.25" stroke-miterlimit="10" cx="692.295" cy="441.561" r="197.335"/>
	<path display="inline" fill="none" stroke="#191C1F" stroke-width="0.25" stroke-miterlimit="10" d="M221.335,638.896
		c-108.984,0-197.337-88.352-197.337-197.336s88.353-197.335,197.337-197.335c108.983,0,197.334,88.351,197.334,197.335
		C418.669,550.546,330.318,638.896,221.335,638.896z"/>
	
		<circle display="inline" fill="none" stroke="#191C1F" stroke-width="0.25" stroke-miterlimit="10" cx="456.814" cy="206.08" r="140.954"/>
	
		<circle display="inline" fill="none" stroke="#191C1F" stroke-width="0.25" stroke-miterlimit="10" cx="221.331" cy="441.56" r="140.953"/>
	
		<circle display="inline" fill="none" stroke="#191C1F" stroke-width="0.25" stroke-miterlimit="10" cx="692.296" cy="441.56" r="140.955"/>
	
		<circle display="inline" fill="none" stroke="#191C1F" stroke-width="0.25" stroke-miterlimit="10" cx="456.814" cy="677.042" r="140.954"/>
	
		<circle display="inline" fill="none" stroke="#191C1F" stroke-width="0.25" stroke-miterlimit="10" cx="456.814" cy="206.082" r="84.572"/>
	
		<circle display="inline" fill="none" stroke="#191C1F" stroke-width="0.25" stroke-miterlimit="10" cx="692.292" cy="441.56" r="84.571"/>
	
		<circle display="inline" fill="none" stroke="#191C1F" stroke-width="0.25" stroke-miterlimit="10" cx="221.336" cy="441.56" r="84.572"/>
	<path display="inline" fill="none" stroke="#191C1F" stroke-width="0.25" stroke-miterlimit="10" d="M541.389,677.039
		c0,46.71-37.865,84.579-84.57,84.579c-46.708,0-84.574-37.869-84.574-84.579c0-46.705,37.865-84.569,84.574-84.569
		C503.521,592.47,541.389,630.334,541.389,677.039z"/>
	
		<circle display="inline" fill="none" stroke="#191C1F" stroke-width="0.25" stroke-miterlimit="10" cx="456.814" cy="206.082" r="28.19"/>
	
		<circle display="inline" fill="none" stroke="#191C1F" stroke-width="0.25" stroke-miterlimit="10" cx="221.336" cy="441.56" r="28.19"/>
	
		<circle display="inline" fill="none" stroke="#191C1F" stroke-width="0.25" stroke-miterlimit="10" cx="692.292" cy="441.56" r="28.189"/>
	
		<circle display="inline" fill="none" stroke="#191C1F" stroke-width="0.25" stroke-miterlimit="10" cx="456.81" cy="677.042" r="28.19"/>
</g>
<path fill="#191C1F" d="M692.298,244.226h-38.146V206.08h-0.003c0-108.984-88.352-197.335-197.335-197.335
	c-108.985,0-197.336,88.351-197.336,197.335c0,0.025,0.002,0.051,0.002,0.077v38.069h-38.146
	c-108.984,0-197.337,88.351-197.337,197.336c0,108.983,88.353,197.335,197.337,197.335h38.146v38.065
	c0,0.026-0.002,0.052-0.002,0.076c0,108.984,88.351,197.338,197.336,197.338c108.983,0,197.335-88.354,197.335-197.335h0.003
	v-38.146h38.146c108.981,0,197.332-88.351,197.332-197.334C889.63,332.577,801.279,244.226,692.298,244.226z M315.86,206.082
	L315.86,206.082L315.86,206.082L315.86,206.082c0-77.848,63.106-140.955,140.954-140.955c77.847,0,140.952,63.107,140.952,140.953
	c0,0,0,0.001,0,0.002h0.001v38.144h-5.267h-51.113h-0.002v-38.144h0.002v-0.002h-0.003c0-46.705-37.863-84.569-84.57-84.569
	c-46.708,0-84.572,37.865-84.572,84.571c0,0.015,0.001,0.028,0.001,0.043v38.101h-0.001v56.382h0.002v18.24
	c0,0-0.001-0.001-0.002-0.001v150.904h-12.781h-43.599h-0.002V206.082z M428.624,206.08c0.001-15.567,12.62-28.187,28.19-28.187
	c15.567,0,28.188,12.62,28.188,28.189h0.003v38.144h-56.381v-38.101v-0.043L428.624,206.08L428.624,206.08z M221.328,582.517v-0.002
	c-77.845-0.002-140.95-63.106-140.95-140.955c0-77.843,63.105-140.95,140.95-140.952v-0.001h38.144v5.267
	c0.002,0,0.005,0.001,0.008,0.002v51.114h-38.146c-46.707,0-84.571,37.864-84.571,84.569c0,46.709,37.865,84.571,84.571,84.573
	h38.146v0.002h56.382v-0.002h18.234c0,0.001-0.001,0.001-0.001,0.002h150.901v12.777c0.003,0.001,0.006,0.001,0.009,0.002v43.601
	h-0.009v0.002H221.328z M193.146,441.56c0-15.564,12.615-28.183,28.182-28.188l0,0h38.144v56.381h-38.144v-0.002
	C205.761,469.746,193.146,457.128,193.146,441.56z M428.626,469.751v-56.379h56.38v56.379H428.626z M484.999,677.042
	c0,15.57-12.621,28.189-28.189,28.189c-15.569,0-28.188-12.617-28.189-28.187h-0.005V638.9h56.382v38.064
	C484.997,676.99,484.999,677.016,484.999,677.042z M597.771,469.751h-0.011v56.382h0.009v19.979
	c-0.003-0.003-0.006-0.006-0.009-0.008v130.604c0,0.111,0.006,0.222,0.006,0.334c0.001,77.849-63.105,140.953-140.952,140.953
	c-77.848,0-140.953-63.103-140.954-140.95h-0.007V638.9h5.273c0-0.001,0-0.003,0.001-0.004h51.115v38.146
	c0,46.707,37.865,84.576,84.574,84.576c46.703,0,84.566-37.868,84.57-84.574h-0.009V413.375h12.787
	c0.001-0.001,0.001-0.002,0.001-0.003h43.604V469.751z M692.298,582.515c-0.002,0-0.005,0-0.007,0v0.002h-38.145v-56.381h0.006
	v-0.003h38.146c46.704-0.002,84.565-37.867,84.565-84.573c0-46.704-37.861-84.567-84.565-84.569h-0.006v0.003H428.625v-56.382h0.001
	v-0.004h56.38v0.004h56.383v-0.004h19.978c-0.001,0.001-0.002,0.002-0.004,0.004h130.769c0.056,0,0.111-0.003,0.167-0.003
	c77.845,0,140.953,63.107,140.953,140.952C833.251,519.408,770.143,582.515,692.298,582.515z M654.146,469.756v-56.381h38.03
	c0.039,0,0.077-0.003,0.116-0.003c15.569,0,28.188,12.619,28.188,28.188c0,15.571-12.619,28.191-28.188,28.191
	c-0.001,0-0.001,0-0.002,0v0.005H654.146z"/>
</svg>
