<svg width="24" height="25" viewBox="0 0 24 25" fill="none" xmlns="http://www.w3.org/2000/svg">
<path d="M12 0.43988C5.37097 0.43988 0 5.81085 0 12.4399C0 19.0689 5.37097 24.4399 12 24.4399C18.629 24.4399 24 19.0689 24 12.4399C24 5.81085 18.629 0.43988 12 0.43988ZM12 22.8915C6.25645 22.8915 1.54839 18.2415 1.54839 12.4399C1.54839 6.69633 6.19839 1.98827 12 1.98827C17.7435 1.98827 22.4516 6.63827 22.4516 12.4399C22.4516 18.1834 17.8016 22.8915 12 22.8915ZM16.5871 9.08665L13.2339 12.4399L16.5871 15.7931C16.8145 16.0205 16.8145 16.3883 16.5871 16.6157L16.1758 17.027C15.9484 17.2544 15.5806 17.2544 15.3532 17.027L12 13.6738L8.64677 17.027C8.41935 17.2544 8.05161 17.2544 7.82419 17.027L7.4129 16.6157C7.18548 16.3883 7.18548 16.0205 7.4129 15.7931L10.7661 12.4399L7.4129 9.08665C7.18548 8.85923 7.18548 8.49149 7.4129 8.26407L7.82419 7.85278C8.05161 7.62536 8.41935 7.62536 8.64677 7.85278L12 11.206L15.3532 7.85278C15.5806 7.62536 15.9484 7.62536 16.1758 7.85278L16.5871 8.26407C16.8097 8.49149 16.8097 8.85923 16.5871 9.08665Z" fill="#191C1F"/>
</svg>
