<svg width="24" height="25" viewBox="0 0 24 25" fill="none" xmlns="http://www.w3.org/2000/svg">
<g clip-path="url(#clip0)">
<path d="M21.4286 24.0085H2.57143C1.15125 24.0085 0 22.8573 0 21.4371V2.57997C0 1.15979 1.15125 0.00854492 2.57143 0.00854492H21.4286C22.8488 0.00854492 24 1.15979 24 2.57997V21.4371C24 22.8573 22.8488 24.0085 21.4286 24.0085ZM10.4633 18.7554L20.3204 8.89824C20.6551 8.56353 20.6551 8.02079 20.3204 7.68608L19.1082 6.47392C18.7735 6.13921 18.2308 6.13915 17.896 6.47392L9.85714 14.5127L6.10398 10.7596C5.76927 10.4249 5.22654 10.4249 4.89177 10.7596L3.67961 11.9717C3.34489 12.3065 3.34489 12.8492 3.67961 13.1839L9.25104 18.7553C9.5858 19.0902 10.1285 19.0902 10.4633 18.7554Z" fill="#191C1F"/>
</g>
<defs>
<clipPath id="clip0">
<rect width="24" height="24" fill="white" transform="translate(0 0.00854492)"/>
</clipPath>
</defs>
</svg>
