<svg width="24" height="25" viewBox="0 0 24 25" fill="none" xmlns="http://www.w3.org/2000/svg">
<path d="M24 12.0043C24 18.6332 18.627 24.0043 12 24.0043C5.37305 24.0043 0 18.6332 0 12.0043C0 5.37926 5.37305 0.00427246 12 0.00427246C18.627 0.00427246 24 5.37926 24 12.0043ZM12.322 3.97201C9.68506 3.97201 8.00323 5.08284 6.68255 7.05708C6.51145 7.31285 6.56869 7.6578 6.81392 7.84376L8.4929 9.11682C8.74476 9.30781 9.1036 9.26237 9.29927 9.01414C10.1637 7.91779 10.7564 7.28203 12.072 7.28203C13.0605 7.28203 14.2832 7.91822 14.2832 8.87677C14.2832 9.60142 13.685 9.97356 12.709 10.5208C11.5707 11.1589 10.0645 11.953 10.0645 13.9398V14.1333C10.0645 14.454 10.3245 14.7139 10.6452 14.7139H13.3548C13.6755 14.7139 13.9355 14.454 13.9355 14.1333V14.0688C13.9355 12.6916 17.9606 12.6343 17.9606 8.9075C17.9606 6.10095 15.0494 3.97201 12.322 3.97201ZM12 15.972C10.7727 15.972 9.77419 16.9705 9.77419 18.1978C9.77419 19.4251 10.7727 20.4236 12 20.4236C13.2273 20.4236 14.2258 19.4251 14.2258 18.1978C14.2258 16.9705 13.2273 15.972 12 15.972Z" fill="#191C1F"/>
</svg>
