<svg width="24" height="25" viewBox="0 0 24 25" fill="none" xmlns="http://www.w3.org/2000/svg">
<g clip-path="url(#clip0)">
<path d="M23.1136 16.6738L18.0328 14.4941C17.7408 14.3696 17.4164 14.343 17.108 14.4182C16.7996 14.4934 16.5238 14.6664 16.3219 14.9113L14.2547 17.4379C11.0032 15.8387 8.37262 13.2081 6.77344 9.95663L9.3 7.88944C9.54491 7.68761 9.7179 7.41192 9.7931 7.1036C9.8683 6.79528 9.84167 6.4709 9.71719 6.17897L7.5375 1.09303C7.40121 0.777652 7.15865 0.520038 6.85204 0.365019C6.54542 0.209999 6.19416 0.167387 5.85938 0.244597L1.13438 1.33678C0.811396 1.40984 0.522979 1.59084 0.316742 1.84991C0.110504 2.10899 -0.00122379 2.43065 2.35617e-06 2.76178C2.35617e-06 14.6348 9.62344 24.2066 21.4448 24.2066C21.7771 24.2073 22.0997 24.0948 22.3596 23.8878C22.6195 23.6808 22.8013 23.3916 22.875 23.0676L23.962 18.3473C24.0392 18.0131 23.9965 17.6625 23.8414 17.3566C23.6863 17.0507 23.4287 16.8091 23.1136 16.6738ZM21.4167 22.7066C10.425 22.6926 1.51406 13.7863 1.50469 2.7946L6.17344 1.71647L8.32969 6.75038L4.91719 9.53944C7.18594 14.3769 9.81563 17.016 14.6719 19.2941L17.4609 15.8816L22.4948 18.0379L21.4167 22.7066Z" fill="#191C1F"/>
</g>
<defs>
<clipPath id="clip0">
<rect width="24" height="24" fill="white" transform="translate(0 0.206543)"/>
</clipPath>
</defs>
</svg>
