<svg width="24" height="25" viewBox="0 0 24 25" fill="none" xmlns="http://www.w3.org/2000/svg">
<path d="M14.546 12.4403L22.2382 4.74802L23.8245 3.16172C24.0585 2.92771 24.0585 2.54745 23.8245 2.31344L22.1272 0.616136C21.8932 0.382129 21.5129 0.382129 21.2789 0.616136L12.0004 9.89468L2.72184 0.615386C2.48783 0.381379 2.10757 0.381379 1.87356 0.615386L0.175505 2.31269C-0.0585018 2.5467 -0.0585018 2.92696 0.175505 3.16097L9.45479 12.4403L0.175505 21.7188C-0.0585018 21.9528 -0.0585018 22.3331 0.175505 22.5671L1.87281 24.2644C2.10682 24.4984 2.48708 24.4984 2.72108 24.2644L12.0004 14.9858L19.6926 22.6781L21.2789 24.2644C21.5129 24.4984 21.8932 24.4984 22.1272 24.2644L23.8245 22.5671C24.0585 22.3331 24.0585 21.9528 23.8245 21.7188L14.546 12.4403Z" fill="#191C1F"/>
</svg>
