<svg width="24" height="24" viewBox="0 0 24 24" fill="none" xmlns="http://www.w3.org/2000/svg">
<path d="M21.5331 6.85726C21.5483 7.07042 21.5483 7.28363 21.5483 7.49679C21.5483 13.9985 16.5991 21.49 7.55333 21.49C4.7665 21.49 2.17768 20.683 0 19.2822C0.395955 19.3278 0.776628 19.3431 1.18782 19.3431C3.48728 19.3431 5.60407 18.5665 7.29444 17.2418C5.13199 17.1961 3.31979 15.7801 2.69542 13.831C3.00001 13.8767 3.30456 13.9072 3.62439 13.9072C4.066 13.9072 4.50766 13.8462 4.9188 13.7397C2.66499 13.2829 0.974582 11.3034 0.974582 8.91285V8.85197C1.62938 9.21741 2.39087 9.4458 3.19792 9.47622C1.87304 8.59306 1.00505 7.08565 1.00505 5.38026C1.00505 4.46669 1.24866 3.62922 1.67508 2.89834C4.09642 5.88275 7.73605 7.83172 11.8172 8.04492C11.7411 7.67948 11.6954 7.29886 11.6954 6.91819C11.6954 4.20783 13.8883 2 16.6142 2C18.0304 2 19.3096 2.59383 20.2081 3.55311C21.3198 3.33995 22.3858 2.92881 23.33 2.36544C22.9644 3.50746 22.1878 4.46673 21.1675 5.07575C22.1574 4.96922 23.1168 4.69508 24 4.31445C23.3301 5.28891 22.4924 6.15679 21.5331 6.85726Z" fill="#191C1F"/>
</svg>
