<svg width="24" height="25" viewBox="0 0 24 25" fill="none" xmlns="http://www.w3.org/2000/svg">
<path d="M12 0.00640869C5.37305 0.00640869 0 5.38139 0 12.0064C0 18.6353 5.37305 24.0064 12 24.0064C18.627 24.0064 24 18.6353 24 12.0064C24 5.38139 18.627 0.00640869 12 0.00640869ZM12 5.32899C13.1224 5.32899 14.0323 6.23886 14.0323 7.36125C14.0323 8.48363 13.1224 9.39351 12 9.39351C10.8776 9.39351 9.96774 8.48363 9.96774 7.36125C9.96774 6.23886 10.8776 5.32899 12 5.32899ZM14.7097 17.6193C14.7097 17.94 14.4497 18.2 14.129 18.2H9.87097C9.55031 18.2 9.29032 17.94 9.29032 17.6193V16.458C9.29032 16.1374 9.55031 15.8774 9.87097 15.8774H10.4516V12.7806H9.87097C9.55031 12.7806 9.29032 12.5206 9.29032 12.2V11.0387C9.29032 10.718 9.55031 10.458 9.87097 10.458H12.9677C13.2884 10.458 13.5484 10.718 13.5484 11.0387V15.8774H14.129C14.4497 15.8774 14.7097 16.1374 14.7097 16.458V17.6193Z" fill="#191C1F"/>
</svg>
