<svg width="24" height="25" viewBox="0 0 24 25" fill="none" xmlns="http://www.w3.org/2000/svg">
<g clip-path="url(#clip0)">
<path d="M6.3871 13.3108C6.06774 13.3108 5.80645 13.0496 5.80645 12.7302V12.1496C5.80645 11.8302 6.06774 11.5689 6.3871 11.5689H17.6129C17.9323 11.5689 18.1935 11.8302 18.1935 12.1496V12.7302C18.1935 13.0496 17.9323 13.3108 17.6129 13.3108H6.3871ZM24 12.4399C24 19.0689 18.629 24.4399 12 24.4399C5.37097 24.4399 0 19.0689 0 12.4399C0 5.81085 5.37097 0.43988 12 0.43988C18.629 0.43988 24 5.81085 24 12.4399ZM22.4516 12.4399C22.4516 6.63827 17.7435 1.98827 12 1.98827C6.19839 1.98827 1.54839 6.69633 1.54839 12.4399C1.54839 18.2415 6.25645 22.8915 12 22.8915C17.8016 22.8915 22.4516 18.1834 22.4516 12.4399Z" fill="#191C1F"/>
</g>
<defs>
<clipPath id="clip0">
<rect width="24" height="24" fill="white" transform="translate(0 0.43988)"/>
</clipPath>
</defs>
</svg>
