<svg width="24" height="24" viewBox="0 0 24 24" fill="none" xmlns="http://www.w3.org/2000/svg">
<path d="M12.8069 0C7.87459 0 3 3.28907 3 8.61217C3 11.9974 4.90369 13.9208 6.05744 13.9208C6.53336 13.9208 6.80737 12.5937 6.80737 12.2186C6.80737 11.7714 5.66805 10.8193 5.66805 8.95839C5.66805 5.09229 8.61011 2.3514 12.4175 2.3514C15.6912 2.3514 18.1141 4.21232 18.1141 7.63122C18.1141 10.1846 17.0902 14.9739 13.7731 14.9739C12.5761 14.9739 11.5522 14.1084 11.5522 12.8678C11.5522 11.0501 12.8213 9.29018 12.8213 7.41483C12.8213 4.23155 8.30725 4.80858 8.30725 8.65545C8.30725 9.46329 8.4082 10.3577 8.76875 11.0934C8.10534 13.9497 6.74969 18.2053 6.74969 21.1481C6.74969 22.057 6.87948 22.9514 6.96602 23.8602C7.12946 24.0429 7.04774 24.0237 7.29772 23.9323C9.72059 20.6144 9.63406 19.9652 10.7301 15.6231C11.3214 16.7483 12.8501 17.3542 14.0616 17.3542C19.1669 17.3542 21.46 12.3773 21.46 7.89088C21.46 3.11596 17.3353 0 12.8069 0Z" fill="#191C1F"/>
</svg>
