<svg width="24" height="25" viewBox="0 0 24 25" fill="none" xmlns="http://www.w3.org/2000/svg">
<g clip-path="url(#clip0)">
<path d="M12 20.1332C11.2303 20.1332 10.4606 19.896 9.80344 19.4212L0 12.3393V22.3302C0 23.5729 1.00734 24.5802 2.25 24.5802H21.75C22.9927 24.5802 24 23.5729 24 22.3302V12.3393L14.1966 19.4212C13.5394 19.8955 12.7697 20.1332 12 20.1332ZM23.138 8.2185C22.7231 7.89319 22.3298 7.5871 21.75 7.14929V5.08022C21.75 3.83757 20.7427 2.83022 19.5 2.83022H15.8648C15.7223 2.7271 15.5897 2.63054 15.4411 2.52272C14.6531 1.94804 13.0875 0.563817 12 0.580223C10.9125 0.563817 9.34734 1.94757 8.55891 2.52272C8.41031 2.63054 8.27766 2.7271 8.13516 2.83022H4.5C3.25734 2.83022 2.25 3.83757 2.25 5.08022V7.14929C1.67016 7.58663 1.27688 7.89319 0.862031 8.2185C0.593512 8.42894 0.376366 8.69769 0.227022 9.00442C0.0776778 9.31114 4.62097e-05 9.64782 0 9.98897L0 10.4882L4.5 13.739V5.08022H19.5V13.739L24 10.4882V9.98897C24 9.29804 23.6822 8.64507 23.138 8.2185ZM12.375 6.95522H11.625C11.4178 6.95522 11.25 7.12303 11.25 7.33022V8.08585C10.1428 8.11538 9.24984 9.04913 9.24984 10.1985C9.24984 11.1346 9.85828 11.9708 10.7302 12.2324L12.8395 12.8652C13.0814 12.9379 13.2506 13.183 13.2506 13.4619C13.2506 13.8027 13.0022 14.0802 12.6975 14.0802H11.3798C11.1661 14.0802 10.9598 14.0198 10.7789 13.9058C10.627 13.8107 10.4339 13.8163 10.3041 13.9401L9.75328 14.4655C9.58781 14.6235 9.59719 14.8973 9.78 15.0346C10.2066 15.3548 10.7212 15.5394 11.2505 15.5666V16.3302C11.2505 16.5374 11.4183 16.7052 11.6255 16.7052H12.3755C12.5827 16.7052 12.7505 16.5374 12.7505 16.3302V15.5746C13.8577 15.5451 14.7506 14.6118 14.7506 13.4619C14.7506 12.5258 14.1422 11.6896 13.2703 11.428L11.1609 10.7952C10.9191 10.7226 10.7498 10.4774 10.7498 10.1985C10.7498 9.85772 10.9983 9.58022 11.303 9.58022H12.6206C12.8344 9.58022 13.0406 9.64069 13.2216 9.7546C13.3734 9.84975 13.5666 9.84413 13.6964 9.72038L14.2472 9.19491C14.4127 9.03694 14.4033 8.76319 14.2205 8.62585C13.7939 8.30569 13.2792 8.121 12.75 8.09382V7.33022C12.75 7.12303 12.5822 6.95522 12.375 6.95522Z" fill="#191C1F"/>
</g>
<defs>
<clipPath id="clip0">
<rect width="24" height="24" fill="white" transform="translate(0 0.580566)"/>
</clipPath>
</defs>
</svg>
