<svg width="24" height="25" viewBox="0 0 24 25" fill="none" xmlns="http://www.w3.org/2000/svg">
<path d="M21.6711 3.82077C19.1164 1.73068 15.296 2.07753 12.9241 4.42887L12.0007 5.34779L11.0772 4.43338C9.16472 2.53248 5.30688 1.38834 2.33028 3.82077C-0.613493 6.23517 -0.768182 10.5685 1.86622 13.1811L10.9366 22.1811C11.2272 22.4693 11.6116 22.618 11.996 22.618C12.3804 22.618 12.7648 22.4738 13.0554 22.1811L22.1258 13.1811C24.7696 10.5685 24.6149 6.23517 21.6711 3.82077ZM21.057 12.1811L12.0194 21.1811L2.94435 12.1811C1.14434 10.3973 0.769332 6.99643 3.30529 4.91986C5.87407 2.81176 8.89285 4.33878 9.99911 5.43788L12.0007 7.42436L14.0023 5.43788C15.0898 4.3568 18.1367 2.82527 20.6961 4.91986C23.2274 6.99192 22.857 10.3928 21.057 12.1811Z" fill="#191C1F"/>
</svg>
