<svg width="24" height="25" viewBox="0 0 24 25" fill="none" xmlns="http://www.w3.org/2000/svg">
<g clip-path="url(#clip0)">
<path d="M12 0.43988C5.37097 0.43988 0 5.81085 0 12.4399C0 19.0689 5.37097 24.4399 12 24.4399C18.629 24.4399 24 19.0689 24 12.4399C24 5.81085 18.629 0.43988 12 0.43988ZM18.9677 13.7947C18.9677 14.1141 18.7065 14.3754 18.3871 14.3754H13.9355V18.827C13.9355 19.1463 13.6742 19.4076 13.3548 19.4076H10.6452C10.3258 19.4076 10.0645 19.1463 10.0645 18.827V14.3754H5.6129C5.29355 14.3754 5.03226 14.1141 5.03226 13.7947V11.085C5.03226 10.7657 5.29355 10.5044 5.6129 10.5044H10.0645V6.05278C10.0645 5.73343 10.3258 5.47214 10.6452 5.47214H13.3548C13.6742 5.47214 13.9355 5.73343 13.9355 6.05278V10.5044H18.3871C18.7065 10.5044 18.9677 10.7657 18.9677 11.085V13.7947Z" fill="#191C1F"/>
</g>
<defs>
<clipPath id="clip0">
<rect width="24" height="24" fill="white" transform="translate(0 0.43988)"/>
</clipPath>
</defs>
</svg>
