<svg width="24" height="24" viewBox="0 0 24 24" fill="none" xmlns="http://www.w3.org/2000/svg">
<path d="M23.5 10.3842H13.5V0.543489C13.5 0.271639 13.2762 0.0514526 13 0.0514526H11C10.7238 0.0514526 10.5 0.271639 10.5 0.543489V10.3842H0.5C0.22375 10.3842 0 10.6044 0 10.8763V12.8444C0 13.1163 0.22375 13.3364 0.5 13.3364H10.5V23.1772C10.5 23.449 10.7238 23.6692 11 23.6692H13C13.2762 23.6692 13.5 23.449 13.5 23.1772V13.3364H23.5C23.7763 13.3364 24 13.1163 24 12.8444V10.8763C24 10.6044 23.7763 10.3842 23.5 10.3842Z" fill="#191C1F"/>
</svg>
