<svg width="31" height="25" viewBox="0 0 31 25" fill="none" xmlns="http://www.w3.org/2000/svg">
<rect x="0.5" y="0.607422" width="29.86" height="23" rx="2.5" fill="#006FCF" stroke="#D8D8D8"/>
<path d="M13.1745 14.489L14.0343 13.5655V15.4443L13.1745 14.489ZM10.4278 13.7964V14.2183H11.6618V14.696H10.4278V15.1737H11.8131L12.4579 14.481L11.837 13.7964H10.4278ZM25.7214 14.1546C25.9124 14.3536 26 14.5925 26 14.9269C26 15.6354 25.5223 16.0574 24.7262 16.0574H23.6355C23.4763 16.0574 23.333 15.9618 23.2773 15.8265C23.0623 15.9618 22.7757 16.0494 22.4334 16.0494H21.3347C21.271 16.0494 21.2153 16.0335 21.1675 16.0096C21.1198 16.0335 21.0561 16.0494 21.0003 16.0494H19.1215C19.0578 16.0494 19.0021 16.0335 18.9463 16.0096C18.8986 16.0335 18.8428 16.0494 18.7792 16.0494H18.2139C17.999 16.0494 17.8238 15.8742 17.8238 15.6593V15.317C17.8238 15.2851 17.8238 15.2373 17.8238 15.1896C17.7999 15.1896 17.7601 15.1816 17.7124 15.1816H17.4974V15.6513C17.4974 15.8742 17.3223 16.0494 17.1073 16.0494H16.5421C16.3271 16.0494 16.152 15.8742 16.152 15.6593V15.0622C15.9529 15.1816 15.6743 15.2612 15.2921 15.2612H14.9817V15.6593C14.9817 15.8742 14.8065 16.0494 14.5916 16.0494H13.5009C13.3894 16.0494 13.2859 16.0016 13.2063 15.922L12.8082 15.4603L12.3783 15.922C12.3067 16.0016 12.2032 16.0494 12.0917 16.0494H9.86258C9.65559 16.0494 9.48044 15.8742 9.48044 15.6593V13.3187C9.48044 13.1037 9.65559 12.9286 9.87054 12.9286H12.1315C12.243 12.9286 12.3465 12.9764 12.4181 13.056L12.8242 13.5098L13.2541 13.048C13.3257 12.9684 13.4292 12.9206 13.5407 12.9206H15.3399C15.73 12.9206 16.0087 13.0082 16.2077 13.1356C16.2714 13.0082 16.3988 12.9206 16.55 12.9206H17.8477C18.1423 12.9206 18.4368 12.9286 18.7075 13.0798C18.7394 13.0958 18.7553 13.1197 18.7792 13.1356C18.8428 13.0082 18.9702 12.9206 19.1215 12.9206H21.0003C21.1436 12.9206 21.271 13.0082 21.3347 13.1276C21.5178 13.0002 21.7646 12.9206 22.0751 12.9206H23.2056C23.3728 12.9206 23.5161 13.0321 23.5639 13.1754C23.7549 13.0162 24.0177 12.9206 24.3679 12.9206H25.4984C25.7134 12.9206 25.8885 13.0958 25.8885 13.3107V13.8123C25.8885 13.9476 25.8169 14.067 25.7134 14.1387C25.7134 14.1467 25.7134 14.1467 25.7214 14.1546ZM16.2793 14.083C16.2793 13.4301 15.7778 13.3107 15.3319 13.3107H13.5327L12.8162 14.083L12.1236 13.3107H9.86258V15.6593H12.0917L12.8162 14.8791L13.5088 15.6593H14.5995V14.8711H15.3001C15.7937 14.8711 16.2793 14.7437 16.2793 14.083ZM18.4129 14.5686C18.5642 14.5129 18.811 14.3218 18.811 13.9397C18.811 13.669 18.6995 13.5257 18.5244 13.4222C18.3413 13.3266 18.1343 13.3107 17.8477 13.3107H16.5421V15.6593H17.1073V14.8074H17.7124C17.9193 14.8074 18.0467 14.8234 18.1263 14.9109C18.2298 15.0224 18.2219 15.2294 18.2219 15.3727V15.6673H18.7871V15.1975C18.7871 14.9905 18.7712 14.887 18.6916 14.7676C18.6359 14.696 18.5324 14.6164 18.4129 14.5686ZM21.0003 13.3187H19.1215V15.6673H21.0003V15.1737H19.6788V14.7039H20.9605V14.2263H19.6788V13.7964H21.0003V13.3187ZM23.3091 14.9189C23.3091 14.6801 23.2534 14.5368 23.1419 14.4253C23.0145 14.2979 22.8075 14.2422 22.4971 14.2342L22.1945 14.2263C22.099 14.2263 22.0353 14.2183 21.9796 14.2024C21.9079 14.1705 21.8522 14.1148 21.8522 14.0272C21.8522 13.9556 21.8761 13.8919 21.9398 13.86C21.9955 13.8202 22.0592 13.8202 22.1627 13.8202H23.1976V13.3107H22.0751C21.486 13.3107 21.271 13.669 21.271 14.0113C21.271 14.7517 21.9318 14.7199 22.4573 14.7358C22.5528 14.7358 22.6165 14.7517 22.6563 14.7836C22.6961 14.8154 22.7279 14.8711 22.7279 14.9428C22.7279 15.0065 22.6961 15.0622 22.6642 15.094C22.6165 15.1338 22.5448 15.1498 22.4334 15.1498H21.3427V15.6513H22.4334C22.9986 15.6593 23.3091 15.4284 23.3091 14.9189ZM25.6099 14.9189C25.6099 14.6801 25.5542 14.5368 25.4427 14.4253C25.3153 14.2979 25.1083 14.2422 24.7979 14.2342L24.4953 14.2263C24.3998 14.2263 24.3361 14.2183 24.2804 14.2024C24.2087 14.1705 24.161 14.1148 24.161 14.0272C24.161 13.9556 24.1848 13.8919 24.2406 13.86C24.2963 13.8202 24.3679 13.8202 24.4635 13.8202H25.4905V13.3107H24.3679C23.7788 13.3107 23.5639 13.669 23.5639 14.0113C23.5639 14.7517 24.2246 14.7199 24.7501 14.7358C24.8456 14.7358 24.9093 14.7517 24.9491 14.7836C24.9889 14.8154 25.0208 14.8711 25.0208 14.9428C25.0208 15.0065 24.9889 15.0622 24.9571 15.094C24.9093 15.1338 24.8377 15.1498 24.7262 15.1498H23.6355V15.6513H24.7262C25.2915 15.6593 25.6099 15.4284 25.6099 14.9189ZM15.3319 13.7964H14.5995V14.3935H15.324C15.5389 14.3935 15.6743 14.29 15.6743 14.083C15.6743 13.8839 15.5389 13.7964 15.3319 13.7964ZM15.6663 10.2377C15.738 10.1979 15.7857 10.1183 15.7857 10.0148C15.7857 9.91128 15.738 9.83963 15.6663 9.80778C15.6026 9.76797 15.4991 9.76797 15.3956 9.76797H14.703V10.2855H15.3877C15.4912 10.2855 15.5867 10.2775 15.6663 10.2377ZM18.0706 13.8441C17.999 13.8043 17.9034 13.8043 17.7999 13.8043H17.1073V14.3298H17.792C17.9034 14.3298 17.991 14.3218 18.0706 14.282C18.1423 14.2342 18.19 14.1546 18.19 14.0591C18.19 13.9476 18.1423 13.876 18.0706 13.8441ZM20.1485 9.67244L19.7584 10.6119H20.5386L20.1485 9.67244ZM6.41536 10.6119H7.17964L6.7975 9.67244L6.41536 10.6119ZM9.56801 12.0051C9.41675 12.0051 9.27345 11.9175 9.20976 11.7742L9.13811 11.607V11.615C9.13811 11.8299 8.96296 12.0051 8.748 12.0051H7.60159C7.44236 12.0051 7.29906 11.9095 7.24333 11.7662L7.12391 11.4876H6.47109L6.35167 11.7662C6.28798 11.9095 6.15264 12.0051 5.99342 12.0051H5.38836C5.26098 12.0051 5.1336 11.9414 5.06195 11.8299C4.9903 11.7185 4.98234 11.5831 5.03011 11.4637L6.03322 9.11515C6.09691 8.97981 6.24022 8.88428 6.39148 8.88428H7.22741C7.38663 8.88428 7.52197 8.97981 7.58566 9.11515L7.79266 9.60875V9.27438C7.79266 9.05942 7.9678 8.88428 8.18276 8.88428H9.0983C9.25752 8.88428 9.39286 8.97185 9.45655 9.10719L9.82277 9.90332L10.1571 9.12311C10.2208 8.97981 10.3562 8.88428 10.5154 8.88428H11.4548C11.5344 8.88428 11.6061 8.91612 11.6618 8.95593C11.7255 8.91612 11.7892 8.88428 11.8688 8.88428H13.7477C13.8193 8.88428 13.883 8.90816 13.9387 8.94001C14.0024 8.90816 14.0661 8.88428 14.1378 8.88428H15.4275C15.7619 8.88428 16.0405 8.9002 16.3032 9.05146C16.3351 9.06739 16.351 9.09127 16.3749 9.10719C16.4465 8.97981 16.5739 8.88428 16.7252 8.88428H17.2984C17.4894 8.88428 17.6487 9.02758 17.6725 9.21069C17.9273 8.99573 18.2696 8.88428 18.7314 8.88428H19.2728C19.3603 8.88428 19.4399 8.91612 19.5036 8.96389C19.5753 8.91612 19.6549 8.88428 19.7425 8.88428H20.5864C20.7376 8.88428 20.8809 8.97981 20.9446 9.11515L21.1516 9.60079V9.27438C21.1436 9.05942 21.3188 8.88428 21.5337 8.88428H22.3936C22.5289 8.88428 22.6563 8.95593 22.7279 9.07535L22.9907 9.52118V9.27438C22.9907 9.05942 23.1658 8.88428 23.3808 8.88428H23.954C24.1689 8.88428 24.3441 9.05942 24.3441 9.27438V11.6229C24.3441 11.8379 24.1689 12.013 23.954 12.013H23.1578C23.0225 12.013 22.8951 11.9414 22.8235 11.822L22.4811 11.2488V11.6229C22.4811 11.8379 22.306 12.013 22.091 12.013H20.9446C20.7854 12.013 20.6501 11.9175 20.5864 11.7742L20.4669 11.4876H19.8221L19.7106 11.7662C19.6469 11.9095 19.5116 12.0051 19.3524 12.0051H18.6916C18.4448 12.0051 17.991 11.9573 17.6725 11.6946C17.6327 11.8697 17.4894 12.0051 17.2984 12.0051H16.7252C16.6615 12.0051 16.6057 11.9892 16.55 11.9573C16.5022 11.9892 16.4386 12.0051 16.3749 12.0051H15.8096C15.5947 12.0051 15.4195 11.8299 15.4195 11.6229V11.3284V11.2726C15.4195 11.2408 15.4195 11.193 15.4195 11.1532C15.3956 11.1532 15.3558 11.1532 15.3081 11.1532H15.0931V11.6229C15.0931 11.8379 14.918 12.013 14.703 12.013H14.1378C14.0661 12.013 14.0024 11.9892 13.9387 11.9494C13.883 11.9812 13.8193 12.013 13.7477 12.013H11.8688C11.7892 12.013 11.7175 11.9812 11.6618 11.9414C11.5981 11.9812 11.5344 12.0051 11.4548 12.0051H10.8737C10.6587 12.0051 10.4836 11.8299 10.4836 11.615L10.4119 11.7742C10.3482 11.9175 10.2129 12.0051 10.0536 12.0051H9.56801ZM17.5691 10.4686C17.5691 10.8905 17.6725 11.1692 17.8716 11.3602C18.0706 11.5593 18.4129 11.6229 18.6836 11.6229H19.3444L19.5594 11.0975H20.7297L20.9446 11.6229H22.091V9.85555L23.1578 11.615H23.954V9.27438H23.3808V10.9144L22.3936 9.27438H21.5337V11.4956L20.5864 9.27438H19.7425L18.9463 11.1214H18.6916C18.5483 11.1214 18.3891 11.0895 18.3015 11.002C18.198 10.8825 18.1502 10.6994 18.1502 10.4526C18.1502 10.2058 18.2139 10.0227 18.3094 9.91924C18.4209 9.80778 18.5403 9.7839 18.7394 9.7839H19.2728V9.27438H18.7314C18.3413 9.27438 18.0626 9.36195 17.8795 9.54506C17.6327 9.79982 17.5691 10.1183 17.5691 10.4686ZM18.7394 10.1581C18.604 10.1581 18.5961 10.174 18.5801 10.1899C18.5722 10.1979 18.5403 10.2855 18.5403 10.4447C18.5403 10.6039 18.5642 10.6835 18.5801 10.7154C18.604 10.7233 18.6359 10.7313 18.6916 10.7313L18.9384 10.166L18.7394 10.1581ZM16.7252 11.6229H17.2984V9.27438H16.7252V11.6229ZM14.1378 11.6229H14.703V10.7631H15.3081C15.5151 10.7631 15.6345 10.7791 15.722 10.8666C15.8255 10.9781 15.8096 11.1851 15.8096 11.3204L15.8176 11.615H16.3828V11.1612C16.3828 10.9542 16.3669 10.8507 16.2873 10.7313C16.2395 10.6596 16.136 10.58 16.0087 10.5323C16.144 10.4765 16.3988 10.2775 16.3988 9.90332C16.3988 9.64059 16.2953 9.48933 16.1121 9.38584C15.929 9.28234 15.722 9.27438 15.4275 9.27438H14.1378V11.6229ZM11.8688 11.6229H13.7477V11.1373H12.4341V10.6676H13.7158V10.182H12.4341V9.76001H13.7477V9.27438H11.8688V11.6229ZM9.56801 11.6229H10.0616L10.8816 9.7839V11.6229H11.4628V9.27438H10.5154L9.83869 10.8666L9.0983 9.27438H8.18276V11.4956L7.22741 9.27438H6.39148L5.38836 11.6229H6.00138L6.21633 11.0975H7.38663L7.60159 11.6229H8.748V9.77594L9.56801 11.6229Z" fill="white"/>
</svg>
