<svg width="194" height="24" viewBox="0 0 194 24" fill="none" xmlns="http://www.w3.org/2000/svg">
<path fill-rule="evenodd" clip-rule="evenodd" d="M109.16 19.6417V5.12119H109.852V19.6417H109.16Z" fill="#191C1F"/>
<path d="M134.608 19.9355C134.557 13.893 134.616 6.22173 136.119 0.528332C136.203 0.274656 136.098 0 135.802 0C135.591 0 135.486 0.104903 135.421 0.358579C134.107 6.01383 133.958 11.7969 133.943 17.5685C133.468 15.7679 132.964 13.6107 132.312 10.6353C131.698 7.84487 131.36 5.66669 130.853 1.24549C130.811 0.864023 130.599 0.654216 130.261 0.654216C129.903 0.654216 129.691 0.907892 129.691 1.33132C129.691 2.18008 129.777 3.47707 129.911 4.77025C129.836 9.5958 129.455 16.2467 128.295 20.5325C128.211 20.8071 128.104 20.9769 128.02 20.9769C127.851 20.9769 127.704 20.5954 127.45 19.4548C127.408 19.306 127.322 19.2011 127.133 19.2011C126.943 19.2011 126.817 19.3709 126.859 19.6456C127.473 22.6267 127.599 23.3668 128.148 23.3668C128.53 23.3668 128.762 23.0711 128.93 22.394C129.926 18.4439 130.244 13.1129 130.427 8.50671C131.187 13.1377 132.337 17.8889 133.435 21.3355C133.584 21.8008 133.859 21.9916 134.217 21.9916C134.788 21.9916 135.062 21.5681 134.873 20.7861C134.782 20.5058 134.694 20.2235 134.608 19.9355Z" fill="#191C1F"/>
<path d="M141.49 7.78193C141.871 7.78193 142.463 7.10482 142.463 6.59747C142.463 6.1111 142.104 5.68767 141.723 5.68767C141.173 5.68767 141.046 6.55551 141.046 6.95605C141.046 7.46531 141.173 7.78193 141.49 7.78193Z" fill="#191C1F"/>
<path d="M161.198 15.6688C161.198 15.478 161.094 15.3312 160.903 15.3312C160.733 15.3312 160.628 15.4361 160.586 15.6478C160.437 16.6415 160.353 16.9162 160.205 16.9162C159.909 16.9162 159.823 15.5848 159.823 14.2726C159.823 13.3208 159.781 11.671 159.781 9.47183C159.781 9.28109 159.697 9.13423 159.528 9.13423C159.358 9.13423 159.274 9.23913 159.19 9.42986C158.269 11.486 157.451 13.9235 156.88 16.5252C156.836 15.1576 156.779 13.2751 156.779 11.9666C156.779 10.6773 156.758 9.7255 156.716 9.17619C156.695 8.83859 156.546 8.66884 156.272 8.66884C155.976 8.66884 155.806 8.88055 155.806 9.19717C155.806 9.83231 155.806 10.4026 155.764 10.91C155.616 12.7067 155.383 14.0609 154.876 15.8156C154.727 16.323 154.559 16.5976 154.389 16.5976C154.115 16.5976 154.031 15.2873 154.031 13.7843C154.031 12.1554 154.115 10.6963 154.2 9.61869C154.221 9.36502 154.073 9.26011 153.884 9.26011C153.693 9.26011 153.567 9.3879 153.525 9.57673C153.521 9.5939 153.518 9.60915 153.514 9.62632C153.346 9.49281 153.149 9.40698 152.974 9.40698C151.643 9.40698 150.691 11.5222 150.458 14.9897C150.416 15.581 150.353 17.4636 149.972 17.4636C149.548 17.4636 149.381 14.799 149.381 13.0443C149.381 11.9228 149.444 11.3315 149.508 9.91433C149.529 9.44894 149.55 8.79282 149.276 8.79282C149.085 8.79282 148.831 9.19526 148.515 9.99825C147.918 11.5165 147.569 12.8287 147.201 15.0679C147.183 14.5568 147.17 13.9865 147.162 13.4028C147.141 11.9437 147.162 10.971 147.035 9.51188C147.014 9.27919 146.951 9.13041 146.781 9.13041C146.653 9.13041 146.548 9.17237 146.399 9.48899C145.842 10.6658 145.387 11.8426 144.984 13.2445C144.988 12.7143 145.005 12.0563 145.005 11.9628C145.005 10.5876 144.963 9.74267 144.877 8.91679C144.835 8.57919 144.645 8.38846 144.391 8.38846C144.095 8.38846 143.905 8.57919 143.821 8.95875C143.462 10.5666 142.129 17.3758 141.326 17.3758C141.198 17.3758 141.135 17.1221 141.135 16.6568C141.135 15.5352 141.263 13.7176 141.896 9.63586C141.938 9.3612 141.812 9.25439 141.622 9.25439H141.263C140.925 9.25439 140.649 9.48709 140.565 9.86855C140.395 10.6296 140.269 11.9418 140.016 13.9922C139.783 15.9377 138.598 18.3905 137.9 18.3905C137.563 18.3905 137.372 18.1578 137.223 17.5666C137.191 17.4712 137.162 17.2328 137.139 16.9028C137.244 16.7178 137.345 16.5347 137.435 16.3611C138.492 14.3527 139.106 12.3214 139.106 10.8413C139.106 9.76365 138.81 9.25439 138.196 9.25439C136.779 9.25439 135.68 11.9819 135.68 15.4723C135.68 16.2658 135.797 17.0058 135.999 17.62C135.812 17.8889 135.608 18.1731 135.385 18.4744C135.322 18.5584 135.28 18.6652 135.28 18.7701C135.28 18.9608 135.428 19.0657 135.575 19.0657C135.68 19.0657 135.766 19.0447 135.871 18.896C135.997 18.7243 136.138 18.5202 136.283 18.299C136.622 18.9437 137.078 19.3404 137.584 19.3404C138.385 19.3404 139.392 18.0091 139.974 16.3287C139.976 16.7903 139.997 17.3129 140.037 17.9652C140.12 18.9379 140.332 19.3404 140.777 19.3404C141.072 19.3404 141.496 18.896 141.812 18.2398C142.585 16.6739 143.165 14.7189 143.968 10.8585C143.968 10.9214 143.968 10.9843 143.968 11.0492C143.968 13.7137 143.672 16.5271 143.186 19.0009C143.144 19.2126 143.207 19.3385 143.397 19.3385H143.672C144.074 19.3385 144.349 19.1268 144.412 18.7892C144.582 17.9213 144.687 17.2461 144.856 16.1666C145.078 14.7685 145.438 13.2884 145.856 12.0124C145.841 12.514 145.829 13.0576 145.829 13.6069C145.829 15.3407 145.999 17.0745 146.316 18.7663C146.399 19.1897 146.548 19.3366 146.802 19.3366C147.035 19.3366 147.204 19.1668 147.246 18.7453C147.389 16.9753 147.729 14.8124 148.175 12.7544C148.213 14.6979 148.206 15.5658 148.41 16.8208C148.684 18.4497 149.108 19.3366 149.594 19.3366C149.97 19.3366 150.241 18.8368 150.529 17.4865C150.75 18.5431 151.212 19.3366 151.687 19.3366C152.202 19.3366 152.768 18.3524 153.121 17.599C153.272 18.4401 153.647 19.2317 153.949 19.2317C154.244 19.2317 154.519 18.8502 154.837 17.9843C155.291 16.6529 155.56 15.7451 155.774 14.6483C155.734 15.8728 155.761 17.2919 155.873 17.9843C156.043 18.957 156.169 19.3385 156.55 19.3385C156.867 19.3385 156.953 19.1477 157.016 18.7892C157.578 15.6154 158.072 14.0246 158.591 12.4969C158.572 13.1148 158.561 13.7481 158.561 14.3489C158.561 15.5333 158.603 16.569 158.665 17.1183C158.877 18.6614 159.152 19.3385 159.575 19.3385C160.479 19.3499 161.198 16.2829 161.198 15.6688ZM137.071 14.7399C137.071 13.7462 137.557 9.9601 138.171 9.9601C138.383 9.9601 138.467 10.2348 138.467 10.9119C138.467 11.9266 137.959 13.914 137.324 15.3521C137.254 15.5124 137.176 15.6783 137.086 15.8519C137.076 15.5028 137.071 15.1252 137.071 14.7399ZM152.295 17.805C151.914 17.805 151.639 16.4298 151.639 14.4843C151.639 12.2432 152.379 9.91624 153.098 9.91624C153.218 9.91624 153.314 9.96773 153.409 10.0955C153.088 11.6519 152.949 13.0309 152.949 14.6331C152.949 15.2663 152.978 15.9434 153.025 16.6758C152.802 17.2633 152.461 17.805 152.295 17.805Z" fill="#191C1F"/>
<path d="M193.257 15.7126C192.866 15.4799 192.355 15.2873 191.874 15.19C191.674 14.2821 191.439 13.277 191.439 12.0544C191.439 11.0606 191.567 10.3626 191.651 9.45275C191.672 9.19908 191.546 9.05031 191.334 9.05031C191.081 9.05031 190.976 9.1781 190.932 9.3879C190.487 11.8198 190.064 13.0672 189.536 14.738C189.345 15.3083 188.712 17.2118 188.309 17.2118C188.14 17.2118 187.993 16.9791 187.993 16.0064C187.993 14.1658 188.374 11.9037 188.5 9.87427C188.521 9.53668 188.309 9.32496 187.972 9.32496C187.655 9.32496 187.443 9.53668 187.422 9.91624C187.338 10.9939 187.169 12.3481 186.894 14.0399C186.535 16.1132 186.07 17.2328 185.563 17.2328C185.309 17.2328 185.139 16.9162 185.139 16.3878C185.139 13.5116 185.837 9.74839 185.921 9.09227C185.942 8.94349 185.879 8.83859 185.71 8.83859H185.372C185.013 8.83859 184.758 9.00834 184.695 9.49471C184.632 9.9601 184.546 10.7002 184.336 11.9056C183.638 15.8805 182.793 17.805 181.735 17.805C181.185 17.805 180.804 17.1069 180.804 16.0922C180.804 12.4549 181.502 9.89716 182.433 9.89716C182.645 9.89716 182.877 10.1928 182.877 10.7002C182.877 11.6099 181.842 11.8636 181.842 12.5827C181.842 12.9203 182.053 13.174 182.391 13.174C182.877 13.174 183.447 12.4759 183.447 10.7421C183.447 9.76937 183.131 9.26202 182.412 9.26202C181.101 9.26202 179.938 11.2914 179.642 14.675C179.515 16.1341 178.986 17.1698 178.479 17.1698C178.204 17.1698 178.055 16.7884 178.055 16.0922C178.055 13.893 178.691 11.3334 179.24 9.93912C179.282 9.83422 179.282 9.74839 179.198 9.68545L178.982 9.53668C178.899 9.47373 178.813 9.45275 178.708 9.45275C178.538 9.45275 178.433 9.49471 178.305 9.62251C177.903 10.025 177.544 10.2367 177.27 10.2367C176.953 10.2367 176.804 9.92005 176.804 9.22197C176.804 8.98927 176.676 8.8405 176.446 8.8405C176.215 8.8405 176.064 9.01025 176.064 9.28491C176.064 11.3792 175.959 12.308 175.832 13.9369C175.662 15.9873 175.366 17.1717 174.987 17.1717C174.584 17.1717 174.521 14.635 174.521 12.5617C174.521 11.568 174.563 10.3626 174.626 9.64349C174.647 9.41079 174.521 9.26202 174.309 9.26202C174.119 9.26202 173.993 9.36692 173.951 9.59962C173.941 9.6473 173.934 9.69499 173.924 9.74267C173.732 9.55766 173.463 9.45085 173.146 9.45085C171.92 9.45085 170.863 12.1574 170.863 14.9287C170.863 16.2391 170.439 17.805 170.081 17.805C169.911 17.805 169.743 17.1069 169.636 15.9644C169.15 11.2056 169.108 5.51792 169.362 1.85965C169.383 1.54303 169.32 1.39426 169.129 1.39426C168.98 1.39426 168.875 1.47818 168.813 1.75284C167.872 5.78685 166.878 10.4026 166.299 13.3971C166.207 12.1917 165.965 10.0402 165.641 7.6961C165.324 5.434 164.943 2.367 164.859 0.612255C164.836 0.190734 164.645 0 164.307 0C163.926 0 163.737 0.253676 163.779 0.677104C163.855 1.46293 163.93 2.25447 163.998 3.02503C163.85 7.88111 162.719 15.3521 161.643 20.7442C161.58 21.0608 161.452 21.3355 161.177 21.3355C160.966 21.3355 160.754 21.0608 160.563 20.4257C160.5 20.2349 160.415 20.151 160.247 20.151C160.014 20.151 159.909 20.3837 159.972 20.6164C160.775 23.5556 160.861 24 161.303 24C161.62 24 161.79 23.7253 161.959 23.0063C162.757 19.7333 163.831 12.5255 164.349 7.35468C164.393 7.93642 164.428 8.43996 164.454 8.83859C164.792 14.0838 164.941 16.6415 165.299 19.8763C165.32 20.0671 165.404 20.2139 165.595 20.2139C165.828 20.2139 165.911 20.0232 165.932 19.8763C166.535 15.623 167.138 12.0238 167.754 8.92633C167.853 13.0252 168.067 16.9753 168.28 18.5641C168.492 20.151 168.767 20.7842 169.19 20.7842C169.713 20.7842 170.51 19.2431 170.975 17.4922C171.162 18.5527 171.681 19.3461 172.257 19.3461C172.511 19.3461 172.723 19.1763 173.018 18.7548C173.192 18.4992 173.367 18.1769 173.579 17.6943C173.741 18.6728 174.214 19.4739 174.689 19.4739C175.534 19.4739 176.148 17.6333 176.423 14.0609C176.511 12.9775 176.593 12.0734 176.655 11.341C176.795 11.5012 176.972 11.5871 177.184 11.5871C177.479 11.5871 177.819 11.4288 178.261 11.0664C177.38 13.5306 176.867 15.9777 176.867 17.7211C176.867 18.7777 177.142 19.3499 177.67 19.3499C178.338 19.3499 178.96 18.4725 179.56 16.693C179.642 18.2055 180.371 19.3499 181.307 19.3499C182.2 19.3499 183.129 18.0339 183.907 15.7546C183.879 16.2162 183.865 16.5767 183.865 16.8742C183.865 17.6142 183.993 19.348 184.943 19.348C185.593 19.348 186.049 18.6099 186.841 16.0693C186.82 16.4508 186.804 16.8799 186.804 17.2747C186.804 18.5641 187.121 19.2412 187.714 19.2412C188.258 19.2412 188.653 18.7758 189.204 17.3625C189.288 18.5107 189.976 19.3461 190.886 19.3461C191.689 19.3461 192.217 18.5641 192.217 17.3796C192.217 17.3587 192.217 17.3377 192.217 17.3167C192.2 16.6529 192.114 16.2619 192.015 15.8385C192.513 15.953 192.795 16.157 192.999 16.302C193.062 16.344 193.127 16.3649 193.19 16.3649C193.36 16.3649 193.507 16.26 193.507 16.0903C193.511 15.9453 193.469 15.8385 193.257 15.7126ZM172.85 17.805C172.343 17.805 172.068 16.7483 172.068 14.7818C172.068 11.9685 172.576 9.9601 173.316 9.9601C173.52 9.9601 173.691 10.0726 173.829 10.2996C173.594 11.7759 173.484 13.3056 173.484 14.9287C173.484 15.7985 173.497 16.363 173.512 16.8437C173.293 17.3625 172.999 17.805 172.85 17.805ZM190.76 15.0985C190.762 15.1175 190.764 15.1366 190.764 15.1557C190.398 15.2148 190.091 15.3426 189.849 15.5352C190.196 14.4977 190.457 13.6546 190.676 12.8688C190.678 13.5802 190.701 14.3107 190.76 15.0985ZM190.381 17.8908C190.064 17.8908 189.789 17.4674 189.789 17.023C189.789 16.2524 190.108 15.8652 190.827 15.7756C190.88 16.2638 190.932 16.6644 190.932 17.0668C190.93 17.5723 190.718 17.8908 190.381 17.8908Z" fill="#191C1F"/>
<path d="M0 6.58794H5.80593V7.7228H1.15775V11.3544H5.80593V12.4892H1.15775V18.1769H0V6.58794Z" fill="#191C1F"/>
<path d="M9.65112 6.58794L15.0546 18.175H13.8034L11.9819 14.3622H6.99038L5.18604 18.175H3.89478L9.36883 6.58794H9.65112ZM9.50425 9.05031L7.51871 13.2445H11.4802L9.50425 9.05031Z" fill="#191C1F"/>
<path d="M14.6865 16.0178L15.6707 15.4265C16.363 16.7025 17.1641 17.3415 18.0739 17.3415C18.463 17.3415 18.8273 17.2499 19.1687 17.0707C19.5101 16.8895 19.7695 16.6472 19.9488 16.3421C20.1281 16.0369 20.2158 15.7145 20.2158 15.3731C20.2158 14.984 20.0842 14.6045 19.8229 14.2306C19.4605 13.7157 18.7987 13.0958 17.8374 12.371C16.8704 11.6405 16.2696 11.114 16.0331 10.7879C15.623 10.2424 15.4189 9.65112 15.4189 9.01598C15.4189 8.51244 15.5391 8.05277 15.7813 7.63697C16.0235 7.22308 16.363 6.89502 16.8017 6.6566C17.2404 6.41819 17.7172 6.29802 18.2322 6.29802C18.7777 6.29802 19.2889 6.43344 19.7638 6.70429C20.2387 6.97513 20.7423 7.47294 21.2725 8.19773L20.3265 8.91489C19.8897 8.33696 19.5197 7.9574 19.2126 7.77239C18.9055 7.58929 18.5698 7.49583 18.2074 7.49583C17.7401 7.49583 17.3587 7.63697 17.0611 7.92116C16.7636 8.20536 16.6167 8.5544 16.6167 8.96829C16.6167 9.22006 16.6682 9.4642 16.7731 9.70071C16.878 9.93722 17.0707 10.1947 17.3472 10.4732C17.4998 10.62 17.9976 11.0053 18.8445 11.6309C19.8477 12.371 20.5363 13.0309 20.9082 13.6088C21.2801 14.1868 21.4671 14.7666 21.4671 15.3502C21.4671 16.1895 21.1485 16.92 20.5096 17.5399C19.8725 18.1597 19.0962 18.4687 18.1826 18.4687C17.4788 18.4687 16.8418 18.2818 16.2696 17.9061C15.6974 17.5284 15.169 16.899 14.6865 16.0178Z" fill="#191C1F"/>
<path d="M22.127 6.58794H23.2847V11.4478H29.1841V6.58794H30.3419V18.175H29.1841V12.5827H23.2847V18.175H22.127V6.58794Z" fill="#191C1F"/>
<path d="M31.7876 6.58794H32.9454V18.175H31.7876V6.58794Z" fill="#191C1F"/>
<path d="M40.0693 6.29612C41.824 6.29612 43.2927 6.88167 44.4752 8.05277C45.6578 9.22388 46.2491 10.6658 46.2491 12.3767C46.2491 14.0723 45.6597 15.5124 44.4791 16.693C43.2984 17.8736 41.8603 18.4649 40.1628 18.4649C38.4442 18.4649 36.9947 17.8775 35.8121 16.7006C34.6296 15.5238 34.0383 14.1009 34.0383 12.432C34.0383 11.3181 34.3072 10.2863 34.847 9.33641C35.3849 8.38656 36.1192 7.64079 37.05 7.10292C37.9808 6.56696 38.9859 6.29612 40.0693 6.29612ZM40.1208 7.42335C39.2644 7.42335 38.45 7.64651 37.6832 8.09283C36.9146 8.53914 36.3157 9.14186 35.8846 9.89716C35.4535 10.6544 35.238 11.4974 35.238 12.4282C35.238 13.8053 35.7149 14.9688 36.6704 15.9167C37.626 16.8647 38.7761 17.3396 40.1227 17.3396C41.023 17.3396 41.8546 17.1222 42.6194 16.6854C43.3842 16.2486 43.9812 15.6535 44.4104 14.8963C44.8395 14.1391 45.0532 13.2979 45.0532 12.3729C45.0532 11.4536 44.8395 10.622 44.4104 9.87809C43.9812 9.13423 43.3785 8.53914 42.6003 8.09283C41.8202 7.64651 40.9944 7.42335 40.1208 7.42335Z" fill="#191C1F"/>
<path d="M47.2905 18.175V6.58794H47.5422L55.2536 15.4704V6.58794H56.3961V18.175H56.1367L48.4883 9.40126V18.175H47.2905Z" fill="#191C1F"/>
<path d="M59.8217 6.58794C61.1454 6.58794 62.038 6.64516 62.4996 6.76151C63.1614 6.92363 63.7012 7.25932 64.1227 7.76667C64.5423 8.27402 64.7521 8.91107 64.7521 9.67591C64.7521 10.4484 64.548 11.0854 64.138 11.5852C63.7279 12.0868 63.1633 12.4244 62.4443 12.598C61.9197 12.7238 60.9375 12.7868 59.4974 12.7868H58.6696V18.175H57.5119V6.58794H59.8217ZM58.6715 7.7228V11.6538L60.6323 11.6767C61.4257 11.6767 62.0056 11.6042 62.3737 11.4612C62.7418 11.3181 63.0298 11.0835 63.2396 10.7612C63.4494 10.4388 63.5543 10.0784 63.5543 9.67973C63.5543 9.29254 63.4494 8.93777 63.2396 8.61543C63.0298 8.2931 62.7532 8.06422 62.408 7.92689C62.0647 7.79147 61.5001 7.7228 60.7181 7.7228H58.6715Z" fill="#191C1F"/>
<path d="M65.6829 6.58794H66.8407V11.4478H72.74V6.58794H73.8978V18.175H72.74V12.5827H66.8407V18.175H65.6829V6.58794Z" fill="#191C1F"/>
<path d="M75.0994 6.58794H76.2572V18.175H75.0994V6.58794Z" fill="#191C1F"/>
<path d="M78.6986 6.58794V17.0573H83.156V18.175H77.5389V6.58794H78.6986Z" fill="#191C1F"/>
<path d="M83.7911 6.58794H90.4325V7.7228H84.9508V11.3544H90.3867V12.4892H84.9508V17.042H90.3867V18.1769H83.7931V6.58794H83.7911Z" fill="#191C1F"/>
</svg>
