<svg width="31" height="25" viewBox="0 0 31 25" fill="none" xmlns="http://www.w3.org/2000/svg">
<rect x="0.5" y="1.16113" width="29.86" height="23" rx="2.5" fill="white" stroke="#D8D8D8"/>
<path d="M12.2279 11.6398H11.0025C10.916 11.6398 10.8453 11.7026 10.8296 11.7812L10.3426 14.9077C10.3347 14.9549 10.374 15.0098 10.429 15.0177C10.4369 15.0177 10.4447 15.0177 10.4447 15.0177H11.026C11.1124 15.0177 11.1831 14.9549 11.1989 14.8763L11.3324 14.0357C11.3481 13.9493 11.4188 13.8943 11.5052 13.8943H11.8901C12.6914 13.8943 13.1549 13.5094 13.2806 12.7317C13.3356 12.3939 13.2806 12.1268 13.1235 11.9461C12.9428 11.7497 12.6364 11.6398 12.2279 11.6398ZM12.3693 12.7788C12.3065 13.2109 11.9687 13.2109 11.6466 13.2109H11.4659L11.5916 12.4018C11.5995 12.3546 11.6388 12.3154 11.6938 12.3154H11.7802C12.0001 12.3154 12.2122 12.3154 12.3144 12.441C12.3772 12.5117 12.3929 12.6217 12.3693 12.7788ZM15.8651 12.771H15.2759C15.2288 12.771 15.1817 12.8103 15.1738 12.8574L15.1502 13.0224L15.111 12.9517C14.9853 12.771 14.7025 12.7081 14.4197 12.7081C13.7755 12.7081 13.2256 13.1952 13.1156 13.8786C13.0606 14.2243 13.1392 14.5464 13.3356 14.7742C13.5084 14.9863 13.7677 15.0727 14.074 15.0727C14.5925 15.0727 14.8832 14.7428 14.8832 14.7428L14.8596 14.9077C14.8517 14.9627 14.891 15.0177 14.946 15.0256C14.9539 15.0256 14.9617 15.0256 14.9617 15.0256H15.488C15.5745 15.0256 15.6452 14.9627 15.6609 14.8842L15.9751 12.8888C15.9829 12.8338 15.9437 12.7788 15.8887 12.771C15.873 12.771 15.873 12.771 15.8651 12.771ZM15.056 13.8943C15.001 14.2243 14.7339 14.4521 14.3961 14.4521C14.2233 14.4521 14.0976 14.3971 14.0033 14.295C13.9169 14.1929 13.8855 14.0436 13.9091 13.8865C13.964 13.5566 14.2311 13.3287 14.5611 13.3287C14.726 13.3287 14.8596 13.3837 14.946 13.4859C15.0403 13.588 15.0795 13.7372 15.056 13.8943ZM18.976 12.771H18.3868C18.3318 12.771 18.2768 12.8024 18.2454 12.8417L17.4362 14.0279L17.0906 12.8888C17.067 12.8181 16.9963 12.771 16.9256 12.771H16.3522C16.2972 12.771 16.25 12.8103 16.25 12.8731C16.25 12.8888 16.25 12.8967 16.2579 12.9045L16.9021 14.7977L16.2972 15.654C16.2658 15.7011 16.2736 15.764 16.3207 15.7954C16.3365 15.8111 16.36 15.8111 16.3836 15.8111H16.9728C17.0278 15.8111 17.0827 15.7876 17.1142 15.7404L19.0624 12.9281C19.0938 12.881 19.0781 12.8181 19.0388 12.7867C19.0074 12.771 18.9917 12.771 18.976 12.771Z" fill="#253B80"/>
<path d="M20.9084 11.6399H19.6908C19.6044 11.6399 19.5337 11.7028 19.518 11.7813L19.0231 14.9C19.0152 14.955 19.0545 15.01 19.1095 15.0179C19.1173 15.0179 19.1252 15.0179 19.1252 15.0179H19.7458C19.8086 15.0179 19.8558 14.9786 19.8636 14.9157L20.005 14.0281C20.0207 13.9416 20.0914 13.8867 20.1778 13.8867H20.5628C21.3641 13.8867 21.8275 13.5017 21.9532 12.724C22.0082 12.3862 21.9532 12.1191 21.7961 11.9385C21.6233 11.7499 21.3169 11.6399 20.9084 11.6399ZM21.0498 12.779C20.987 13.2111 20.6492 13.2111 20.3271 13.2111H20.1464L20.2721 12.3941C20.28 12.3469 20.3192 12.3077 20.3742 12.3077H20.4607C20.6806 12.3077 20.8927 12.3077 20.9948 12.4334C21.0577 12.5119 21.0734 12.6219 21.0498 12.779ZM24.5534 12.7712H23.9643C23.9171 12.7712 23.87 12.8104 23.8622 12.8576L23.8386 13.0225L23.7915 12.9518C23.6658 12.7712 23.3908 12.7083 23.1002 12.7083C22.456 12.7083 21.9061 13.1954 21.7961 13.8788C21.7411 14.2244 21.8197 14.5465 22.0161 14.7743C22.1889 14.9864 22.4481 15.0729 22.7545 15.0729C23.273 15.0729 23.5636 14.7429 23.5636 14.7429L23.5401 14.9079C23.5322 14.9629 23.5715 15.0179 23.6265 15.0257C23.6343 15.0257 23.6422 15.0257 23.6422 15.0257H24.1685C24.2549 15.0257 24.3256 14.9629 24.3413 14.8843L24.6556 12.889C24.6634 12.834 24.6242 12.779 24.5692 12.7712C24.5535 12.7712 24.5534 12.7712 24.5534 12.7712ZM23.7365 13.8945C23.6815 14.2244 23.4144 14.4523 23.0766 14.4523C22.9038 14.4523 22.7781 14.3973 22.6838 14.2951C22.5974 14.193 22.566 14.0438 22.5895 13.8867C22.6445 13.5567 22.9116 13.3289 23.2416 13.3289C23.4065 13.3289 23.5401 13.3839 23.6265 13.486C23.7207 13.5881 23.76 13.7374 23.7365 13.8945ZM25.229 11.7263L24.7263 14.9079C24.7184 14.9629 24.7577 15.0179 24.8127 15.0257C24.8205 15.0257 24.8284 15.0257 24.8284 15.0257H25.3312C25.4176 15.0257 25.4883 14.9629 25.504 14.8843L25.9989 11.7499C26.0067 11.6949 25.9675 11.6399 25.9125 11.6321C25.9046 11.6321 25.8968 11.6321 25.8968 11.6321H25.339C25.284 11.6399 25.2447 11.6792 25.229 11.7263Z" fill="#179BD7"/>
<path d="M5.29927 15.6306L5.39354 15.0415L5.18143 15.0336H4.19162L4.88292 10.6737C4.89077 10.6423 4.91434 10.6266 4.93791 10.6266H6.61116C7.16892 10.6266 7.54599 10.7444 7.74238 10.9722C7.83665 11.0822 7.89164 11.1922 7.92306 11.3179C7.95448 11.4436 7.95448 11.6007 7.92306 11.7892V11.8049V11.9228L8.01733 11.9778C8.08803 12.0013 8.15087 12.0485 8.20586 12.1113C8.28442 12.2056 8.33941 12.3156 8.35512 12.457C8.37869 12.5905 8.37083 12.7633 8.33155 12.9519C8.29227 13.1718 8.21372 13.3682 8.12731 13.5253C8.04089 13.6589 7.93091 13.7846 7.79737 13.8788C7.67168 13.9731 7.52242 14.0359 7.36531 14.0752C7.20034 14.1145 7.01966 14.1381 6.81541 14.1381H6.68186C6.5876 14.1381 6.50118 14.1773 6.43048 14.2323C6.35978 14.2873 6.31265 14.3737 6.29694 14.4601L6.28908 14.5151L6.13197 15.5599V15.5992C6.13197 15.6149 6.12411 15.6149 6.11626 15.6228C6.1084 15.6306 6.1084 15.6306 6.10055 15.6306H5.29927Z" fill="#253B80"/>
<path d="M8.10374 11.8049C8.09588 11.8285 8.08803 11.8678 8.08803 11.8992C7.86807 13.0304 7.11393 13.4232 6.14768 13.4232H5.66063C5.54279 13.4232 5.44067 13.5096 5.42496 13.6196L5.17358 15.2143L5.10288 15.6621C5.09502 15.7328 5.14216 15.7956 5.205 15.8113C5.21286 15.8113 5.22071 15.8113 5.22071 15.8113H6.09269C6.19481 15.8113 6.28908 15.7406 6.29694 15.6385L6.30479 15.5992L6.46976 14.5623L6.48547 14.5073C6.50118 14.4052 6.5876 14.3345 6.68972 14.3345H6.82327C7.66382 14.3345 8.3237 13.9888 8.52009 13.0068C8.59865 12.5984 8.55937 12.2448 8.34727 12.0013C8.27656 11.9071 8.19015 11.8521 8.10374 11.8049Z" fill="#179BD7"/>
<path d="M7.87591 11.7106C7.79735 11.6949 7.73451 11.6792 7.66381 11.6635C7.51455 11.6399 7.37315 11.6321 7.22389 11.6321H5.92771C5.82558 11.6321 5.73132 11.7028 5.72346 11.8049L5.4328 13.5724V13.6274C5.44851 13.5096 5.55064 13.4232 5.66061 13.4232H6.14767C7.10606 13.4232 7.8602 13.0304 8.08801 11.8992C8.09587 11.8599 8.10373 11.8363 8.10373 11.8049C8.04874 11.7813 7.98589 11.7499 7.9309 11.7263C7.90733 11.7185 7.89162 11.7185 7.87591 11.7106Z" fill="#222D65"/>
<path d="M5.71522 11.8049C5.73093 11.7027 5.81734 11.632 5.91947 11.632H7.22351C7.38062 11.632 7.52202 11.6478 7.65557 11.6635C7.74984 11.6792 7.83625 11.7027 7.93052 11.7263C7.99336 11.7499 8.05621 11.7735 8.1112 11.8049C8.17404 11.3885 8.1112 11.1057 7.88338 10.8465C7.632 10.5558 7.17637 10.438 6.60291 10.438H4.93751C4.81968 10.438 4.71755 10.5244 4.70184 10.6344L4.00269 15.0414C3.98698 15.12 4.04197 15.1907 4.12052 15.2064C4.12838 15.2064 4.13623 15.2064 4.14409 15.2064H5.17318L5.43242 13.5645C5.43242 13.5724 5.71522 11.8049 5.71522 11.8049Z" fill="#253B80"/>
</svg>
