<svg width="24" height="24" viewBox="0 0 24 24" fill="none" xmlns="http://www.w3.org/2000/svg">
<path d="M23.5701 9.86833C23.2942 9.21612 22.8997 8.63042 22.3972 8.12796C21.8947 7.62549 21.309 7.23059 20.6568 6.95466C19.9807 6.66884 19.2631 6.52365 18.5246 6.52365H17.4779V5.47692C17.4779 4.73805 17.3327 4.02084 17.0469 3.34468C16.7709 2.69247 16.3764 2.10677 15.8736 1.60431C15.3707 1.10146 14.785 0.706944 14.1328 0.431008C13.4566 0.14519 12.7391 0 12.0006 0C11.2617 0 10.5445 0.14519 9.86833 0.431008C9.21612 0.706944 8.63042 1.10146 8.12796 1.60393C7.62549 2.10639 7.23097 2.69209 6.95504 3.3443C6.66922 4.02046 6.52403 4.73805 6.52403 5.47654V6.52327H5.47692C4.73805 6.52327 4.02084 6.66846 3.34468 6.95428C2.69247 7.23021 2.10677 7.62473 1.60431 8.12758C1.10184 8.63004 0.707324 9.21574 0.431388 9.86795C0.14519 10.5445 0 11.2617 0 12.0006C0 12.7394 0.14519 13.4566 0.431008 14.1328C0.706944 14.785 1.10146 15.3707 1.60393 15.8732C2.10639 16.3756 2.69209 16.7702 3.3443 17.0465C4.02046 17.3323 4.73805 17.4775 5.47654 17.4775H6.52327V18.5242C6.52327 19.2627 6.66846 19.9803 6.95428 20.6565C7.23021 21.3087 7.62473 21.8944 8.1272 22.3968C8.62966 22.8993 9.21536 23.2938 9.86757 23.5697C10.5437 23.8559 11.2613 24.0008 11.9998 24.0008C12.7383 24.0008 13.4559 23.8556 14.132 23.5697C14.7843 23.2938 15.37 22.8993 15.8724 22.3964C16.3749 21.8936 16.7694 21.3083 17.0457 20.6561C17.3315 19.9799 17.4767 19.2623 17.4767 18.5238V17.4771H18.5235C19.2619 17.4771 19.9795 17.3319 20.6557 17.0461C21.3079 16.7702 21.8936 16.3756 22.3961 15.8728C22.8985 15.3703 23.293 14.7846 23.569 14.1324C23.8552 13.4563 24 12.7387 24 12.0002C24.0011 11.2617 23.8559 10.5445 23.5701 9.86833ZM8.07665 11.21V9.65701V8.07665V6.52365V5.47692C8.07665 3.30971 9.83336 1.553 12.0006 1.553C14.1678 1.553 15.9245 3.30971 15.9245 5.47692V6.52365H14.3437V5.47692C14.3437 4.18465 13.2924 3.13374 12.0006 3.13374C10.7087 3.13374 9.65739 4.18503 9.65739 5.47692V6.52365V8.07665V9.65739V11.2104V12.7911H8.07665V11.21ZM12.7907 5.47692V6.52365H11.21V5.47692C11.21 5.04097 11.5646 4.68674 12.0002 4.68674C12.4361 4.68636 12.7907 5.04097 12.7907 5.47692ZM11.21 17.4775H12.7907V18.5242C12.7907 18.9598 12.4361 19.3144 12.0006 19.3144C11.5646 19.3144 11.2104 18.9598 11.2104 18.5242V17.4775H11.21ZM12.7907 12.7907H11.21V11.21H12.7907V12.7907ZM6.52365 15.9245H5.47692C3.30971 15.9245 1.553 14.1678 1.553 12.0006C1.553 9.83336 3.30971 8.07665 5.47692 8.07665H6.52365V9.65739H5.47692C4.18465 9.65739 3.13374 10.7087 3.13374 12.0006C3.13374 13.2924 4.18503 14.3437 5.47692 14.3437H6.52365H8.07665H9.65739H11.2104H12.7911V15.9245H11.2104H9.65739H8.07665H6.52365ZM6.52365 11.21V12.7907H5.47692C5.04097 12.7907 4.68674 12.4361 4.68674 12.0006C4.68674 11.5646 5.04135 11.2104 5.47692 11.2104H6.52365V11.21ZM15.9245 12.7907V14.3437V15.9245V17.4775V18.5242C15.9245 20.6914 14.1678 22.4481 12.0006 22.4481C9.83336 22.4481 8.07665 20.6914 8.07665 18.5242V17.4775H9.65739V18.5242C9.65739 19.8161 10.7087 20.8674 12.0006 20.8674C13.2924 20.8674 14.3437 19.8161 14.3437 18.5242V17.4775V15.9245V14.3437V12.7907V11.21H15.9245V12.7907ZM18.5242 15.9245H17.4775V14.3437H18.5242C19.8165 14.3437 20.8674 13.2924 20.8674 12.0006C20.8674 10.7083 19.8161 9.65739 18.5242 9.65739H17.4775H15.9245H14.3437H12.7907H11.21V8.07665H12.7907H14.3437H15.9245H17.4775H18.5242C20.6914 8.07665 22.4481 9.83336 22.4481 12.0006C22.4481 14.1678 20.6914 15.9245 18.5242 15.9245ZM17.4775 12.7907V11.21H18.5242C18.9602 11.21 19.3144 11.5646 19.3144 12.0002C19.3144 12.4358 18.9598 12.7904 18.5242 12.7904H17.4775V12.7907Z" fill="#191C1F"/>
</svg>
