<svg width="31" height="25" viewBox="0 0 31 25" fill="none" xmlns="http://www.w3.org/2000/svg">
<rect x="0.5" y="1.16113" width="29.86" height="23" rx="2.5" fill="white" stroke="#D8D8D8"/>
<path d="M5.03926 10.5404H4V14.1863H5.03926C5.58444 14.1863 5.99333 14.05 6.33407 13.7604C6.75148 13.4111 6.99852 12.9 6.99852 12.3634C6.99 11.29 6.18926 10.5404 5.03926 10.5404ZM5.87407 13.2748C5.65259 13.4793 5.36296 13.5645 4.90296 13.5645H4.71556V11.1537H4.90296C5.36296 11.1537 5.64407 11.2389 5.87407 11.4519C6.12111 11.6734 6.26593 12.0056 6.26593 12.3634C6.26593 12.7041 6.12111 13.0534 5.87407 13.2748Z" fill="#191C1F"/>
<path d="M8.03779 10.5404H7.32224V14.1863H8.03779V10.5404Z" fill="#191C1F"/>
<path d="M9.767 11.9374C9.34108 11.784 9.22182 11.6733 9.22182 11.4774C9.22182 11.2474 9.4433 11.077 9.74997 11.077C9.96293 11.077 10.1333 11.1622 10.3207 11.3752L10.6955 10.8896C10.3889 10.617 10.0226 10.4807 9.62219 10.4807C8.9833 10.4807 8.48923 10.9322 8.48923 11.52C8.48923 12.0226 8.71923 12.2781 9.38367 12.5166C9.66478 12.6189 9.8096 12.6785 9.87774 12.7211C10.014 12.8233 10.0907 12.9511 10.0907 13.1044C10.0907 13.4026 9.86071 13.6155 9.54552 13.6155C9.20478 13.6155 8.93219 13.4452 8.77034 13.13L8.30182 13.5729C8.63404 14.05 9.02589 14.2629 9.56256 14.2629C10.3037 14.2629 10.8148 13.7689 10.8148 13.0618C10.8148 12.4911 10.5763 12.2355 9.767 11.9374Z" fill="#191C1F"/>
<path d="M11.0363 12.3632C11.0363 13.4365 11.8711 14.2628 12.9614 14.2628C13.2681 14.2628 13.5322 14.2032 13.8474 14.0499V13.2065C13.5663 13.4876 13.3107 13.6069 12.987 13.6069C12.2714 13.6069 11.7603 13.0873 11.7603 12.3547C11.7603 11.6562 12.28 11.111 12.9529 11.111C13.2937 11.111 13.5492 11.2302 13.8388 11.5199V10.668C13.5322 10.5147 13.2681 10.4465 12.9614 10.4465C11.9051 10.4551 11.0363 11.2984 11.0363 12.3632Z" fill="#191C1F"/>
<path d="M19.4781 12.9852L18.507 10.5404H17.7318L19.2822 14.2715H19.657L21.2329 10.5404H20.4663L19.4781 12.9852Z" fill="#191C1F"/>
<path d="M21.5566 14.1778H23.567V13.5645H22.2637V12.5848H23.5159V11.963H22.2637V11.1537H23.567V10.5404H21.5566V14.1778Z" fill="#191C1F"/>
<path d="M26.3781 11.6137C26.3781 10.9323 25.9096 10.5404 25.0918 10.5404H24.0355V14.1863H24.7511V12.7211H24.8448L25.8244 14.1863H26.7018L25.5518 12.653C26.08 12.5337 26.3781 12.1674 26.3781 11.6137ZM24.9555 12.2186H24.7511V11.1111H24.9726C25.4155 11.1111 25.654 11.29 25.654 11.6563C25.6455 12.0226 25.407 12.2186 24.9555 12.2186Z" fill="#191C1F"/>
<path d="M16.0197 14.3054C17.0876 14.3054 17.9534 13.4396 17.9534 12.3717C17.9534 11.3037 17.0876 10.438 16.0197 10.438C14.9517 10.438 14.086 11.3037 14.086 12.3717C14.086 13.4396 14.9517 14.3054 16.0197 14.3054Z" fill="url(#paint0_linear)"/>
<path opacity="0.65" d="M16.0197 14.3054C17.0876 14.3054 17.9534 13.4396 17.9534 12.3717C17.9534 11.3037 17.0876 10.438 16.0197 10.438C14.9517 10.438 14.086 11.3037 14.086 12.3717C14.086 13.4396 14.9517 14.3054 16.0197 14.3054Z" fill="url(#paint1_linear)"/>
<path d="M26.8296 10.6764C26.8296 10.6168 26.787 10.5742 26.7103 10.5742H26.6081V10.8979H26.6848V10.7701L26.77 10.8979H26.8637L26.7529 10.7616C26.804 10.7531 26.8296 10.719 26.8296 10.6764ZM26.6933 10.719H26.6848V10.6338H26.6933C26.7274 10.6338 26.7529 10.6424 26.7529 10.6764C26.7529 10.7105 26.7359 10.719 26.6933 10.719Z" fill="#191C1F"/>
<path d="M26.7189 10.4551C26.5656 10.4551 26.4378 10.5829 26.4378 10.7362C26.4378 10.8895 26.5656 11.0173 26.7189 11.0173C26.8722 11.0173 27 10.8895 27 10.7362C27 10.5829 26.8722 10.4551 26.7189 10.4551ZM26.7189 10.9662C26.5996 10.9662 26.4974 10.864 26.4974 10.7362C26.4974 10.6084 26.5996 10.5062 26.7189 10.5062C26.8381 10.5062 26.9404 10.6169 26.9404 10.7362C26.9404 10.864 26.8467 10.9662 26.7189 10.9662Z" fill="#191C1F"/>
<defs>
<linearGradient id="paint0_linear" x1="17.0082" y1="13.9247" x2="15.6676" y2="11.8258" gradientUnits="userSpaceOnUse">
<stop stop-color="#F89F20"/>
<stop offset="0.2502" stop-color="#F79A20"/>
<stop offset="0.5331" stop-color="#F68D20"/>
<stop offset="0.6196" stop-color="#F58720"/>
<stop offset="0.7232" stop-color="#F48120"/>
<stop offset="1" stop-color="#F37521"/>
</linearGradient>
<linearGradient id="paint1_linear" x1="16.7963" y1="13.8961" x2="14.837" y2="10.0666" gradientUnits="userSpaceOnUse">
<stop stop-color="#F58720"/>
<stop offset="0.3587" stop-color="#E16F27"/>
<stop offset="0.703" stop-color="#D4602C"/>
<stop offset="0.9816" stop-color="#D05B2E"/>
</linearGradient>
</defs>
</svg>
