<svg width="24" height="25" viewBox="0 0 24 25" fill="none" xmlns="http://www.w3.org/2000/svg">
<path d="M11.0751 23.245C4.26422 13.3713 3 12.358 3 8.72925C3 3.75867 7.02942 -0.270752 12 -0.270752C16.9706 -0.270752 21 3.75867 21 8.72925C21 12.358 19.7358 13.3713 12.9249 23.245C12.478 23.8907 11.522 23.8906 11.0751 23.245ZM12 12.4792C14.0711 12.4792 15.75 10.8003 15.75 8.72925C15.75 6.65817 14.0711 4.97925 12 4.97925C9.92892 4.97925 8.25 6.65817 8.25 8.72925C8.25 10.8003 9.92892 12.4792 12 12.4792Z" fill="#191C1F"/>
</svg>
