<svg width="24" height="25" viewBox="0 0 24 25" fill="none" xmlns="http://www.w3.org/2000/svg">
<path d="M12 0.43988C5.37097 0.43988 0 5.81085 0 12.4399C0 19.0689 5.37097 24.4399 12 24.4399C18.629 24.4399 24 19.0689 24 12.4399C24 5.81085 18.629 0.43988 12 0.43988ZM17.8839 15.5899C18.1113 15.8173 18.1113 16.185 17.8839 16.4125L15.9677 18.3238C15.7403 18.5512 15.3726 18.5512 15.1452 18.3238L12 15.1496L8.85 18.3238C8.62258 18.5512 8.25484 18.5512 8.02742 18.3238L6.11613 16.4076C5.88871 16.1802 5.88871 15.8125 6.11613 15.585L9.29032 12.4399L6.11613 9.28988C5.88871 9.06246 5.88871 8.69472 6.11613 8.4673L8.03226 6.55117C8.25968 6.32375 8.62742 6.32375 8.85484 6.55117L12 9.7302L15.15 6.55601C15.3774 6.32859 15.7452 6.32859 15.9726 6.55601L17.8887 8.47214C18.1161 8.69956 18.1161 9.0673 17.8887 9.29472L14.7097 12.4399L17.8839 15.5899Z" fill="#191C1F"/>
</svg>
