<svg width="24" height="25" viewBox="0 0 24 25" fill="none" xmlns="http://www.w3.org/2000/svg">
<g clip-path="url(#clip0)">
<path d="M21.4286 0.00854492H2.57143C1.15179 0.00854492 0 1.16033 0 2.57997V21.4371C0 22.8568 1.15179 24.0085 2.57143 24.0085H21.4286C22.8482 24.0085 24 22.8568 24 21.4371V2.57997C24 1.16033 22.8482 0.00854492 21.4286 0.00854492ZM22.2857 21.4371C22.2857 21.9085 21.9 22.2943 21.4286 22.2943H2.57143C2.1 22.2943 1.71429 21.9085 1.71429 21.4371V2.57997C1.71429 2.10854 2.1 1.72283 2.57143 1.72283H21.4286C21.9 1.72283 22.2857 2.10854 22.2857 2.57997V21.4371Z" fill="#191C1F"/>
</g>
<defs>
<clipPath id="clip0">
<rect width="24" height="24" fill="white" transform="translate(0 0.00854492)"/>
</clipPath>
</defs>
</svg>
