<svg width="24" height="25" viewBox="0 0 24 25" fill="none" xmlns="http://www.w3.org/2000/svg">
<path d="M18.5 6.43994C18.5 3.13155 15.8084 0.439941 12.5 0.439941C9.19156 0.439941 6.5 3.13155 6.5 6.43994H2V20.6899C2 22.761 3.67892 24.4399 5.75 24.4399H19.25C21.3211 24.4399 23 22.761 23 20.6899V6.43994H18.5ZM12.5 1.93994C14.9813 1.93994 17 3.95861 17 6.43994H8C8 3.95861 10.0187 1.93994 12.5 1.93994ZM21.5 20.6899C21.5 21.9306 20.4906 22.9399 19.25 22.9399H5.75C4.50936 22.9399 3.5 21.9306 3.5 20.6899V7.93994H6.5V10.1899C6.5 10.6042 6.83581 10.9399 7.25 10.9399C7.66419 10.9399 8 10.6042 8 10.1899V7.93994H17V10.1899C17 10.6042 17.3358 10.9399 17.75 10.9399C18.1642 10.9399 18.5 10.6042 18.5 10.1899V7.93994H21.5V20.6899Z" fill="#191C1F"/>
</svg>
