<svg width="24" height="25" viewBox="0 0 24 25" fill="none" xmlns="http://www.w3.org/2000/svg">
<g clip-path="url(#clip0)">
<path d="M21 0.206543H3C1.34531 0.206543 0 1.55186 0 3.20654V16.7065C0 18.3612 1.34531 19.7065 3 19.7065H7.5V23.644C7.5 23.9769 7.77187 24.2065 8.0625 24.2065C8.175 24.2065 8.29219 24.1737 8.39531 24.094L14.25 19.7065H21C22.6547 19.7065 24 18.3612 24 16.7065V3.20654C24 1.55186 22.6547 0.206543 21 0.206543ZM22.5 16.7065C22.5 17.5315 21.825 18.2065 21 18.2065H13.7484L13.35 18.5065L9 21.769V18.2065H3C2.175 18.2065 1.5 17.5315 1.5 16.7065V3.20654C1.5 2.38154 2.175 1.70654 3 1.70654H21C21.825 1.70654 22.5 2.38154 22.5 3.20654V16.7065ZM15.75 5.14717C15.1641 4.56123 14.2125 4.56123 13.6312 5.14717L7.72031 11.0534C7.62656 11.1472 7.56094 11.2644 7.52344 11.3956L6.77344 14.2644C6.70781 14.5222 6.77812 14.794 6.97031 14.9862C7.11094 15.1269 7.30312 15.2065 7.5 15.2065C7.56094 15.2065 7.62656 15.1972 7.6875 15.1831L10.5562 14.4331C10.6875 14.4003 10.8047 14.33 10.8984 14.2362L16.8094 8.32529C17.3953 7.73936 17.3953 6.78779 16.8094 6.20654L15.75 5.14717ZM9.98438 13.0315L8.55 13.4065L8.925 11.9722L12.4406 8.45654L13.5 9.51592L9.98438 13.0315ZM14.5594 8.45654L13.5 7.39717L14.6906 6.20654L15.75 7.26592L14.5594 8.45654Z" fill="#191C1F"/>
</g>
<defs>
<clipPath id="clip0">
<rect width="24" height="24" fill="white" transform="translate(0 0.206543)"/>
</clipPath>
</defs>
</svg>
