<svg width="31" height="25" viewBox="0 0 31 25" fill="none" xmlns="http://www.w3.org/2000/svg">
<rect x="0.5" y="1.16113" width="29.86" height="23" rx="2.5" fill="white" stroke="#D8D8D8"/>
<path d="M9.55842 9.46799C9.33176 9.73799 8.96509 9.95132 8.59842 9.92132C8.55176 9.55465 8.73176 9.16799 8.94176 8.92799C9.17176 8.65132 9.56842 8.45465 9.89509 8.43799C9.93176 8.81799 9.78176 9.19132 9.55842 9.46799ZM9.88842 9.99466C9.35842 9.96466 8.90509 10.2947 8.65509 10.2947C8.40176 10.2947 8.01509 10.008 7.59842 10.018C7.05509 10.0247 6.54842 10.3347 6.27176 10.8247C5.70176 11.808 6.12176 13.2613 6.67509 14.0613C6.94509 14.458 7.26842 14.8913 7.69509 14.8747C8.09842 14.858 8.25842 14.6113 8.74509 14.6113C9.23509 14.6113 9.37842 14.8747 9.80176 14.8647C10.2418 14.858 10.5218 14.468 10.7918 14.0747C11.0984 13.6247 11.2251 13.188 11.2318 13.1647C11.2251 13.158 10.3784 12.8347 10.3718 11.858C10.3651 11.0447 11.0384 10.6547 11.0684 10.6313C10.6884 10.0713 10.0951 10.0113 9.88842 9.99466ZM12.9451 8.89132V14.8247H13.8651V12.7947H15.1384C16.3018 12.7947 17.1218 11.9947 17.1218 10.838C17.1218 9.68132 16.3184 8.88799 15.1684 8.88799L12.9451 8.89132ZM13.8684 9.66799H14.9318C15.7318 9.66799 16.1884 10.0947 16.1884 10.8447C16.1884 11.5947 15.7318 12.0247 14.9284 12.0247H13.8718V9.66799H13.8684ZM18.8084 14.8713C19.3884 14.8713 19.9251 14.578 20.1684 14.1147H20.1884V14.828H21.0418V11.8713C21.0418 11.0147 20.3551 10.4647 19.3018 10.4647C18.3251 10.4647 17.6018 11.0247 17.5751 11.7913H18.4051C18.4751 11.4247 18.8118 11.1847 19.2751 11.1847C19.8384 11.1847 20.1551 11.448 20.1551 11.9313V12.258L19.0051 12.328C17.9351 12.3913 17.3584 12.8313 17.3584 13.5913C17.3518 14.3613 17.9518 14.8713 18.8084 14.8713ZM19.0551 14.1647C18.5651 14.1647 18.2518 13.928 18.2518 13.568C18.2518 13.1947 18.5518 12.978 19.1284 12.9447L20.1518 12.8813V13.2147C20.1518 13.7713 19.6784 14.1647 19.0551 14.1647ZM22.1751 16.438C23.0718 16.438 23.4951 16.0947 23.8651 15.058L25.4818 10.5213H24.5451L23.4618 14.028H23.4418L22.3584 10.5213H21.3951L22.9551 14.8413L22.8718 15.1047C22.7318 15.5513 22.5018 15.7213 22.0951 15.7213C22.0218 15.7213 21.8818 15.7147 21.8251 15.7047V16.418C21.8784 16.4313 22.1051 16.438 22.1751 16.438Z" fill="#191C1F"/>
</svg>
