<svg width="24" height="25" viewBox="0 0 24 25" fill="none" xmlns="http://www.w3.org/2000/svg">
<g clip-path="url(#clip0)">
<path d="M21 0.206543H3C1.34531 0.206543 0 1.55186 0 3.20654V16.7065C0 18.3612 1.34531 19.7065 3 19.7065H7.5V23.644C7.5 23.9769 7.77187 24.2065 8.0625 24.2065C8.175 24.2065 8.29219 24.1737 8.39531 24.094L14.25 19.7065H21C22.6547 19.7065 24 18.3612 24 16.7065V3.20654C24 1.55186 22.6547 0.206543 21 0.206543ZM22.5 16.7065C22.5 17.5315 21.825 18.2065 21 18.2065H13.7484L13.35 18.5065L9 21.769V18.2065H3C2.175 18.2065 1.5 17.5315 1.5 16.7065V3.20654C1.5 2.38154 2.175 1.70654 3 1.70654H21C21.825 1.70654 22.5 2.38154 22.5 3.20654V16.7065Z" fill="#191C1F"/>
</g>
<defs>
<clipPath id="clip0">
<rect width="24" height="24" fill="white" transform="translate(0 0.206543)"/>
</clipPath>
</defs>
</svg>
