<svg width="24" height="25" viewBox="0 0 24 25" fill="none" xmlns="http://www.w3.org/2000/svg">
<path d="M22.1172 4.36064L13.1172 0.610274C12.843 0.496534 12.5491 0.437988 12.2523 0.437988C11.9555 0.437988 11.6617 0.496534 11.3875 0.610274L2.3875 4.36064C1.54844 4.70755 1 5.52794 1 6.4374C1 15.743 6.36719 22.1749 11.3828 24.2657C11.9359 24.4954 12.5594 24.4954 13.1125 24.2657C17.1297 22.5921 23.5 16.8119 23.5 6.4374C23.5 5.52794 22.9516 4.70755 22.1172 4.36064ZM19.9047 9.71429L11.2797 18.3401C10.9891 18.6308 10.5109 18.6308 10.2203 18.3401L5.34531 13.4647C5.05469 13.174 5.05469 12.6958 5.34531 12.4052L6.40469 11.3457C6.69531 11.055 7.17344 11.055 7.46406 11.3457L10.75 14.632L17.7859 7.59533C18.0766 7.30468 18.5547 7.30468 18.8453 7.59533L19.9047 8.65481C20.2 8.95015 20.2 9.42363 19.9047 9.71429Z" fill="#191C1F"/>
</svg>
