<svg width="24" height="25" viewBox="0 0 24 25" fill="none" xmlns="http://www.w3.org/2000/svg">
<g clip-path="url(#clip0)">
<path d="M12 0.216797C5.37097 0.216797 0 5.58776 0 12.2168C0 18.8458 5.37097 24.2168 12 24.2168C18.629 24.2168 24 18.8458 24 12.2168C24 5.58776 18.629 0.216797 12 0.216797ZM5.6129 14.1523C5.29355 14.1523 5.03226 13.891 5.03226 13.5716V10.862C5.03226 10.5426 5.29355 10.2813 5.6129 10.2813H18.3871C18.7065 10.2813 18.9677 10.5426 18.9677 10.862V13.5716C18.9677 13.891 18.7065 14.1523 18.3871 14.1523H5.6129Z" fill="#191C1F"/>
</g>
<defs>
<clipPath id="clip0">
<rect width="24" height="24" fill="white" transform="translate(0 0.216797)"/>
</clipPath>
</defs>
</svg>
