<svg width="24" height="25" viewBox="0 0 24 25" fill="none" xmlns="http://www.w3.org/2000/svg">
<g clip-path="url(#clip0)">
<path d="M18.6667 10.9993V9.66591C18.6667 9.31226 18.5262 8.97309 18.2761 8.72303C18.0261 8.47296 17.687 8.33247 17.3333 8.33247H13.3333V5.6656C13.3333 4.60465 12.9119 3.58715 12.1618 2.83695C11.4116 2.08674 10.3942 1.66528 9.33333 1.66528C8.27247 1.66528 7.25505 2.08674 6.50491 2.83695C5.75476 3.58715 5.33333 4.60465 5.33333 5.6656V8.33247H1.33333C0.979711 8.33247 0.640573 8.47296 0.390524 8.72303C0.140476 8.97309 0 9.31226 0 9.66591L0 20.3334C0 20.6871 0.140476 21.0262 0.390524 21.2763C0.640573 21.5264 0.979711 21.6668 1.33333 21.6668H6.66667V12.3328C6.66667 11.9791 6.80714 11.64 7.05719 11.3899C7.30724 11.1398 7.64638 10.9993 8 10.9993H18.6667ZM7.33333 5.6656C7.33333 5.13512 7.54405 4.62637 7.91912 4.25127C8.29419 3.87617 8.8029 3.66544 9.33333 3.66544C9.86377 3.66544 10.3725 3.87617 10.7475 4.25127C11.1226 4.62637 11.3333 5.13512 11.3333 5.6656V8.33247H7.33333V5.6656ZM22.6667 12.3328H9.33333C8.97971 12.3328 8.64057 12.4733 8.39052 12.7233C8.14048 12.9734 8 13.3126 8 13.6662V21.6668C8 22.0205 8.14048 22.3597 8.39052 22.6097C8.64057 22.8598 8.97971 23.0003 9.33333 23.0003H22.6667C23.0203 23.0003 23.3594 22.8598 23.6095 22.6097C23.8595 22.3597 24 22.0205 24 21.6668V13.6662C24 13.3126 23.8595 12.9734 23.6095 12.7233C23.3594 12.4733 23.0203 12.3328 22.6667 12.3328ZM20 16.3331C19.9993 16.9027 19.8772 17.4656 19.6417 17.9843C19.4062 18.5029 19.0629 18.9654 18.6345 19.3408C18.2061 19.7162 17.7026 19.9959 17.1576 20.1613C16.6125 20.3266 16.0385 20.3738 15.4738 20.2997C13.4583 20.0417 12 18.227 12 16.1939V15.333C12 15.2446 12.0351 15.1598 12.0976 15.0973C12.1601 15.0348 12.2449 14.9997 12.3333 14.9997H13C13.0884 14.9997 13.1732 15.0348 13.2357 15.0973C13.2982 15.1598 13.3333 15.2446 13.3333 15.333V16.2148C13.3333 17.6069 14.3488 18.8525 15.7342 18.9871C16.1049 19.0237 16.4791 18.9824 16.8329 18.8658C17.1867 18.7492 17.5121 18.5598 17.7883 18.3098C18.0645 18.0598 18.2854 17.7548 18.4366 17.4144C18.5879 17.074 18.6663 16.7056 18.6667 16.3331V15.333C18.6667 15.2446 18.7018 15.1598 18.7643 15.0973C18.8268 15.0348 18.9116 14.9997 19 14.9997H19.6667C19.7551 14.9997 19.8399 15.0348 19.9024 15.0973C19.9649 15.1598 20 15.2446 20 15.333V16.3331Z" fill="#191C1F"/>
</g>
<defs>
<clipPath id="clip0">
<rect width="24" height="24" fill="white" transform="translate(0 0.165283)"/>
</clipPath>
</defs>
</svg>
