<svg width="24" height="25" viewBox="0 0 24 25" fill="none" xmlns="http://www.w3.org/2000/svg">
<g clip-path="url(#clip0)">
<path d="M23.3152 17.166L18.0652 14.916C17.8409 14.8204 17.5916 14.8003 17.3549 14.8586C17.1182 14.9169 16.9068 15.0506 16.7527 15.2394L14.4277 18.08C10.7788 16.3596 7.84228 13.4231 6.12188 9.77426L8.9625 7.44926C9.15172 7.29536 9.28565 7.084 9.34401 6.84718C9.40237 6.61035 9.38199 6.36096 9.28594 6.13676L7.03594 0.886762C6.93052 0.645079 6.74408 0.447753 6.50876 0.328809C6.27344 0.209865 6.00399 0.176759 5.74687 0.2352L0.871875 1.3602C0.623986 1.41744 0.402818 1.55702 0.24447 1.75615C0.0861212 1.95527 -5.71036e-05 2.20219 2.83885e-08 2.45661C2.83885e-08 14.48 9.74531 24.2066 21.75 24.2066C22.0045 24.2068 22.2515 24.1206 22.4507 23.9623C22.65 23.8039 22.7896 23.5827 22.8469 23.3347L23.9719 18.4597C24.0299 18.2014 23.9961 17.9308 23.8763 17.6947C23.7564 17.4586 23.558 17.2716 23.3152 17.166Z" fill="#191C1F"/>
</g>
<defs>
<clipPath id="clip0">
<rect width="24" height="24" fill="white" transform="translate(0 0.206543)"/>
</clipPath>
</defs>
</svg>
