<svg width="24" height="25" viewBox="0 0 24 25" fill="none" xmlns="http://www.w3.org/2000/svg">
<path d="M23.8348 22.7907L17.7882 16.7441C17.6804 16.6363 17.5398 16.5801 17.3898 16.5801H16.907C18.5147 14.8411 19.499 12.5209 19.499 9.96632C19.499 4.58065 15.1352 0.216797 9.74952 0.216797C4.36385 0.216797 0 4.58065 0 9.96632C0 15.352 4.36385 19.7158 9.74952 19.7158C12.3041 19.7158 14.6243 18.7315 16.3633 17.1285V17.6066C16.3633 17.7566 16.4242 17.8972 16.5273 18.005L22.5739 24.0516C22.7942 24.2719 23.1504 24.2719 23.3707 24.0516L23.8348 23.5875C24.0551 23.3672 24.0551 23.011 23.8348 22.7907ZM9.74952 18.2159C5.18881 18.2159 1.49993 14.527 1.49993 9.96632C1.49993 5.40561 5.18881 1.71672 9.74952 1.71672C14.3102 1.71672 17.9991 5.40561 17.9991 9.96632C17.9991 14.527 14.3102 18.2159 9.74952 18.2159Z" fill="#191C1F"/>
</svg>
