<svg width="24" height="25" viewBox="0 0 24 25" fill="none" xmlns="http://www.w3.org/2000/svg">
<path d="M12 16.0688C11.2517 16.0688 10.6452 16.6754 10.6452 17.4236C10.6452 18.1719 11.2517 18.7785 12 18.7785C12.7483 18.7785 13.3548 18.1719 13.3548 17.4236C13.3548 16.6754 12.7483 16.0688 12 16.0688ZM12.3711 14.9075H11.5969C11.2763 14.9075 11.0163 14.6475 11.0163 14.3269V14.3084C11.0163 10.9047 14.7634 11.2301 14.7634 9.11126C14.7634 8.14274 13.904 7.16556 11.984 7.16556C10.5738 7.16556 9.84218 7.63245 9.11898 8.55389C8.92989 8.79485 8.58411 8.84397 8.33279 8.66885L7.69727 8.22611C7.4251 8.03648 7.36534 7.65655 7.56929 7.39497C8.59635 6.07753 9.81493 5.23008 11.984 5.23008C14.5156 5.23008 16.6989 6.66964 16.6989 9.11126C16.6989 12.3732 12.9518 12.2007 12.9518 14.3084V14.3269C12.9518 14.6475 12.6918 14.9075 12.3711 14.9075ZM12 1.55266C17.7397 1.55266 22.4516 6.20145 22.4516 12.0043C22.4516 17.7764 17.7769 22.4559 12 22.4559C6.23013 22.4559 1.54839 17.7835 1.54839 12.0043C1.54839 6.23638 6.22268 1.55266 12 1.55266ZM12 0.00427246C5.37305 0.00427246 0 5.37926 0 12.0043C0 18.6332 5.37305 24.0043 12 24.0043C18.627 24.0043 24 18.6332 24 12.0043C24 5.37926 18.627 0.00427246 12 0.00427246Z" fill="#191C1F"/>
</svg>
