<svg width="24" height="25" viewBox="0 0 24 25" fill="none" xmlns="http://www.w3.org/2000/svg">
<path d="M22.4813 8.02432L19.8422 3.10713C19.6359 2.49307 19.0641 2.08057 18.4172 2.08057H12.75V8.08057H22.4391C22.4578 8.05713 22.4625 8.04775 22.4813 8.02432ZM1.5 9.58057V21.5806C1.5 22.4103 2.17031 23.0806 3 23.0806H21C21.8297 23.0806 22.5 22.4103 22.5 21.5806V9.58057H1.5ZM15.8016 16.5743L12.3984 19.9212C12.1781 20.1368 11.8219 20.1368 11.6016 19.9212L8.19844 16.5743C7.20937 15.604 7.27031 13.9915 8.37188 13.0962C9.33281 12.3134 10.7672 12.454 11.6531 13.3212L12 13.6634L12.3469 13.3212C13.2281 12.454 14.6625 12.3134 15.6281 13.0962C16.7297 13.9915 16.7859 15.5993 15.8016 16.5743ZM11.25 8.08057V2.08057H5.58281C4.93594 2.08057 4.36406 2.49307 4.15781 3.10713L1.51875 8.02432C1.5375 8.04775 1.54219 8.05713 1.56094 8.08057H11.25Z" fill="#191C1F"/>
</svg>
