<svg width="24" height="25" viewBox="0 0 24 25" fill="none" xmlns="http://www.w3.org/2000/svg">
<path d="M12 1.5548C17.7397 1.5548 22.4516 6.20359 22.4516 12.0064C22.4516 17.7786 17.7769 22.458 12 22.458C6.23013 22.458 1.54839 17.7857 1.54839 12.0064C1.54839 6.23852 6.22268 1.5548 12 1.5548ZM12 0.00640869C5.37305 0.00640869 0 5.38139 0 12.0064C0 18.6353 5.37305 24.0064 12 24.0064C18.627 24.0064 24 18.6353 24 12.0064C24 5.38139 18.627 0.00640869 12 0.00640869ZM10.2581 16.6516H10.8387V10.8451H10.2581C9.9374 10.8451 9.67742 10.5851 9.67742 10.2645V9.87738C9.67742 9.55672 9.9374 9.29673 10.2581 9.29673H12.5806C12.9013 9.29673 13.1613 9.55672 13.1613 9.87738V16.6516H13.7419C14.0626 16.6516 14.3226 16.9116 14.3226 17.2322V17.6193C14.3226 17.94 14.0626 18.2 13.7419 18.2H10.2581C9.9374 18.2 9.67742 17.94 9.67742 17.6193V17.2322C9.67742 16.9116 9.9374 16.6516 10.2581 16.6516ZM12 5.03867C11.1449 5.03867 10.4516 5.73191 10.4516 6.58705C10.4516 7.4422 11.1449 8.13544 12 8.13544C12.8551 8.13544 13.5484 7.4422 13.5484 6.58705C13.5484 5.73191 12.8551 5.03867 12 5.03867Z" fill="#191C1F"/>
</svg>
