<svg width="25" height="24" viewBox="0 0 25 24" fill="none" xmlns="http://www.w3.org/2000/svg">
<path d="M11.2577 7.6699H12.7369C12.8786 7.6699 12.9911 7.78655 12.9869 7.92819L12.6744 16.0936C12.6702 16.2269 12.5577 16.3352 12.4244 16.3352H11.5702C11.4369 16.3352 11.3244 16.2311 11.3202 16.0936L11.0077 7.92819C11.0035 7.78655 11.116 7.6699 11.2577 7.6699ZM11.9994 17.1684C11.3535 17.1684 10.8327 17.6892 10.8327 18.3349C10.8327 18.9806 11.3535 19.5014 11.9994 19.5014C12.6452 19.5014 13.1661 18.9806 13.1661 18.3349C13.1661 17.6892 12.6452 17.1684 11.9994 17.1684ZM23.729 19.3347L13.7328 2.00412C12.9661 0.670991 11.0368 0.670991 10.266 2.00412L0.269724 19.3347C-0.496975 20.6637 0.461398 22.3343 2.00313 22.3343H21.9998C23.5332 22.3343 24.4999 20.6679 23.729 19.3347ZM21.9998 21.0011H1.99896C1.48644 21.0011 1.16559 20.4471 1.41977 20.0013L11.4202 2.67068C11.6744 2.22908 12.3202 2.22492 12.5744 2.67068L22.5748 20.0013C22.8332 20.4429 22.5123 21.0011 21.9998 21.0011Z" fill="#191C1F"/>
</svg>
