<svg width="24" height="24" viewBox="0 0 24 24" fill="none" xmlns="http://www.w3.org/2000/svg">
<path d="M12 1.54839C17.7397 1.54839 22.4516 6.19718 22.4516 12C22.4516 17.7721 17.7769 22.4516 12 22.4516C6.23013 22.4516 1.54839 17.7793 1.54839 12C1.54839 6.23211 6.22268 1.54839 12 1.54839ZM12 0C5.37305 0 0 5.37498 0 12C0 18.6289 5.37305 24 12 24C18.627 24 24 18.6289 24 12C24 5.37498 18.627 0 12 0ZM11.444 5.80645H12.5559C12.8861 5.80645 13.1498 6.08139 13.1361 6.41129L12.7974 14.5403C12.7844 14.8514 12.5285 15.0968 12.2172 15.0968H11.7827C11.4715 15.0968 11.2155 14.8513 11.2026 14.5403L10.8639 6.41129C10.8502 6.08139 11.1139 5.80645 11.444 5.80645ZM12 16.0645C11.2517 16.0645 10.6452 16.6711 10.6452 17.4194C10.6452 18.1676 11.2517 18.7742 12 18.7742C12.7483 18.7742 13.3548 18.1676 13.3548 17.4194C13.3548 16.6711 12.7483 16.0645 12 16.0645Z" fill="#191C1F"/>
</svg>
