<svg width="59" height="25" viewBox="0 0 59 25" fill="none" xmlns="http://www.w3.org/2000/svg">
<path d="M10.6753 3.85855C9.99527 4.66855 8.89527 5.30855 7.79527 5.21855C7.65527 4.11855 8.19527 2.95855 8.82527 2.23855C9.51527 1.40855 10.7053 0.818555 11.6853 0.768555C11.7953 1.90855 11.3453 3.02855 10.6753 3.85855ZM11.6653 5.43855C10.0753 5.34855 8.71527 6.33855 7.96527 6.33855C7.20527 6.33855 6.04527 5.47855 4.79527 5.50855C3.16527 5.52855 1.64527 6.45855 0.815271 7.92855C-0.894729 10.8786 0.365271 15.2386 2.02527 17.6386C2.83527 18.8286 3.80527 20.1286 5.08527 20.0786C6.29527 20.0286 6.77527 19.2886 8.23527 19.2886C9.70527 19.2886 10.1353 20.0786 11.4053 20.0486C12.7253 20.0286 13.5653 18.8586 14.3753 17.6786C15.2953 16.3286 15.6753 15.0186 15.6953 14.9486C15.6753 14.9286 13.1353 13.9586 13.1153 11.0286C13.0953 8.58855 15.1153 7.41855 15.2053 7.34855C14.0653 5.66855 12.2853 5.48855 11.6653 5.43855ZM20.8353 2.12855V19.9286H23.5953V13.8386H27.4153C30.9053 13.8386 33.3653 11.4386 33.3653 7.96855C33.3653 4.49855 30.9553 2.11855 27.5053 2.11855L20.8353 2.12855ZM23.6053 4.45855H26.7953C29.1953 4.45855 30.5653 5.73855 30.5653 7.98855C30.5653 10.2386 29.1953 11.5286 26.7853 11.5286H23.6153V4.45855H23.6053ZM38.4253 20.0686C40.1653 20.0686 41.7753 19.1886 42.5053 17.7986H42.5653V19.9386H45.1253V11.0686C45.1253 8.49856 43.0653 6.84855 39.9053 6.84855C36.9753 6.84855 34.8053 8.52855 34.7253 10.8286H37.2153C37.4253 9.72855 38.4353 9.00855 39.8253 9.00855C41.5153 9.00855 42.4653 9.79855 42.4653 11.2486V12.2286L39.0153 12.4386C35.8053 12.6286 34.0753 13.9486 34.0753 16.2286C34.0553 18.5386 35.8553 20.0686 38.4253 20.0686ZM39.1653 17.9486C37.6953 17.9486 36.7553 17.2386 36.7553 16.1586C36.7553 15.0386 37.6553 14.3886 39.3853 14.2886L42.4553 14.0986V15.0986C42.4553 16.7686 41.0353 17.9486 39.1653 17.9486ZM48.5253 24.7686C51.2153 24.7686 52.4853 23.7386 53.5953 20.6286L58.4453 7.01855H55.6353L52.3853 17.5386H52.3253L49.0753 7.01855H46.1853L50.8653 19.9786L50.6153 20.7686C50.1953 22.1086 49.5053 22.6186 48.2853 22.6186C48.0653 22.6186 47.6453 22.5986 47.4753 22.5686V24.7086C47.6353 24.7486 48.3153 24.7686 48.5253 24.7686Z" fill="#191C1F"/>
</svg>
