<svg width="179" height="24" viewBox="0 0 179 24" fill="none" xmlns="http://www.w3.org/2000/svg">
<path d="M0 0.581665H11.4285V2.84464H2.28191V10.0028H11.4285V12.2374H2.28191V23.3913H0V0.581665Z" fill="#191C1F"/>
<path d="M19.0033 0.581665L29.6459 23.3913H27.1841L23.5955 15.8828H13.7672L10.2071 23.3913H7.66949L18.4447 0.581665H19.0033ZM18.7193 5.42954L14.8088 13.6861H22.6013L18.7193 5.42954Z" fill="#191C1F"/>
<path d="M28.9169 19.1399L30.8579 17.9942C32.2214 20.5129 33.7932 21.7816 35.5922 21.7816C36.3448 21.7883 37.0871 21.606 37.751 21.2514C38.3879 20.9261 38.9197 20.4271 39.2849 19.8122C39.6291 19.2403 39.8123 18.586 39.8151 17.9185C39.7959 17.105 39.5246 16.3176 39.0387 15.665C37.9162 14.2665 36.5993 13.0357 35.1282 12.0101C33.8273 11.1137 32.6356 10.0682 31.5775 8.89499C30.799 7.89603 30.3729 6.66757 30.3656 5.40111C30.3555 4.44815 30.6007 3.50987 31.0757 2.68364C31.5588 1.87719 32.2572 1.22141 33.0925 0.789939C33.9622 0.311967 34.9408 0.0673153 35.933 0.0798007C36.9893 0.0749809 38.028 0.349362 38.944 0.875156C40.1076 1.64117 41.1057 2.63284 41.8793 3.79146L39.9856 5.20227C39.4187 4.32006 38.7045 3.5418 37.8741 2.90142C37.2766 2.54292 36.5919 2.35616 35.8952 2.36171C35.4831 2.3445 35.0717 2.4093 34.6849 2.55233C34.298 2.69536 33.9434 2.91379 33.6417 3.19494C33.3578 3.45759 33.1326 3.77724 32.9809 4.13295C32.8291 4.48866 32.7542 4.87241 32.7611 5.25908C32.7616 5.75864 32.8681 6.2524 33.0735 6.70776C33.359 7.27391 33.7402 7.78644 34.2003 8.22272C34.5033 8.51625 35.488 9.27373 37.1545 10.5046C38.7177 11.5641 40.091 12.8798 41.2165 14.3962C41.9073 15.408 42.2889 16.5989 42.3148 17.8238C42.3187 18.6345 42.1521 19.437 41.8258 20.1791C41.4996 20.9213 41.021 21.5866 40.4211 22.132C39.8191 22.7293 39.1033 23.1997 38.3161 23.5153C37.5289 23.8308 36.6863 23.9851 35.8384 23.9689C34.4936 23.9862 33.1744 23.6003 32.0509 22.861C30.7182 21.8951 29.6422 20.6175 28.9169 19.1399Z" fill="#191C1F"/>
<path d="M43.5552 0.581665H45.8371V10.1449H57.4644V0.581665H59.7463V23.3913H57.4644V12.3794H45.8466V23.3913H43.5552V0.581665Z" fill="#191C1F"/>
<path d="M62.5869 0.581665H64.8688V23.3913H62.5869V0.581665Z" fill="#191C1F"/>
<path d="M78.8917 0.0040764C80.4961 -0.0380434 82.0924 0.246614 83.5834 0.84074C85.0744 1.43487 86.429 2.32604 87.5648 3.46008C88.7014 4.56426 89.5982 5.89083 90.1994 7.357C90.8005 8.82317 91.093 10.3975 91.0587 11.9817C91.0931 13.5652 90.8015 15.1387 90.2021 16.6047C89.6027 18.0707 88.7082 19.3977 87.5743 20.5034C86.4701 21.64 85.1435 22.5368 83.6774 23.138C82.2112 23.7391 80.6369 24.0316 79.0526 23.9973C77.4712 24.0235 75.9008 23.7291 74.4362 23.1318C72.9716 22.5346 71.6432 21.6469 70.531 20.5223C69.4035 19.4351 68.5116 18.1277 67.9105 16.6813C67.3095 15.2349 67.0122 13.6804 67.0371 12.1143C67.0235 9.97742 67.5721 7.87453 68.6278 6.01658C69.6497 4.19245 71.1394 2.67373 72.9435 1.6169C74.7476 0.560073 76.8008 0.00334563 78.8917 0.0040764ZM78.9958 2.21971C77.3056 2.22251 75.6474 2.68041 74.1953 3.5453C72.7172 4.38909 71.4939 5.61567 70.6541 7.09599C69.7944 8.61364 69.3533 10.3324 69.3758 12.0764C69.3535 13.3557 69.5941 14.6258 70.0827 15.8083C70.5714 16.9907 71.2976 18.0602 72.2164 18.9506C73.0952 19.8578 74.1494 20.5766 75.3149 21.0633C76.4804 21.55 77.7328 21.7945 78.9958 21.7817C80.7191 21.7959 82.4151 21.3515 83.91 20.4939C85.3887 19.6669 86.6108 18.4482 87.4417 16.9717C88.2898 15.4571 88.7242 13.7459 88.701 12.0102C88.7253 10.2893 88.2906 8.59309 87.4417 7.09599C86.5887 5.62589 85.3557 4.41251 83.8721 3.58318C82.3969 2.70311 80.7136 2.23245 78.9958 2.21971Z" fill="#191C1F"/>
<path d="M93.1134 23.3913V0.581665H93.6058L108.755 18.07V0.581665H110.999V23.3913H110.488L95.4711 6.12075V23.3913H93.1134Z" fill="#191C1F"/>
<path d="M113.243 0.581693H117.788C119.564 0.524781 121.34 0.648507 123.091 0.950965C124.344 1.24019 125.466 1.93602 126.282 2.92988C127.139 4.00115 127.579 5.34646 127.522 6.71729C127.587 8.08454 127.157 9.42946 126.31 10.5047C125.453 11.5222 124.279 12.2224 122.977 12.4931C121.063 12.8151 119.122 12.942 117.182 12.8718H115.516V23.3913H113.243V0.581693ZM115.516 2.84467V10.5899H119.37C120.528 10.6463 121.688 10.5021 122.797 10.1638C123.501 9.89743 124.102 9.41308 124.511 8.78143C124.927 8.14259 125.145 7.39458 125.136 6.63207C125.142 5.88608 124.928 5.15483 124.52 4.53006C124.131 3.91745 123.557 3.44359 122.882 3.17607C121.801 2.87862 120.678 2.76656 119.559 2.84467H115.516Z" fill="#191C1F"/>
<path d="M129.321 0.581665H131.612V10.1449H143.23V0.581665H145.512V23.3913H143.23V12.3794H131.612V23.3913H129.33L129.321 0.581665Z" fill="#191C1F"/>
<path d="M147.87 0.581665H150.152V23.3913H147.87V0.581665Z" fill="#191C1F"/>
<path d="M152.67 0.581665H154.952V21.1946H163.73V23.3913H152.67V0.581665Z" fill="#191C1F"/>
<path d="M164.979 0.581665H178.055V2.84464H167.261V10.0028H178.008V12.2374H167.309V21.1946H178.008V23.3913H164.979V0.581665Z" fill="#191C1F"/>
</svg>
