<svg width="31" height="25" viewBox="0 0 31 25" fill="none" xmlns="http://www.w3.org/2000/svg">
<rect x="0.5" y="0.937988" width="29.86" height="23" rx="2.5" fill="white" stroke="#D8D8D8"/>
<path d="M9.99268 18.384V17.5572C10.0089 17.2842 9.79856 17.0502 9.52356 17.0346C9.49929 17.0346 9.48311 17.0346 9.45885 17.0346C9.26473 17.019 9.0787 17.1126 8.98164 17.2686C8.88458 17.1204 8.71472 17.0268 8.52869 17.0346C8.36693 17.0268 8.21325 17.1048 8.13237 17.2296V17.0658H7.8331V18.384H8.13237V17.6586C8.1081 17.487 8.22943 17.331 8.40737 17.3076C8.42355 17.3076 8.44781 17.3076 8.46399 17.3076C8.65811 17.3076 8.76325 17.4324 8.76325 17.6508V18.384H9.06252V17.6508C9.03826 17.4792 9.15958 17.3232 9.33752 17.2998C9.3537 17.2998 9.37797 17.2998 9.39414 17.2998C9.59635 17.2998 9.69341 17.4246 9.69341 17.643V18.3762L9.99268 18.384ZM14.4332 17.0658H13.9479V16.668H13.6405V17.0658H13.3736V17.331H13.6486V17.9394C13.6486 18.2436 13.7699 18.4308 14.1258 18.4308C14.2552 18.4308 14.3846 18.3996 14.4979 18.3294L14.4089 18.0798C14.328 18.1266 14.239 18.15 14.1501 18.1578C14.0045 18.1578 13.9559 18.072 13.9559 17.9394V17.3388H14.4412L14.4332 17.0658ZM16.9648 17.0346C16.8192 17.0268 16.6817 17.1048 16.6089 17.2296V17.0736H16.3177V18.3918H16.617V17.6508C16.617 17.4324 16.7141 17.3154 16.9001 17.3154C16.9648 17.3154 17.0295 17.3232 17.0861 17.3466L17.1751 17.0736C17.1023 17.0424 17.0295 17.0268 16.9648 17.0346ZM13.139 17.175C12.9692 17.0814 12.7751 17.0346 12.5809 17.0346C12.2331 17.0346 12.0067 17.1906 12.0067 17.4558C12.0067 17.6742 12.1684 17.799 12.4758 17.8458L12.6214 17.8614C12.7831 17.8848 12.864 17.9238 12.864 18.0018C12.864 18.1032 12.7589 18.1578 12.5567 18.1578C12.3949 18.1656 12.2331 18.111 12.1037 18.0174L11.9581 18.2436C12.128 18.3606 12.3383 18.423 12.5486 18.4152C12.9449 18.4152 13.1714 18.2358 13.1714 17.9862C13.1714 17.7366 12.9934 17.6352 12.6942 17.5884L12.5486 17.5728C12.4192 17.5572 12.314 17.5338 12.314 17.4402C12.314 17.3544 12.4111 17.2842 12.5728 17.2842C12.7265 17.2842 12.8721 17.3232 13.0015 17.3934L13.139 17.175ZM21.0898 17.0346C20.9442 17.0268 20.8067 17.1048 20.7339 17.2296V17.0736H20.4428V18.3918H20.742V17.6508C20.742 17.4324 20.8391 17.3154 21.0251 17.3154C21.0898 17.3154 21.1545 17.3232 21.2112 17.3466L21.3001 17.0736C21.2273 17.0424 21.1626 17.0268 21.0898 17.0346ZM17.2641 17.721C17.2479 18.0876 17.5472 18.3996 17.9273 18.4074C17.9516 18.4074 17.9677 18.4074 17.992 18.4074C18.17 18.4152 18.3479 18.3606 18.4854 18.2514L18.3398 18.0174C18.2347 18.0954 18.1133 18.1344 17.9839 18.1344C17.7413 18.1188 17.5633 17.9082 17.5795 17.682C17.5957 17.4792 17.7655 17.3076 17.9839 17.292C18.1133 17.292 18.2347 17.3388 18.3398 17.409L18.4854 17.175C18.3479 17.0658 18.17 17.0112 17.992 17.019C17.6119 16.9956 17.2883 17.2764 17.2641 17.643C17.2641 17.6742 17.2641 17.6976 17.2641 17.721ZM20.0464 17.721V17.0658H19.7472V17.2218C19.642 17.097 19.4883 17.0268 19.3185 17.0268C18.9222 17.0268 18.6067 17.3388 18.6067 17.7132C18.6067 18.0954 18.9303 18.3996 19.3185 18.3996C19.4883 18.4074 19.642 18.3372 19.7472 18.2046V18.3606H20.0464V17.721ZM18.9383 17.721C18.9545 17.5026 19.1486 17.331 19.3751 17.3466C19.6016 17.3622 19.7795 17.5494 19.7633 17.7678C19.7472 17.9784 19.5692 18.1422 19.3508 18.1422C19.1244 18.1422 18.9383 17.9706 18.9383 17.7522C18.9383 17.7444 18.9383 17.7366 18.9383 17.721ZM15.3552 17.0346C14.9589 17.0424 14.6435 17.3544 14.6515 17.7366C14.6596 18.1188 14.9832 18.423 15.3795 18.4152C15.5817 18.423 15.7839 18.3606 15.9457 18.2358L15.8001 18.0252C15.6868 18.111 15.5493 18.1578 15.4038 18.1656C15.2015 18.1812 15.0155 18.0408 14.9912 17.8458H16.0023C16.0023 17.8068 16.0023 17.7756 16.0023 17.7366C16.0104 17.3154 15.7435 17.0346 15.3552 17.0346ZM15.3552 17.292C15.5413 17.292 15.6949 17.4324 15.703 17.6118H14.9912C14.9993 17.4246 15.1611 17.2842 15.3552 17.292ZM22.7965 17.7288V16.5432H22.5134V17.2296C22.4082 17.1048 22.2545 17.0346 22.0847 17.0346C21.6884 17.0346 21.3729 17.3466 21.3729 17.721C21.3729 18.1032 21.6965 18.4074 22.0847 18.4074C22.2545 18.4152 22.4082 18.345 22.5134 18.2124V18.3684H22.7965V17.7288ZM23.2979 18.1968C23.3141 18.1968 23.3384 18.1968 23.3546 18.2046C23.3707 18.2124 23.3869 18.2202 23.395 18.2358C23.4112 18.2514 23.4193 18.2592 23.4274 18.2748C23.4435 18.306 23.4435 18.345 23.4274 18.3762C23.4193 18.3918 23.4112 18.4074 23.395 18.4152C23.3788 18.4308 23.3707 18.4386 23.3546 18.4464C23.3303 18.4542 23.3141 18.4542 23.2979 18.4542C23.2413 18.4542 23.1928 18.423 23.1685 18.3762C23.1523 18.345 23.1523 18.306 23.1685 18.2748C23.1766 18.2592 23.1847 18.2436 23.2009 18.2358C23.2171 18.2202 23.2251 18.2124 23.2413 18.2046C23.2575 18.1968 23.2818 18.1968 23.2979 18.1968ZM23.2979 18.423C23.3141 18.423 23.3303 18.423 23.3384 18.4152C23.3546 18.4074 23.3626 18.3996 23.3707 18.3918C23.4112 18.3528 23.4112 18.2904 23.3707 18.2514C23.3626 18.2436 23.3465 18.2358 23.3384 18.228C23.3222 18.2202 23.3141 18.2202 23.2979 18.2202C23.2818 18.2202 23.2656 18.2202 23.2575 18.228C23.2413 18.2358 23.2332 18.2436 23.2251 18.2514C23.1847 18.2904 23.1847 18.3528 23.2251 18.3918C23.2332 18.3996 23.2494 18.4074 23.2575 18.4152C23.2656 18.423 23.2818 18.4308 23.2979 18.423ZM23.306 18.2592C23.3222 18.2592 23.3303 18.2592 23.3465 18.267C23.3546 18.2748 23.3626 18.2826 23.3626 18.2982C23.3626 18.306 23.3626 18.3138 23.3546 18.3216C23.3465 18.3294 23.3384 18.3294 23.3222 18.3372L23.3626 18.384H23.3303L23.2899 18.3372H23.2737V18.384H23.2494V18.2592H23.306ZM23.2737 18.2826V18.3138H23.306C23.3141 18.3138 23.3141 18.3138 23.3222 18.3138C23.3222 18.3138 23.3222 18.306 23.3222 18.2982C23.3222 18.2982 23.3222 18.2904 23.3222 18.2826C23.3141 18.2826 23.3141 18.2826 23.306 18.2826H23.2737ZM21.7045 17.7288C21.7207 17.5104 21.9148 17.3388 22.1413 17.3544C22.3678 17.37 22.5457 17.5572 22.5295 17.7756C22.5134 17.9862 22.3354 18.15 22.117 18.15C21.8906 18.15 21.7045 17.9784 21.7045 17.76C21.6965 17.7444 21.6965 17.7366 21.7045 17.7288ZM11.667 17.7288V17.0736H11.3758V17.2296C11.2706 17.1048 11.117 17.0346 10.9471 17.0346C10.5508 17.0346 10.2353 17.3466 10.2353 17.721C10.2353 18.1032 10.5589 18.4074 10.9471 18.4074C11.117 18.4152 11.2706 18.345 11.3758 18.2124V18.3684H11.675L11.667 17.7288ZM10.5669 17.7288C10.5831 17.5104 10.7772 17.3388 11.0037 17.3544C11.2302 17.37 11.4081 17.5572 11.392 17.7756C11.3758 17.9862 11.1978 18.15 10.9794 18.15C10.753 18.1578 10.5669 17.9784 10.5589 17.76C10.5589 17.7522 10.5589 17.7366 10.5669 17.7288Z" fill="#191C1F"/>
<path d="M17.531 7.03503H13.0339V14.835H17.531V7.03503Z" fill="#FF5F00"/>
<path d="M13.3252 10.9352C13.3252 9.4142 14.0451 7.979 15.2907 7.0352C13.0502 5.3426 9.82296 5.717 8.06779 7.8698C6.31263 10.0226 6.70087 13.1426 8.93324 14.8352C10.8016 16.247 13.4223 16.247 15.2907 14.8352C14.0451 13.8914 13.3252 12.4562 13.3252 10.9352Z" fill="#EB001B"/>
<path d="M23.6053 10.9351C23.6053 13.6729 21.3001 15.8959 18.4611 15.8959C17.3126 15.8959 16.1883 15.5215 15.2824 14.8351C17.5148 13.1425 17.903 10.0225 16.1479 7.86967C15.8971 7.55768 15.606 7.27688 15.2824 7.03508C17.5148 5.34248 20.7501 5.71688 22.5053 7.86967C23.2171 8.74327 23.6053 9.81968 23.6053 10.9351Z" fill="#F79E1B"/>
<path d="M23.1119 14.0082V13.8522H23.1766V13.821H23.0068V13.8522H23.0795V14.0082H23.1119ZM23.4435 14.0082V13.8132H23.395L23.3384 13.9536L23.2818 13.8132H23.2251V14.0082H23.2656V13.86L23.3222 13.9848H23.3626L23.4193 13.86V14.0082H23.4435Z" fill="#F79E1B"/>
</svg>
