<svg width="24" height="25" viewBox="0 0 24 25" fill="none" xmlns="http://www.w3.org/2000/svg">
<g clip-path="url(#clip0)">
<path d="M18.1935 12.3728V12.9534C18.1935 13.2728 17.9323 13.5341 17.6129 13.5341H12.871V18.276C12.871 18.5953 12.6097 18.8566 12.2903 18.8566H11.7097C11.3903 18.8566 11.129 18.5953 11.129 18.276V13.5341H6.3871C6.06774 13.5341 5.80645 13.2728 5.80645 12.9534V12.3728C5.80645 12.0534 6.06774 11.7921 6.3871 11.7921H11.129V7.05018C11.129 6.73083 11.3903 6.46954 11.7097 6.46954H12.2903C12.6097 6.46954 12.871 6.73083 12.871 7.05018V11.7921H17.6129C17.9323 11.7921 18.1935 12.0534 18.1935 12.3728ZM24 12.6631C24 19.2921 18.629 24.6631 12 24.6631C5.37097 24.6631 0 19.2921 0 12.6631C0 6.03405 5.37097 0.663086 12 0.663086C18.629 0.663086 24 6.03405 24 12.6631ZM22.4516 12.6631C22.4516 6.86147 17.7435 2.21147 12 2.21147C6.19839 2.21147 1.54839 6.91954 1.54839 12.6631C1.54839 18.4647 6.25645 23.1147 12 23.1147C17.8016 23.1147 22.4516 18.4066 22.4516 12.6631Z" fill="#191C1F"/>
</g>
<defs>
<clipPath id="clip0">
<rect width="24" height="24" fill="white" transform="translate(0 0.43988)"/>
</clipPath>
</defs>
</svg>
