<svg width="24" height="25" viewBox="0 0 24 25" fill="none" xmlns="http://www.w3.org/2000/svg">
<path d="M12 0.165283C5.37097 0.165283 0 5.53625 0 12.1653C0 18.7943 5.37097 24.1653 12 24.1653C18.629 24.1653 24 18.7943 24 12.1653C24 5.53625 18.629 0.165283 12 0.165283ZM22.4516 12.1653C22.4516 17.9088 17.8016 22.6169 12 22.6169C6.25645 22.6169 1.54839 17.9669 1.54839 12.1653C1.54839 6.42173 6.19839 1.71367 12 1.71367C17.7435 1.71367 22.4516 6.36367 22.4516 12.1653ZM15.2468 16.4379L11.3177 13.583C11.1677 13.4717 11.0806 13.2975 11.0806 13.1137V5.39109C11.0806 5.07173 11.3419 4.81044 11.6613 4.81044H12.3387C12.6581 4.81044 12.9194 5.07173 12.9194 5.39109V12.4701L16.3306 14.9524C16.5919 15.1411 16.6452 15.504 16.4565 15.7653L16.0597 16.3121C15.871 16.5685 15.5081 16.6266 15.2468 16.4379Z" fill="#191C1F"/>
</svg>
