<svg width="24" height="25" viewBox="0 0 24 25" fill="none" xmlns="http://www.w3.org/2000/svg">
<path d="M21.75 2.77051H2.25C1.00781 2.77051 0 3.77832 0 5.02051V18.5205C0 19.7627 1.00781 20.7705 2.25 20.7705H21.75C22.9922 20.7705 24 19.7627 24 18.5205V5.02051C24 3.77832 22.9922 2.77051 21.75 2.77051ZM2.25 4.27051H21.75C22.1625 4.27051 22.5 4.60801 22.5 5.02051V6.96113C21.4734 7.82832 20.0063 9.02363 15.4406 12.6471C14.6484 13.2752 13.0875 14.7893 12 14.7705C10.9125 14.7893 9.34688 13.2752 8.55938 12.6471C3.99375 9.02363 2.52656 7.82832 1.5 6.96113V5.02051C1.5 4.60801 1.8375 4.27051 2.25 4.27051ZM21.75 19.2705H2.25C1.8375 19.2705 1.5 18.933 1.5 18.5205V8.91113C2.56875 9.7877 4.25625 11.1424 7.62656 13.8189C8.5875 14.5877 10.2844 16.2799 12 16.2705C13.7063 16.2846 15.3891 14.6064 16.3734 13.8189C19.7437 11.1424 21.4312 9.7877 22.5 8.91113V18.5205C22.5 18.933 22.1625 19.2705 21.75 19.2705Z" fill="#191C1F"/>
</svg>
