<svg width="31" height="25" viewBox="0 0 31 25" fill="none" xmlns="http://www.w3.org/2000/svg">
<path d="M28.2857 0.768555H2.57143C1.15179 0.768555 0 1.92034 0 3.33998V22.1971C0 23.6168 1.15179 24.7686 2.57143 24.7686H28.2857C29.7054 24.7686 30.8571 23.6168 30.8571 22.1971V3.33998C30.8571 1.92034 29.7054 0.768555 28.2857 0.768555ZM2.57143 2.48284H28.2857C28.7571 2.48284 29.1429 2.86855 29.1429 3.33998V5.91141H1.71429V3.33998C1.71429 2.86855 2.1 2.48284 2.57143 2.48284ZM28.2857 23.0543H2.57143C2.1 23.0543 1.71429 22.6686 1.71429 22.1971V11.0543H29.1429V22.1971C29.1429 22.6686 28.7571 23.0543 28.2857 23.0543ZM10.2857 18.5543V18.9828C10.2857 19.3364 9.99643 19.6257 9.64286 19.6257H5.78571C5.43214 19.6257 5.14286 19.3364 5.14286 18.9828V18.5543C5.14286 18.2007 5.43214 17.9114 5.78571 17.9114H9.64286C9.99643 17.9114 10.2857 18.2007 10.2857 18.5543ZM20.5714 18.5543V18.9828C20.5714 19.3364 20.2821 19.6257 19.9286 19.6257H12.6429C12.2893 19.6257 12 19.3364 12 18.9828V18.5543C12 18.2007 12.2893 17.9114 12.6429 17.9114H19.9286C20.2821 17.9114 20.5714 18.2007 20.5714 18.5543Z" fill="#191C1F"/>
</svg>
