<svg width="24" height="25" viewBox="0 0 24 25" fill="none" xmlns="http://www.w3.org/2000/svg">
<path d="M23.5453 8.71426C23.7281 8.56895 24 8.70488 24 8.93457V18.5205C24 19.7627 22.9922 20.7705 21.75 20.7705H2.25C1.00781 20.7705 0 19.7627 0 18.5205V8.93926C0 8.70488 0.267187 8.57363 0.454687 8.71895C1.50469 9.53457 2.89688 10.5705 7.67813 14.0439C8.66719 14.7658 10.3359 16.2846 12 16.2752C13.6734 16.2893 15.375 14.7377 16.3266 14.0439C21.1078 10.5705 22.4953 9.52988 23.5453 8.71426ZM12 14.7705C13.0875 14.7893 14.6531 13.4018 15.4406 12.8299C21.6609 8.31582 22.1344 7.92207 23.5687 6.79707C23.8406 6.58613 24 6.25801 24 5.91113V5.02051C24 3.77832 22.9922 2.77051 21.75 2.77051H2.25C1.00781 2.77051 0 3.77832 0 5.02051V5.91113C0 6.25801 0.159375 6.58144 0.43125 6.79707C1.86563 7.91738 2.33906 8.31582 8.55938 12.8299C9.34688 13.4018 10.9125 14.7893 12 14.7705Z" fill="#191C1F"/>
</svg>
