<svg width="99" height="25" viewBox="0 0 99 25" fill="none" xmlns="http://www.w3.org/2000/svg">
<path d="M36.7366 6.13855H31.2866C30.9066 6.13855 30.5866 6.40855 30.5266 6.78855L28.3166 20.7285C28.2866 20.9685 28.4466 21.2185 28.6966 21.2385C28.7266 21.2385 28.7466 21.2385 28.7766 21.2385H31.3666C31.7466 21.2385 32.0666 20.9685 32.1266 20.5885L32.7166 16.8385C32.7666 16.4585 33.0966 16.1885 33.4766 16.1885H35.2066C38.7966 16.1885 40.8666 14.4585 41.4066 11.0085C41.6466 9.49855 41.4066 8.30855 40.7066 7.49855C39.9366 6.61855 38.5666 6.13855 36.7366 6.13855ZM37.3766 11.2285C37.0766 13.1686 35.5966 13.1685 34.1366 13.1685H33.3266L33.8966 9.52855C33.9266 9.30855 34.1166 9.14855 34.3566 9.14855H34.7366C35.7066 9.14855 36.6466 9.14855 37.1366 9.71855C37.4066 10.0485 37.4866 10.5286 37.3766 11.2285ZM52.9966 11.1785H50.3766C50.1566 11.1785 49.9766 11.3386 49.9166 11.5585L49.8066 12.2886L49.6166 12.0185C49.0466 11.2085 47.7866 10.9385 46.5466 10.9385C43.6566 10.9385 41.2066 13.1185 40.7266 16.1685C40.4866 17.7085 40.8366 19.1585 41.6966 20.1585C42.4766 21.0985 43.6366 21.4785 44.9866 21.4785C47.3066 21.4785 48.5966 19.9985 48.5966 19.9985L48.4866 20.7285C48.4566 20.9685 48.6166 21.2185 48.8666 21.2385C48.8966 21.2385 48.9166 21.2385 48.9466 21.2385H51.2966C51.6766 21.2385 51.9966 20.9685 52.0566 20.5885L53.4566 11.6586C53.4866 11.4186 53.3266 11.1686 53.0766 11.1486C53.0466 11.1786 53.0166 11.1785 52.9966 11.1785ZM49.3766 16.2185C49.1366 17.6985 47.9466 18.6986 46.4366 18.6986C45.6766 18.6986 45.0866 18.4585 44.6866 17.9985C44.3066 17.5385 44.1466 16.8885 44.2866 16.1685C44.5266 14.6885 45.7166 13.6586 47.1966 13.6586C47.9266 13.6586 48.5466 13.8986 48.9266 14.3586C49.3266 14.8485 49.4866 15.5185 49.3766 16.2185ZM66.8766 11.1785H64.2566C64.0166 11.1785 63.7666 11.3085 63.6366 11.4985L60.0266 16.8086L58.4866 11.7085C58.3766 11.3885 58.0866 11.1685 57.7566 11.1685H55.1966C54.9566 11.1685 54.7366 11.3585 54.7366 11.6285C54.7366 11.6785 54.7366 11.7385 54.7666 11.7585L57.6566 20.2285L54.9566 24.0586C54.8266 24.2786 54.8466 24.5486 55.0666 24.6786C55.1466 24.7285 55.2266 24.7585 55.3366 24.7585H57.9566C58.1966 24.7585 58.4466 24.6485 58.5766 24.4385L67.2866 11.8686C67.4166 11.6486 67.3666 11.3785 67.1766 11.2485C67.0466 11.2085 66.9566 11.1785 66.8766 11.1785Z" fill="#253B80"/>
<path d="M75.5366 6.13854H70.0866C69.7066 6.13854 69.3866 6.40854 69.3266 6.78854L67.1166 20.7285C67.0866 20.9685 67.2466 21.2185 67.4966 21.2385C67.5266 21.2385 67.5466 21.2385 67.5766 21.2385H70.3566C70.6266 21.2385 70.8466 21.0485 70.8666 20.7785L71.4866 16.8185C71.5366 16.4385 71.8666 16.1685 72.2466 16.1685H73.9766C77.5666 16.1685 79.6366 14.4385 80.1766 10.9885C80.4166 9.47854 80.1766 8.28854 79.4766 7.47854C78.7166 6.61854 77.3466 6.13854 75.5366 6.13854ZM76.1566 11.2285C75.8566 13.1685 74.3766 13.1685 72.9166 13.1685H72.1066L72.6766 9.52854C72.7066 9.30854 72.8966 9.14854 73.1366 9.14854H73.5166C74.4866 9.14854 75.4266 9.14854 75.9166 9.71854C76.1866 10.0485 76.2666 10.5285 76.1566 11.2285ZM91.7966 11.1785H89.1766C88.9566 11.1785 88.7766 11.3385 88.7166 11.5585L88.6066 12.2885L88.4166 12.0185C87.8466 11.2085 86.6066 10.9385 85.3466 10.9385C82.4566 10.9385 80.0066 13.1185 79.5266 16.1685C79.2866 17.7085 79.6366 19.1585 80.4966 20.1585C81.2766 21.0985 82.4366 21.4785 83.7866 21.4785C86.1066 21.4785 87.3966 19.9985 87.3966 19.9985L87.2866 20.7285C87.2566 20.9685 87.4166 21.2185 87.6666 21.2385C87.6966 21.2385 87.7166 21.2385 87.7466 21.2385H90.0966C90.4766 21.2385 90.7966 20.9685 90.8566 20.5885L92.2566 11.6585C92.2866 11.4185 92.1266 11.1685 91.8766 11.1485C91.8266 11.1785 91.7966 11.1785 91.7966 11.1785ZM88.1566 16.2185C87.9166 17.6985 86.7266 18.6985 85.2166 18.6985C84.4566 18.6985 83.8666 18.4585 83.4666 17.9985C83.0866 17.5385 82.9266 16.8885 83.0666 16.1685C83.3066 14.6885 84.4966 13.6585 85.9766 13.6585C86.7066 13.6585 87.3266 13.8985 87.7066 14.3585C88.1066 14.8485 88.2666 15.5185 88.1566 16.2185ZM94.8466 6.50854L92.6066 20.7185C92.5766 20.9585 92.7366 21.2085 92.9866 21.2285C93.0166 21.2285 93.0366 21.2285 93.0666 21.2285H95.3066C95.6866 21.2285 96.0066 20.9585 96.0666 20.5785L98.2766 6.63854C98.3066 6.39854 98.1466 6.14854 97.8966 6.12854C97.8666 6.12854 97.8466 6.12854 97.8166 6.12854H95.3066C95.0866 6.13854 94.8966 6.29854 94.8466 6.50854Z" fill="#179BD7"/>
<path d="M5.77659 23.9586L6.17659 21.3186L5.25659 21.2886H0.836586L3.90659 1.7886C3.93659 1.6586 4.03659 1.5686 4.14659 1.5686H11.6166C14.0966 1.5686 15.7966 2.0786 16.6866 3.1086C17.1166 3.5986 17.3566 4.0786 17.4966 4.6486C17.6266 5.2186 17.6266 5.9186 17.4966 6.7486V6.7986V7.3386L17.9266 7.5786C18.2466 7.7386 18.5166 7.9586 18.7666 8.2286C19.1166 8.6286 19.3566 9.1486 19.4366 9.7686C19.5466 10.3886 19.5166 11.1486 19.3266 12.0086C19.1366 12.9786 18.8166 13.8386 18.4066 14.5386C18.0266 15.1586 17.5466 15.6986 16.9466 16.1286C16.3766 16.5286 15.7366 16.8286 15.0066 17.0186C14.2766 17.2086 13.4666 17.2886 12.5566 17.2886H11.9666C11.5666 17.2886 11.1566 17.4486 10.8366 17.6886C10.5166 17.9586 10.3266 18.3386 10.2466 18.7386L10.1966 18.9786L9.52659 23.6486L9.49659 23.8286C9.49659 23.8786 9.46659 23.9086 9.44659 23.9386C9.41659 23.9686 9.39659 23.9686 9.36659 23.9686H5.77659V23.9586Z" fill="#253B80"/>
<path d="M18.3166 6.85852C18.2866 6.98852 18.2666 7.15852 18.2366 7.28852C17.2666 12.3285 13.8966 14.0885 9.57659 14.0885H7.39659C6.88659 14.0885 6.42659 14.4685 6.34659 14.9785L5.23659 22.0985L4.91659 24.1185C4.86659 24.4185 5.07659 24.7085 5.37659 24.7685C5.40659 24.7685 5.42659 24.7685 5.45659 24.7685H9.33659C9.79659 24.7685 10.1966 24.4485 10.2566 23.9885L10.2866 23.7985L11.0166 19.1585L11.0666 18.9185C11.1466 18.4585 11.5266 18.1385 11.9866 18.1385H12.5766C16.3266 18.1385 19.2866 16.5985 20.1566 12.2085C20.5066 10.3785 20.3166 8.80852 19.3766 7.72852C19.0966 7.34852 18.7166 7.07852 18.3166 6.85852Z" fill="#179BD7"/>
<path d="M17.2866 6.45852C16.9666 6.37852 16.6666 6.29852 16.3466 6.23852C15.6966 6.12852 15.0566 6.10852 14.4066 6.10852H8.57658C8.11658 6.10852 7.71658 6.42852 7.65658 6.88852L6.39658 14.7685L6.36658 15.0085C6.44658 14.4985 6.90658 14.1185 7.41658 14.1185H9.59659C13.8866 14.1185 17.2566 12.3685 18.2566 7.31852C18.2866 7.15852 18.3066 7.01852 18.3366 6.88852C18.0666 6.75852 17.7966 6.64852 17.5266 6.53852C17.4466 6.48852 17.3666 6.48852 17.2866 6.45852Z" fill="#222D65"/>
<path d="M7.63659 6.88855C7.71659 6.42855 8.09659 6.10855 8.55659 6.10855H14.4066C15.1066 6.10855 15.7566 6.15855 16.3466 6.23855C16.7466 6.28855 17.1266 6.39855 17.5366 6.50855C17.8366 6.61855 18.1066 6.72855 18.3466 6.85855C18.6466 4.99855 18.3466 3.72855 17.3266 2.56855C16.2066 1.30855 14.1866 0.768555 11.6266 0.768555H4.15659C3.64659 0.768555 3.18659 1.14855 3.10659 1.65855L0.00658573 21.3486C-0.0434143 21.6986 0.196586 22.0186 0.546586 22.0786C0.576586 22.0786 0.596586 22.0786 0.656586 22.0786H5.23659L6.39659 14.7486C6.39659 14.7686 7.63659 6.88855 7.63659 6.88855Z" fill="#253B80"/>
</svg>
