<svg width="46" height="25" viewBox="0 0 46 25" fill="none" xmlns="http://www.w3.org/2000/svg">
<path d="M0 9.30261H45.1913" stroke="#191C1F" stroke-width="3.63" stroke-miterlimit="10"/>
<path d="M11.3979 22.2197C11.3752 19.5734 11.4009 16.2145 12.0594 13.7216C12.0965 13.6105 12.0503 13.4899 11.9205 13.4899C11.8282 13.4899 11.7816 13.5365 11.7541 13.6475C11.1788 16.1244 11.1135 18.6561 11.1065 21.1822C10.8987 20.3935 10.6779 19.4484 10.3927 18.1461C10.1244 16.9236 9.97585 15.9685 9.75373 14.0347C9.73544 13.8679 9.64267 13.7734 9.49459 13.7734C9.33692 13.7734 9.24459 13.8849 9.24459 14.07C9.24459 14.4419 9.28205 15.009 9.34041 15.5756C9.30818 17.6888 9.1405 20.6008 8.6331 22.4779C8.59608 22.5986 8.54991 22.6726 8.51289 22.6726C8.43885 22.6726 8.37396 22.5058 8.2629 22.0058C8.25804 21.9732 8.24101 21.9436 8.21524 21.923C8.18947 21.9024 8.15686 21.8923 8.12396 21.8947C8.04077 21.8947 7.98503 21.9688 8.00375 22.089C8.27204 23.3956 8.32779 23.7187 8.56995 23.7187C8.73632 23.7187 8.83824 23.5881 8.91228 23.2928C9.34781 21.5629 9.48805 19.2284 9.56819 17.2119C9.90094 19.2397 10.404 21.3207 10.8848 22.8303C10.9497 23.0341 11.0699 23.1173 11.2276 23.1173C11.4776 23.1173 11.5978 22.9322 11.5146 22.5894C11.4745 22.4686 11.4356 22.3454 11.3979 22.2197Z" fill="#191C1F"/>
<path d="M14.4117 16.8987C14.5781 16.8987 14.8377 16.6021 14.8377 16.38C14.8377 16.167 14.68 15.9819 14.5136 15.9819C14.2728 15.9819 14.217 16.3613 14.217 16.5372C14.217 16.7589 14.2728 16.8987 14.4117 16.8987Z" fill="#191C1F"/>
<path d="M23.0418 20.3517C23.0418 20.2685 22.9957 20.2036 22.9112 20.2036C22.8371 20.2036 22.7905 20.2497 22.7722 20.3425C22.7073 20.778 22.6703 20.8983 22.6054 20.8983C22.4748 20.8983 22.4386 20.3146 22.4386 19.7406C22.4386 19.3238 22.4203 18.6017 22.4203 17.6383C22.4203 17.5551 22.3833 17.4902 22.3093 17.4902C22.2352 17.4902 22.1982 17.5368 22.1612 17.6209C21.7199 18.6197 21.381 19.6607 21.1499 20.728C21.1307 20.1295 21.1063 19.3046 21.1063 18.7319C21.1063 18.1657 21.0967 17.7506 21.0784 17.5098C21.0691 17.3617 21.0043 17.2877 20.8838 17.2877C20.7531 17.2877 20.6804 17.38 20.6804 17.5189C20.6804 17.7968 20.6804 18.0468 20.6616 18.2689C20.6101 18.9971 20.4797 19.7174 20.2727 20.4174C20.2078 20.6395 20.1338 20.7602 20.0597 20.7602C19.9395 20.7602 19.9025 20.1857 19.9025 19.5285C19.9025 18.8155 19.9395 18.1783 19.9765 17.704C19.9857 17.593 19.9208 17.5468 19.8376 17.5468C19.7989 17.5469 19.7616 17.5611 19.7326 17.5866C19.7036 17.6122 19.6849 17.6474 19.6799 17.6858C19.6799 17.6932 19.6769 17.7001 19.6752 17.7075C19.6092 17.6506 19.5265 17.617 19.4395 17.6117C18.8559 17.6117 18.4378 18.5377 18.3376 20.0564C18.3189 20.3155 18.291 21.1395 18.1247 21.1395C17.9391 21.1395 17.8633 19.9727 17.8633 19.2045C17.8633 18.7136 17.8912 18.454 17.9191 17.8338C17.9282 17.63 17.9374 17.343 17.8172 17.343C17.7341 17.343 17.6229 17.5189 17.4836 17.8709C17.2222 18.5359 17.0694 19.1108 16.9078 20.0921C16.9004 19.8687 16.8947 19.6182 16.8912 19.3626C16.8816 18.7236 16.8912 18.2977 16.8355 17.6587C16.8263 17.5568 16.7985 17.4919 16.7244 17.4919C16.6687 17.4919 16.6225 17.5107 16.5576 17.6496C16.3065 18.1797 16.1001 18.7298 15.9405 19.2942C15.9405 19.062 15.9492 18.7742 15.9492 18.7332C15.9546 18.2882 15.9362 17.8431 15.8939 17.4C15.8751 17.2515 15.7919 17.1683 15.6805 17.1683C15.5498 17.1683 15.4675 17.2515 15.4305 17.4183C15.2732 18.1222 14.6901 21.1038 14.3381 21.1038C14.2824 21.1038 14.2545 20.9928 14.2545 20.7889C14.2545 20.2985 14.3103 19.5019 14.5881 17.7149C14.6064 17.5943 14.5511 17.5481 14.4675 17.5481H14.3103C14.1622 17.5481 14.0415 17.65 14.0054 17.8164C13.9314 18.15 13.8747 18.7241 13.7645 19.6221C13.6626 20.474 13.1443 21.5485 12.8386 21.5485C12.6905 21.5485 12.6073 21.4466 12.5424 21.1874C12.5214 21.0916 12.509 20.9941 12.5054 20.8961C12.5516 20.8151 12.5951 20.7354 12.6361 20.6596C13.0995 19.7798 13.3678 18.8909 13.3678 18.2424C13.3678 17.7702 13.2371 17.5481 12.9697 17.5481C12.3491 17.5481 11.8678 18.7428 11.8678 20.2706C11.8649 20.5894 11.9119 20.9067 12.0072 21.211C11.9253 21.329 11.836 21.4536 11.738 21.5855C11.709 21.623 11.6928 21.6688 11.6919 21.7162C11.6912 21.7335 11.6942 21.7508 11.7006 21.7669C11.7069 21.783 11.7165 21.7977 11.7288 21.8099C11.741 21.8222 11.7557 21.8318 11.7718 21.8381C11.7879 21.8445 11.8052 21.8475 11.8225 21.8468C11.8491 21.8483 11.8755 21.8421 11.8987 21.8289C11.9218 21.8158 11.9407 21.7963 11.9532 21.7728C12.0085 21.6975 12.0699 21.6086 12.1339 21.5115C12.2824 21.7941 12.4823 21.9675 12.7032 21.9675C13.0542 21.9675 13.495 21.3839 13.7484 20.6487C13.7484 20.8512 13.7589 21.0799 13.7763 21.3656C13.8133 21.7915 13.907 21.9675 14.1003 21.9675C14.231 21.9675 14.4152 21.7728 14.5542 21.4858C14.8926 20.8003 15.1461 19.9444 15.4984 18.2537V18.3373C15.4941 19.5061 15.3795 20.6718 15.1561 21.819C15.1373 21.9117 15.1652 21.9675 15.2484 21.9675H15.369C15.5433 21.9675 15.6652 21.8747 15.6931 21.7266C15.7671 21.3469 15.8133 21.0507 15.8873 20.5781C15.9861 19.9614 16.1326 19.3534 16.3255 18.7593C16.3189 18.9771 16.3133 19.2167 16.3133 19.4562C16.3144 20.2143 16.3857 20.9708 16.5263 21.7158C16.5633 21.9009 16.6282 21.9658 16.7392 21.9658C16.8411 21.9658 16.9134 21.8913 16.9339 21.7044C17.014 20.8223 17.1499 19.9461 17.3407 19.0812C17.3568 19.9322 17.3542 20.3125 17.4431 20.8617C17.5637 21.5751 17.7479 21.964 17.9618 21.964C18.1264 21.964 18.2453 21.7462 18.3712 21.1539C18.4679 21.616 18.6704 21.964 18.8786 21.964C19.1037 21.964 19.3524 21.5328 19.5062 21.2027C19.5724 21.5716 19.737 21.9174 19.8694 21.9174C20.0018 21.9174 20.1194 21.751 20.2583 21.3712C20.4574 20.7881 20.5745 20.3904 20.6686 19.91C20.6507 20.4466 20.6625 21.0677 20.7122 21.3712C20.7866 21.7972 20.8428 21.964 21.0088 21.964C21.1477 21.964 21.183 21.8804 21.2126 21.7232C21.4591 20.3329 21.6751 19.6369 21.902 18.9675C21.8933 19.2384 21.8885 19.5159 21.8885 19.7785C21.8885 20.2972 21.9068 20.7506 21.9347 20.9915C22.0275 21.6674 22.1477 21.964 22.3328 21.964C22.7274 21.9631 23.0418 20.6204 23.0418 20.3517ZM12.4762 19.9444C12.4762 19.5089 12.6892 17.8513 12.9579 17.8513C13.0503 17.8513 13.0886 17.9719 13.0886 18.2681C13.0886 18.7127 12.8665 19.5829 12.5886 20.2127C12.5581 20.2828 12.5233 20.3556 12.4841 20.4305C12.4784 20.2789 12.4762 20.113 12.4762 19.9444ZM19.1434 21.2868C18.977 21.2868 18.8564 20.6848 18.8564 19.8329C18.8564 18.8517 19.1804 17.833 19.4953 17.833C19.5228 17.8333 19.5498 17.8407 19.5736 17.8545C19.5975 17.8682 19.6174 17.8878 19.6316 17.9114C19.4941 18.5645 19.4267 19.2304 19.4304 19.8978C19.4304 20.1753 19.4435 20.4719 19.4639 20.7929C19.3651 21.0494 19.2161 21.2868 19.1434 21.2868Z" fill="#191C1F"/>
<path d="M37.0804 20.3705C36.8919 20.2625 36.6874 20.1851 36.4746 20.1414C36.3875 19.7442 36.2838 19.3039 36.2838 18.7682C36.2838 18.3326 36.3395 18.0278 36.3766 17.6292C36.3857 17.5182 36.3304 17.455 36.2376 17.455C36.1266 17.455 36.0804 17.5108 36.0634 17.6031C35.8692 18.668 35.6836 19.2146 35.4537 19.9463C35.37 20.1963 35.0926 21.0295 34.9167 21.0295C34.8426 21.0295 34.7777 20.9275 34.7777 20.5016C34.7777 19.6963 34.9441 18.7055 34.9998 17.8161C35.009 17.668 34.9167 17.5757 34.7681 17.5757C34.6296 17.5757 34.5369 17.668 34.5277 17.8348C34.4907 18.3069 34.4167 18.8997 34.296 19.6405C34.1357 20.5465 33.9319 21.0364 33.7102 21.0364C33.5992 21.0364 33.5247 20.8979 33.5247 20.6662C33.5247 19.4067 33.8296 17.7586 33.8675 17.4716C33.8766 17.4067 33.8492 17.3605 33.7747 17.3605H33.6266C33.4694 17.3605 33.3583 17.4346 33.3304 17.6475C33.3026 17.8509 33.2656 18.1754 33.1728 18.7033C32.8679 20.4454 32.4968 21.2864 32.0339 21.2864C31.7934 21.2864 31.6266 20.9815 31.6266 20.5364C31.6266 18.9437 31.9315 17.8235 32.3396 17.8235C32.4324 17.8235 32.5339 17.9542 32.5339 18.1754C32.5339 18.5735 32.0805 18.6845 32.0805 18.9994C32.0805 19.1475 32.1728 19.2586 32.3209 19.2586C32.5339 19.2586 32.7843 18.9537 32.7843 18.1937C32.7843 17.7677 32.6454 17.5456 32.3305 17.5456C31.756 17.5456 31.2469 18.4345 31.1171 19.9162C31.0618 20.5552 30.8301 21.009 30.6079 21.009C30.4877 21.009 30.4228 20.8422 30.4228 20.5364C30.4228 19.5735 30.7007 18.4528 30.9411 17.8418C30.9598 17.7956 30.9598 17.7586 30.9228 17.7307L30.83 17.6658C30.7955 17.6398 30.753 17.6267 30.7098 17.6288C30.6771 17.6274 30.6445 17.6333 30.6144 17.6461C30.5842 17.6589 30.5573 17.6783 30.5356 17.7029C30.3614 17.8771 30.2024 17.9716 30.0818 17.9716C29.9429 17.9716 29.878 17.8326 29.878 17.5269C29.878 17.425 29.8227 17.3605 29.7207 17.3605C29.6188 17.3605 29.5539 17.4346 29.5539 17.5548C29.5539 18.4716 29.5078 18.8792 29.452 19.5922C29.378 20.4903 29.2486 21.009 29.0818 21.009C28.9076 21.009 28.878 19.8975 28.878 18.9903C28.878 18.5548 28.8967 18.0269 28.9242 17.7124C28.9337 17.6105 28.878 17.5456 28.7857 17.5456C28.702 17.5456 28.6467 17.5918 28.628 17.6937C28.6241 17.7146 28.6206 17.7373 28.6167 17.7564C28.5241 17.6712 28.4019 17.6254 28.2761 17.6288C27.7391 17.6288 27.2744 18.8143 27.2744 20.0273C27.2744 20.6013 27.0893 21.2864 26.9316 21.2864C26.8576 21.2864 26.7835 20.9815 26.7373 20.4811C26.5244 18.3975 26.5056 15.908 26.6167 14.3044C26.6263 14.1654 26.5984 14.101 26.5148 14.101C26.4503 14.101 26.4037 14.138 26.3763 14.2582C25.9643 16.0247 25.5292 18.0474 25.2757 19.357C25.2356 18.8291 25.1294 17.8871 24.9869 16.8601C24.848 15.8697 24.6821 14.5269 24.6446 13.7582C24.635 13.5731 24.5518 13.4895 24.4038 13.4895C24.2369 13.4895 24.1538 13.6006 24.1721 13.7861C24.206 14.1306 24.2383 14.4769 24.2679 14.8144C24.2034 16.9411 23.7073 20.2124 23.237 22.5739C23.2091 22.7128 23.1538 22.8352 23.0331 22.8352C22.9408 22.8352 22.848 22.715 22.7648 22.4371C22.737 22.3539 22.7 22.3169 22.6259 22.3169C22.524 22.3169 22.4774 22.4184 22.5053 22.5203C22.8572 23.8077 22.8942 24.0011 23.0889 24.0011C23.2278 24.0011 23.3019 23.8809 23.3759 23.5656C23.7243 22.1322 24.1951 18.9759 24.4212 16.7116C24.4403 16.9664 24.4556 17.1867 24.4673 17.3614C24.6154 19.6575 24.6803 20.7782 24.8376 22.1958C24.8467 22.279 24.8837 22.3439 24.9682 22.3439C25.0701 22.3439 25.1071 22.2607 25.1163 22.1958C25.3802 20.333 25.6437 18.7551 25.9142 17.401C25.9577 19.1963 26.0509 20.9258 26.1442 21.6218C26.2374 22.3178 26.3571 22.5939 26.5422 22.5939C26.7718 22.5939 27.1206 21.9193 27.3262 21.1527C27.4081 21.6174 27.635 21.9645 27.8872 21.9645C27.9982 21.9645 28.091 21.8901 28.2208 21.7032C28.3167 21.5564 28.3988 21.401 28.466 21.2389C28.5374 21.6675 28.7447 22.0181 28.952 22.0181C29.3227 22.0181 29.591 21.2124 29.7116 19.6475C29.7499 19.1728 29.7856 18.7764 29.8135 18.4568C29.8416 18.4908 29.877 18.5181 29.917 18.5367C29.957 18.5553 30.0007 18.5648 30.0448 18.5643C30.1754 18.5643 30.3231 18.4947 30.5165 18.3357C30.1306 19.4149 29.9067 20.4863 29.9067 21.2494C29.9067 21.7128 30.0274 21.9628 30.2586 21.9628C30.5509 21.9628 30.8248 21.5782 31.0861 20.7986C31.1219 21.4611 31.4411 21.9628 31.8514 21.9628C32.2434 21.9628 32.6493 21.3866 32.9903 20.3884C32.9777 20.5904 32.972 20.7485 32.972 20.8792C32.972 21.2032 33.0273 21.9628 33.4441 21.9628C33.7294 21.9628 33.9284 21.6396 34.2751 20.5255C34.2664 20.6924 34.259 20.8801 34.259 21.0534C34.259 21.6196 34.3979 21.9145 34.6571 21.9145C34.8953 21.9145 35.0678 21.7111 35.3104 21.0922C35.347 21.5952 35.6484 21.9611 36.0477 21.9611C36.3992 21.9611 36.6309 21.6183 36.6309 21.0996V21.0717C36.627 20.8532 36.5978 20.6359 36.5438 20.4241C36.7006 20.4596 36.8478 20.529 36.975 20.6275C36.9993 20.6448 37.0283 20.6546 37.0582 20.6553C37.0753 20.6569 37.0925 20.655 37.1089 20.6497C37.1252 20.6444 37.1404 20.6359 37.1533 20.6246C37.1663 20.6133 37.1769 20.5996 37.1844 20.5841C37.1919 20.5687 37.1962 20.5519 37.1971 20.5347C37.1914 20.4702 37.1727 20.4267 37.0804 20.3705ZM28.1441 21.2851C27.922 21.2851 27.8018 20.8221 27.8018 19.9611C27.8018 18.7294 28.0239 17.8496 28.3479 17.8496C28.4351 17.8496 28.5121 17.8997 28.5731 17.999C28.4693 18.6696 28.4188 19.3474 28.422 20.026C28.422 20.4062 28.4281 20.654 28.4351 20.8644C28.3379 21.093 28.2099 21.2869 28.1441 21.2869V21.2851ZM35.9876 20.1C35.9876 20.1087 35.9876 20.117 35.9898 20.1253C35.8437 20.1447 35.7053 20.2021 35.5882 20.2917C35.7403 19.837 35.8552 19.4676 35.9506 19.124C35.9515 19.4367 35.9611 19.7564 35.9876 20.1018V20.1ZM35.8208 21.3226C35.6819 21.3226 35.5595 21.137 35.5595 20.9428C35.5595 20.6057 35.6989 20.4354 36.0133 20.3962C36.0389 20.584 36.0543 20.773 36.0595 20.9624C36.0621 21.1854 35.9689 21.3243 35.8208 21.3243V21.3226Z" fill="#191C1F"/>
<path d="M4.59534 0.115967H6.90626V0.566307H5.05613V2.01227H6.90626V2.46479H5.05613V4.72956H4.59534V0.115967Z" fill="#191C1F"/>
<path d="M8.43766 0.115967L10.5888 4.72912H10.0909L9.36404 3.21129H7.37801L6.65938 4.72912H6.14502L8.32268 0.115967H8.43766ZM8.3793 1.09635L7.58881 2.76618H9.16587L8.3793 1.09635Z" fill="#191C1F"/>
<path d="M10.4415 3.86981L10.8335 3.63462C11.1096 4.14245 11.429 4.39651 11.7917 4.3968C11.9436 4.39739 12.0933 4.36012 12.2272 4.28836C12.3561 4.22308 12.4638 4.12248 12.5377 3.99829C12.6067 3.88233 12.6431 3.74993 12.6431 3.61502C12.6399 3.45063 12.585 3.29141 12.4863 3.15989C12.3412 2.95519 12.0777 2.70839 11.6959 2.41949C11.314 2.13059 11.0746 1.91935 10.9777 1.78579C10.8202 1.58422 10.7343 1.33601 10.7333 1.08023C10.7311 0.887659 10.7809 0.69806 10.8775 0.531457C10.9737 0.365443 11.1145 0.229664 11.2838 0.139478C11.4585 0.0453845 11.6543 -0.0025855 11.8526 0.000107441C12.0666 -0.000603719 12.2769 0.0551324 12.4624 0.16169C12.6514 0.269121 12.8515 0.467143 13.0625 0.755756L12.6867 1.04146C12.5125 0.811504 12.3645 0.659794 12.2429 0.586334C12.1222 0.513841 11.9839 0.475877 11.8431 0.47658C11.7596 0.473309 11.6763 0.486596 11.5979 0.515673C11.5196 0.544751 11.4478 0.589045 11.3866 0.646002C11.3294 0.699151 11.284 0.763792 11.2534 0.835693C11.2229 0.907594 11.2079 0.985135 11.2094 1.06324C11.2094 1.16371 11.2308 1.26303 11.2721 1.35461C11.3294 1.47003 11.407 1.57419 11.5012 1.6621C11.5619 1.72017 11.7605 1.87377 12.097 2.12289C12.4962 2.4176 12.77 2.68008 12.9184 2.91033C13.0589 3.11455 13.1364 3.35546 13.1414 3.60327C13.1414 3.93775 13.0143 4.22811 12.7603 4.47433C12.6384 4.59482 12.4936 4.68963 12.3344 4.75314C12.1752 4.81665 12.0048 4.84758 11.8335 4.8441C11.5629 4.84682 11.2977 4.76872 11.0717 4.6198C10.8438 4.47114 10.6337 4.22114 10.4415 3.86981Z" fill="#191C1F"/>
<path d="M13.4039 0.115967H13.8652V2.05104H16.214V0.115967H16.6748V4.72912H16.214V2.50268H13.8652V4.72912H13.4039V0.115967Z" fill="#191C1F"/>
<path d="M17.2501 0.115967H17.7109V4.72912H17.2501V0.115967Z" fill="#191C1F"/>
<path d="M20.5471 0.000142931C21.2457 0.000142931 21.8298 0.233298 22.2993 0.699609C22.7688 1.16592 23.0041 1.73981 23.0053 2.42127C23.0053 3.09635 22.7705 3.66907 22.301 4.13945C21.8315 4.60982 21.2588 4.84501 20.5828 4.84501C19.8987 4.84501 19.3214 4.61084 18.8507 4.1425C18.6229 3.92288 18.4426 3.65877 18.3212 3.36657C18.1997 3.07437 18.1397 2.76031 18.1447 2.44392C18.1417 2.01163 18.2527 1.5862 18.4666 1.21049C18.6742 0.841772 18.9765 0.535182 19.3422 0.322402C19.708 0.109622 20.124 -0.00162989 20.5471 0.000142931ZM20.5671 0.448742C20.2264 0.44925 19.892 0.541307 19.5989 0.715288C19.3002 0.886368 19.0529 1.13456 18.8829 1.43392C18.7097 1.74111 18.6207 2.08865 18.6251 2.4413C18.6251 2.98979 18.8151 3.45276 19.1952 3.83022C19.3737 4.01304 19.5877 4.15753 19.8239 4.25488C20.0602 4.35223 20.3138 4.40039 20.5693 4.39641C20.918 4.39846 21.261 4.30831 21.5636 4.13509C21.8621 3.96742 22.1088 3.72093 22.2766 3.42256C22.4486 3.11604 22.5369 2.76967 22.5327 2.41822C22.5374 2.07016 22.449 1.72717 22.2766 1.42477C22.1044 1.12752 21.8554 0.88202 21.5558 0.713981C21.2557 0.539257 20.9144 0.4477 20.5671 0.448742Z" fill="#191C1F"/>
<path d="M23.4216 4.72912V0.115967H23.5218L26.5919 3.65205V0.115967H27.0466V4.72912H26.9429L23.8981 1.23616V4.72912H23.4216Z" fill="#191C1F"/>
<path d="M27.4917 0.115967H28.4107C28.9371 0.115967 29.2925 0.13905 29.4769 0.185216C29.7302 0.243886 29.9572 0.384402 30.1227 0.585035C30.29 0.786832 30.3736 1.04031 30.3736 1.34547C30.3736 1.65064 30.292 1.90412 30.1288 2.10591C29.966 2.30539 29.7412 2.43968 29.4546 2.50878C29.2456 2.55901 28.8548 2.58413 28.2822 2.58413H27.9529V4.72912H27.4917V0.115967ZM27.9529 0.566307V2.13422L28.7334 2.1438C29.0493 2.1438 29.2804 2.11477 29.4268 2.0567C29.5684 2.00288 29.6892 1.90541 29.7717 1.77839C29.8552 1.65039 29.8989 1.50048 29.8971 1.34765C29.8982 1.1971 29.8545 1.04962 29.7717 0.923879C29.6936 0.799726 29.5782 0.703514 29.442 0.649058C29.3041 0.593891 29.0795 0.566307 28.7682 0.566307H27.9529Z" fill="#191C1F"/>
<path d="M30.7434 0.115967H31.2042V2.05104H33.553V0.115967H34.0151V4.72912H33.553V2.50268H31.2042V4.72912H30.7434V0.115967Z" fill="#191C1F"/>
<path d="M34.4941 0.115967H34.9549V4.72912H34.4941V0.115967Z" fill="#191C1F"/>
<path d="M35.4646 0.115967H35.9258V4.28357H37.7006V4.72912H35.4646V0.115967Z" fill="#191C1F"/>
<path d="M37.9528 0.115967H40.5964V0.566307H38.414V2.01227H40.5777V2.46479H38.414V4.27748H40.5777V4.72912H37.9528V0.115967Z" fill="#191C1F"/>
</svg>
