<svg width="31" height="25" viewBox="0 0 31 25" fill="none" xmlns="http://www.w3.org/2000/svg">
<rect x="0.5" y="0.937988" width="29.86" height="23" rx="2.5" fill="white" stroke="#D8D8D8"/>
<path fill-rule="evenodd" clip-rule="evenodd" d="M16.1529 11.5857C16.1442 12.5169 17.0142 13.0455 17.6753 13.3559C18.3539 13.6747 18.5801 13.876 18.5801 14.1613C18.5714 14.5975 18.0407 14.7905 17.5361 14.7989C16.6575 14.8157 16.1529 14.5724 15.744 14.3878L15.4308 15.814C15.8397 15.9986 16.5879 16.1496 17.3708 16.158C19.1978 16.158 20.3983 15.2855 20.407 13.9348C20.4157 12.2233 17.9537 12.1226 17.9624 11.3592C17.9711 11.1243 18.1973 10.881 18.7019 10.8139C18.9542 10.7803 19.6414 10.7551 20.4157 11.1075L20.7202 9.73162C20.3026 9.58061 19.7632 9.43799 19.0934 9.43799C17.3708 9.43799 16.1616 10.3189 16.1529 11.5857ZM23.6607 9.55544C23.3301 9.55544 23.043 9.74001 22.9212 10.0336L20.3113 16.0489H22.1382L22.5036 15.0757H24.7394L24.9482 16.0489H26.5576L25.1483 9.55544H23.6607ZM23.9216 11.3088L24.4523 13.7502H22.9995L23.9216 11.3088ZM13.9345 9.55544L12.4904 16.0489H14.2303L15.6744 9.55544H13.9345ZM11.3594 9.55544L9.5499 13.9767L8.81913 10.2182C8.73213 9.79874 8.39285 9.55544 8.01876 9.55544H5.0435L5 9.7484C5.60897 9.87424 6.29624 10.084 6.72252 10.3021C6.97481 10.4363 7.05311 10.5538 7.1401 10.8726L8.53204 16.0573H10.3764L13.195 9.56383H11.3594V9.55544Z" fill="#1A1F71"/>
</svg>
